<?xml version="1.0" encoding="UTF-8" standalone="no"?>
<!DOCTYPE svg PUBLIC "-//W3C//DTD SVG 1.0//EN"
 "http://www.w3.org/TR/2001/REC-SVG-20010904/DTD/svg10.dtd" [
 <!ATTLIST svg xmlns:xlink CDATA #FIXED "http://www.w3.org/1999/xlink">
]>
<!-- Generated by Graphviz version 2.16 (Fri Feb  8 12:54:58 UTC 2008)
     For user: (lowentropy) Nathan Matthews,,, -->
<!-- Title: controllers_diagram Pages: 1 -->
<svg width="824pt" height="1274pt"
 viewBox="0.00 0.00 824.00 1274.00" xmlns="http://www.w3.org/2000/svg" xmlns:xlink="http://www.w3.org/1999/xlink">
<g id="graph0" class="graph" transform="scale(1 1) rotate(0) translate(4 1270)">
<title>controllers_diagram</title>
<polygon style="fill:white;stroke:white;" points="-4,4 -4,-1270 820,-1270 820,4 -4,4"/>
<!-- PersonStatsController -->
<g id="node1" class="node"><title>PersonStatsController</title>
<polyline style="fill:none;stroke:black;" points="13,-498 124,-498 "/>
<path style="fill:none;stroke:black;" d="M124,-498C130,-498 136,-504 136,-510"/>
<polyline style="fill:none;stroke:black;" points="136,-510 136,-694 "/>
<path style="fill:none;stroke:black;" d="M136,-694C136,-700 130,-706 124,-706"/>
<polyline style="fill:none;stroke:black;" points="124,-706 13,-706 "/>
<path style="fill:none;stroke:black;" d="M13,-706C7,-706 1,-700 1,-694"/>
<polyline style="fill:none;stroke:black;" points="1,-694 1,-510 "/>
<path style="fill:none;stroke:black;" d="M1,-510C1,-504 7,-498 13,-498"/>
<text text-anchor="middle" x="68" y="-689.4" style="font-family:Times New Roman;font-size:14.00;">PersonStatsController</text>
<polyline style="fill:none;stroke:black;" points="1,-680 136,-680 "/>
<text text-anchor="start" x="8.625" y="-663.4" style="font-family:Times New Roman;font-size:14.00;">create</text>
<text text-anchor="start" x="8.625" y="-645.4" style="font-family:Times New Roman;font-size:14.00;">destroy</text>
<text text-anchor="start" x="8.625" y="-627.4" style="font-family:Times New Roman;font-size:14.00;">edit</text>
<text text-anchor="start" x="8.625" y="-609.4" style="font-family:Times New Roman;font-size:14.00;">index</text>
<text text-anchor="start" x="8.625" y="-591.4" style="font-family:Times New Roman;font-size:14.00;">new</text>
<text text-anchor="start" x="8.625" y="-573.4" style="font-family:Times New Roman;font-size:14.00;">show</text>
<text text-anchor="start" x="8.625" y="-555.4" style="font-family:Times New Roman;font-size:14.00;">update</text>
<polyline style="fill:none;stroke:black;" points="1,-546 136,-546 "/>
<polyline style="fill:none;stroke:black;" points="1,-522 136,-522 "/>
</g>
<!-- GraphsController -->
<g id="node2" class="node"><title>GraphsController</title>
<polyline style="fill:none;stroke:black;" points="659,-745 746,-745 "/>
<path style="fill:none;stroke:black;" d="M746,-745C752,-745 758,-751 758,-757"/>
<polyline style="fill:none;stroke:black;" points="758,-757 758,-941 "/>
<path style="fill:none;stroke:black;" d="M758,-941C758,-947 752,-953 746,-953"/>
<polyline style="fill:none;stroke:black;" points="746,-953 659,-953 "/>
<path style="fill:none;stroke:black;" d="M659,-953C653,-953 647,-947 647,-941"/>
<polyline style="fill:none;stroke:black;" points="647,-941 647,-757 "/>
<path style="fill:none;stroke:black;" d="M647,-757C647,-751 653,-745 659,-745"/>
<text text-anchor="middle" x="702" y="-936.4" style="font-family:Times New Roman;font-size:14.00;">GraphsController</text>
<polyline style="fill:none;stroke:black;" points="647,-927 758,-927 "/>
<text text-anchor="start" x="654.625" y="-910.4" style="font-family:Times New Roman;font-size:14.00;">create</text>
<text text-anchor="start" x="654.625" y="-892.4" style="font-family:Times New Roman;font-size:14.00;">destroy</text>
<text text-anchor="start" x="654.625" y="-874.4" style="font-family:Times New Roman;font-size:14.00;">edit</text>
<text text-anchor="start" x="654.625" y="-856.4" style="font-family:Times New Roman;font-size:14.00;">index</text>
<text text-anchor="start" x="654.625" y="-838.4" style="font-family:Times New Roman;font-size:14.00;">new</text>
<text text-anchor="start" x="654.625" y="-820.4" style="font-family:Times New Roman;font-size:14.00;">show</text>
<text text-anchor="start" x="654.625" y="-802.4" style="font-family:Times New Roman;font-size:14.00;">update</text>
<polyline style="fill:none;stroke:black;" points="647,-793 758,-793 "/>
<polyline style="fill:none;stroke:black;" points="647,-769 758,-769 "/>
</g>
<!-- UsersController -->
<g id="node3" class="node"><title>UsersController</title>
<polyline style="fill:none;stroke:black;" points="355,-1 460,-1 "/>
<path style="fill:none;stroke:black;" d="M460,-1C466,-1 472,-7 472,-13"/>
<polyline style="fill:none;stroke:black;" points="472,-13 472,-305 "/>
<path style="fill:none;stroke:black;" d="M472,-305C472,-311 466,-317 460,-317"/>
<polyline style="fill:none;stroke:black;" points="460,-317 355,-317 "/>
<path style="fill:none;stroke:black;" d="M355,-317C349,-317 343,-311 343,-305"/>
<polyline style="fill:none;stroke:black;" points="343,-305 343,-13 "/>
<path style="fill:none;stroke:black;" d="M343,-13C343,-7 349,-1 355,-1"/>
<text text-anchor="middle" x="407" y="-300.4" style="font-family:Times New Roman;font-size:14.00;">UsersController</text>
<polyline style="fill:none;stroke:black;" points="343,-291 472,-291 "/>
<text text-anchor="start" x="350.375" y="-274.4" style="font-family:Times New Roman;font-size:14.00;">complete_login</text>
<text text-anchor="start" x="350.375" y="-256.4" style="font-family:Times New Roman;font-size:14.00;">create</text>
<text text-anchor="start" x="350.375" y="-238.4" style="font-family:Times New Roman;font-size:14.00;">destroy</text>
<text text-anchor="start" x="350.375" y="-220.4" style="font-family:Times New Roman;font-size:14.00;">edit</text>
<text text-anchor="start" x="350.375" y="-202.4" style="font-family:Times New Roman;font-size:14.00;">failed_login_redirect</text>
<text text-anchor="start" x="350.375" y="-184.4" style="font-family:Times New Roman;font-size:14.00;">index</text>
<text text-anchor="start" x="350.375" y="-166.4" style="font-family:Times New Roman;font-size:14.00;">logged_in_user</text>
<text text-anchor="start" x="350.375" y="-148.4" style="font-family:Times New Roman;font-size:14.00;">login_redirect</text>
<text text-anchor="start" x="350.375" y="-130.4" style="font-family:Times New Roman;font-size:14.00;">logout</text>
<text text-anchor="start" x="350.375" y="-112.4" style="font-family:Times New Roman;font-size:14.00;">new</text>
<text text-anchor="start" x="350.375" y="-94.4" style="font-family:Times New Roman;font-size:14.00;">show</text>
<text text-anchor="start" x="350.375" y="-76.4" style="font-family:Times New Roman;font-size:14.00;">start_login</text>
<text text-anchor="start" x="350.375" y="-58.4" style="font-family:Times New Roman;font-size:14.00;">update</text>
<polyline style="fill:none;stroke:black;" points="343,-49 472,-49 "/>
<polyline style="fill:none;stroke:black;" points="343,-25 472,-25 "/>
</g>
<!-- StatsController -->
<g id="node4" class="node"><title>StatsController</title>
<polyline style="fill:none;stroke:black;" points="376,-1007 450,-1007 "/>
<path style="fill:none;stroke:black;" d="M450,-1007C456,-1007 462,-1013 462,-1019"/>
<polyline style="fill:none;stroke:black;" points="462,-1019 462,-1203 "/>
<path style="fill:none;stroke:black;" d="M462,-1203C462,-1209 456,-1215 450,-1215"/>
<polyline style="fill:none;stroke:black;" points="450,-1215 376,-1215 "/>
<path style="fill:none;stroke:black;" d="M376,-1215C370,-1215 364,-1209 364,-1203"/>
<polyline style="fill:none;stroke:black;" points="364,-1203 364,-1019 "/>
<path style="fill:none;stroke:black;" d="M364,-1019C364,-1013 370,-1007 376,-1007"/>
<text text-anchor="middle" x="413" y="-1198.4" style="font-family:Times New Roman;font-size:14.00;">StatsController</text>
<polyline style="fill:none;stroke:black;" points="364,-1189 462,-1189 "/>
<text text-anchor="start" x="372.125" y="-1172.4" style="font-family:Times New Roman;font-size:14.00;">create</text>
<text text-anchor="start" x="372.125" y="-1154.4" style="font-family:Times New Roman;font-size:14.00;">destroy</text>
<text text-anchor="start" x="372.125" y="-1136.4" style="font-family:Times New Roman;font-size:14.00;">edit</text>
<text text-anchor="start" x="372.125" y="-1118.4" style="font-family:Times New Roman;font-size:14.00;">index</text>
<text text-anchor="start" x="372.125" y="-1100.4" style="font-family:Times New Roman;font-size:14.00;">new</text>
<text text-anchor="start" x="372.125" y="-1082.4" style="font-family:Times New Roman;font-size:14.00;">show</text>
<text text-anchor="start" x="372.125" y="-1064.4" style="font-family:Times New Roman;font-size:14.00;">update</text>
<polyline style="fill:none;stroke:black;" points="364,-1055 462,-1055 "/>
<polyline style="fill:none;stroke:black;" points="364,-1031 462,-1031 "/>
</g>
<!-- PlotsController -->
<g id="node5" class="node"><title>PlotsController</title>
<polyline style="fill:none;stroke:black;" points="676,-1050 751,-1050 "/>
<path style="fill:none;stroke:black;" d="M751,-1050C757,-1050 763,-1056 763,-1062"/>
<polyline style="fill:none;stroke:black;" points="763,-1062 763,-1246 "/>
<path style="fill:none;stroke:black;" d="M763,-1246C763,-1252 757,-1258 751,-1258"/>
<polyline style="fill:none;stroke:black;" points="751,-1258 676,-1258 "/>
<path style="fill:none;stroke:black;" d="M676,-1258C670,-1258 664,-1252 664,-1246"/>
<polyline style="fill:none;stroke:black;" points="664,-1246 664,-1062 "/>
<path style="fill:none;stroke:black;" d="M664,-1062C664,-1056 670,-1050 676,-1050"/>
<text text-anchor="middle" x="713" y="-1241.4" style="font-family:Times New Roman;font-size:14.00;">PlotsController</text>
<polyline style="fill:none;stroke:black;" points="664,-1232 763,-1232 "/>
<text text-anchor="start" x="671.625" y="-1215.4" style="font-family:Times New Roman;font-size:14.00;">create</text>
<text text-anchor="start" x="671.625" y="-1197.4" style="font-family:Times New Roman;font-size:14.00;">destroy</text>
<text text-anchor="start" x="671.625" y="-1179.4" style="font-family:Times New Roman;font-size:14.00;">edit</text>
<text text-anchor="start" x="671.625" y="-1161.4" style="font-family:Times New Roman;font-size:14.00;">index</text>
<text text-anchor="start" x="671.625" y="-1143.4" style="font-family:Times New Roman;font-size:14.00;">new</text>
<text text-anchor="start" x="671.625" y="-1125.4" style="font-family:Times New Roman;font-size:14.00;">show</text>
<text text-anchor="start" x="671.625" y="-1107.4" style="font-family:Times New Roman;font-size:14.00;">update</text>
<polyline style="fill:none;stroke:black;" points="664,-1098 763,-1098 "/>
<polyline style="fill:none;stroke:black;" points="664,-1074 763,-1074 "/>
</g>
<!-- UnitPrefsController -->
<g id="node6" class="node"><title>UnitPrefsController</title>
<polyline style="fill:none;stroke:black;" points="60,-1057 159,-1057 "/>
<path style="fill:none;stroke:black;" d="M159,-1057C165,-1057 171,-1063 171,-1069"/>
<polyline style="fill:none;stroke:black;" points="171,-1069 171,-1253 "/>
<path style="fill:none;stroke:black;" d="M171,-1253C171,-1259 165,-1265 159,-1265"/>
<polyline style="fill:none;stroke:black;" points="159,-1265 60,-1265 "/>
<path style="fill:none;stroke:black;" d="M60,-1265C54,-1265 48,-1259 48,-1253"/>
<polyline style="fill:none;stroke:black;" points="48,-1253 48,-1069 "/>
<path style="fill:none;stroke:black;" d="M48,-1069C48,-1063 54,-1057 60,-1057"/>
<text text-anchor="middle" x="109" y="-1248.4" style="font-family:Times New Roman;font-size:14.00;">UnitPrefsController</text>
<polyline style="fill:none;stroke:black;" points="48,-1239 171,-1239 "/>
<text text-anchor="start" x="55.625" y="-1222.4" style="font-family:Times New Roman;font-size:14.00;">create</text>
<text text-anchor="start" x="55.625" y="-1204.4" style="font-family:Times New Roman;font-size:14.00;">destroy</text>
<text text-anchor="start" x="55.625" y="-1186.4" style="font-family:Times New Roman;font-size:14.00;">edit</text>
<text text-anchor="start" x="55.625" y="-1168.4" style="font-family:Times New Roman;font-size:14.00;">index</text>
<text text-anchor="start" x="55.625" y="-1150.4" style="font-family:Times New Roman;font-size:14.00;">new</text>
<text text-anchor="start" x="55.625" y="-1132.4" style="font-family:Times New Roman;font-size:14.00;">show</text>
<text text-anchor="start" x="55.625" y="-1114.4" style="font-family:Times New Roman;font-size:14.00;">update</text>
<polyline style="fill:none;stroke:black;" points="48,-1105 171,-1105 "/>
<polyline style="fill:none;stroke:black;" points="48,-1081 171,-1081 "/>
</g>
<!-- MeasurementsController -->
<g id="node7" class="node"><title>MeasurementsController</title>
<polyline style="fill:none;stroke:black;" points="24,-88 152,-88 "/>
<path style="fill:none;stroke:black;" d="M152,-88C158,-88 164,-94 164,-100"/>
<polyline style="fill:none;stroke:black;" points="164,-100 164,-284 "/>
<path style="fill:none;stroke:black;" d="M164,-284C164,-290 158,-296 152,-296"/>
<polyline style="fill:none;stroke:black;" points="152,-296 24,-296 "/>
<path style="fill:none;stroke:black;" d="M24,-296C18,-296 12,-290 12,-284"/>
<polyline style="fill:none;stroke:black;" points="12,-284 12,-100 "/>
<path style="fill:none;stroke:black;" d="M12,-100C12,-94 18,-88 24,-88"/>
<text text-anchor="middle" x="88" y="-279.4" style="font-family:Times New Roman;font-size:14.00;">MeasurementsController</text>
<polyline style="fill:none;stroke:black;" points="12,-270 164,-270 "/>
<text text-anchor="start" x="20.125" y="-253.4" style="font-family:Times New Roman;font-size:14.00;">create</text>
<text text-anchor="start" x="20.125" y="-235.4" style="font-family:Times New Roman;font-size:14.00;">destroy</text>
<text text-anchor="start" x="20.125" y="-217.4" style="font-family:Times New Roman;font-size:14.00;">edit</text>
<text text-anchor="start" x="20.125" y="-199.4" style="font-family:Times New Roman;font-size:14.00;">index</text>
<text text-anchor="start" x="20.125" y="-181.4" style="font-family:Times New Roman;font-size:14.00;">new</text>
<text text-anchor="start" x="20.125" y="-163.4" style="font-family:Times New Roman;font-size:14.00;">show</text>
<text text-anchor="start" x="20.125" y="-145.4" style="font-family:Times New Roman;font-size:14.00;">update</text>
<polyline style="fill:none;stroke:black;" points="12,-136 164,-136 "/>
<polyline style="fill:none;stroke:black;" points="12,-112 164,-112 "/>
</g>
<!-- PersonGraphsController -->
<g id="node8" class="node"><title>PersonGraphsController</title>
<polyline style="fill:none;stroke:black;" points="681,-457 804,-457 "/>
<path style="fill:none;stroke:black;" d="M804,-457C810,-457 816,-463 816,-469"/>
<polyline style="fill:none;stroke:black;" points="816,-469 816,-653 "/>
<path style="fill:none;stroke:black;" d="M816,-653C816,-659 810,-665 804,-665"/>
<polyline style="fill:none;stroke:black;" points="804,-665 681,-665 "/>
<path style="fill:none;stroke:black;" d="M681,-665C675,-665 669,-659 669,-653"/>
<polyline style="fill:none;stroke:black;" points="669,-653 669,-469 "/>
<path style="fill:none;stroke:black;" d="M669,-469C669,-463 675,-457 681,-457"/>
<text text-anchor="middle" x="742" y="-648.4" style="font-family:Times New Roman;font-size:14.00;">PersonGraphsController</text>
<polyline style="fill:none;stroke:black;" points="669,-639 816,-639 "/>
<text text-anchor="start" x="676.625" y="-622.4" style="font-family:Times New Roman;font-size:14.00;">create</text>
<text text-anchor="start" x="676.625" y="-604.4" style="font-family:Times New Roman;font-size:14.00;">destroy</text>
<text text-anchor="start" x="676.625" y="-586.4" style="font-family:Times New Roman;font-size:14.00;">edit</text>
<text text-anchor="start" x="676.625" y="-568.4" style="font-family:Times New Roman;font-size:14.00;">index</text>
<text text-anchor="start" x="676.625" y="-550.4" style="font-family:Times New Roman;font-size:14.00;">new</text>
<text text-anchor="start" x="676.625" y="-532.4" style="font-family:Times New Roman;font-size:14.00;">show</text>
<text text-anchor="start" x="676.625" y="-514.4" style="font-family:Times New Roman;font-size:14.00;">update</text>
<polyline style="fill:none;stroke:black;" points="669,-505 816,-505 "/>
<polyline style="fill:none;stroke:black;" points="669,-481 816,-481 "/>
</g>
<!-- DimensionsController -->
<g id="node9" class="node"><title>DimensionsController</title>
<polyline style="fill:none;stroke:black;" points="193,-346 306,-346 "/>
<path style="fill:none;stroke:black;" d="M306,-346C312,-346 318,-352 318,-358"/>
<polyline style="fill:none;stroke:black;" points="318,-358 318,-542 "/>
<path style="fill:none;stroke:black;" d="M318,-542C318,-548 312,-554 306,-554"/>
<polyline style="fill:none;stroke:black;" points="306,-554 193,-554 "/>
<path style="fill:none;stroke:black;" d="M193,-554C187,-554 181,-548 181,-542"/>
<polyline style="fill:none;stroke:black;" points="181,-542 181,-358 "/>
<path style="fill:none;stroke:black;" d="M181,-358C181,-352 187,-346 193,-346"/>
<text text-anchor="middle" x="249" y="-537.4" style="font-family:Times New Roman;font-size:14.00;">DimensionsController</text>
<polyline style="fill:none;stroke:black;" points="181,-528 318,-528 "/>
<text text-anchor="start" x="188.625" y="-511.4" style="font-family:Times New Roman;font-size:14.00;">create</text>
<text text-anchor="start" x="188.625" y="-493.4" style="font-family:Times New Roman;font-size:14.00;">destroy</text>
<text text-anchor="start" x="188.625" y="-475.4" style="font-family:Times New Roman;font-size:14.00;">edit</text>
<text text-anchor="start" x="188.625" y="-457.4" style="font-family:Times New Roman;font-size:14.00;">index</text>
<text text-anchor="start" x="188.625" y="-439.4" style="font-family:Times New Roman;font-size:14.00;">new</text>
<text text-anchor="start" x="188.625" y="-421.4" style="font-family:Times New Roman;font-size:14.00;">show</text>
<text text-anchor="start" x="188.625" y="-403.4" style="font-family:Times New Roman;font-size:14.00;">update</text>
<polyline style="fill:none;stroke:black;" points="181,-394 318,-394 "/>
<polyline style="fill:none;stroke:black;" points="181,-370 318,-370 "/>
</g>
<!-- UnitsController -->
<g id="node10" class="node"><title>UnitsController</title>
<polyline style="fill:none;stroke:black;" points="464,-358 541,-358 "/>
<path style="fill:none;stroke:black;" d="M541,-358C547,-358 553,-364 553,-370"/>
<polyline style="fill:none;stroke:black;" points="553,-370 553,-554 "/>
<path style="fill:none;stroke:black;" d="M553,-554C553,-560 547,-566 541,-566"/>
<polyline style="fill:none;stroke:black;" points="541,-566 464,-566 "/>
<path style="fill:none;stroke:black;" d="M464,-566C458,-566 452,-560 452,-554"/>
<polyline style="fill:none;stroke:black;" points="452,-554 452,-370 "/>
<path style="fill:none;stroke:black;" d="M452,-370C452,-364 458,-358 464,-358"/>
<text text-anchor="middle" x="502" y="-549.4" style="font-family:Times New Roman;font-size:14.00;">UnitsController</text>
<polyline style="fill:none;stroke:black;" points="452,-540 553,-540 "/>
<text text-anchor="start" x="459.625" y="-523.4" style="font-family:Times New Roman;font-size:14.00;">create</text>
<text text-anchor="start" x="459.625" y="-505.4" style="font-family:Times New Roman;font-size:14.00;">destroy</text>
<text text-anchor="start" x="459.625" y="-487.4" style="font-family:Times New Roman;font-size:14.00;">edit</text>
<text text-anchor="start" x="459.625" y="-469.4" style="font-family:Times New Roman;font-size:14.00;">index</text>
<text text-anchor="start" x="459.625" y="-451.4" style="font-family:Times New Roman;font-size:14.00;">new</text>
<text text-anchor="start" x="459.625" y="-433.4" style="font-family:Times New Roman;font-size:14.00;">show</text>
<text text-anchor="start" x="459.625" y="-415.4" style="font-family:Times New Roman;font-size:14.00;">update</text>
<polyline style="fill:none;stroke:black;" points="452,-406 553,-406 "/>
<polyline style="fill:none;stroke:black;" points="452,-382 553,-382 "/>
</g>
<!-- LogsController -->
<g id="node11" class="node"><title>LogsController</title>
<polyline style="fill:none;stroke:black;" points="686,-91 761,-91 "/>
<path style="fill:none;stroke:black;" d="M761,-91C767,-91 773,-97 773,-103"/>
<polyline style="fill:none;stroke:black;" points="773,-103 773,-287 "/>
<path style="fill:none;stroke:black;" d="M773,-287C773,-293 767,-299 761,-299"/>
<polyline style="fill:none;stroke:black;" points="761,-299 686,-299 "/>
<path style="fill:none;stroke:black;" d="M686,-299C680,-299 674,-293 674,-287"/>
<polyline style="fill:none;stroke:black;" points="674,-287 674,-103 "/>
<path style="fill:none;stroke:black;" d="M674,-103C674,-97 680,-91 686,-91"/>
<text text-anchor="middle" x="723" y="-282.4" style="font-family:Times New Roman;font-size:14.00;">LogsController</text>
<polyline style="fill:none;stroke:black;" points="674,-273 773,-273 "/>
<text text-anchor="start" x="681.625" y="-256.4" style="font-family:Times New Roman;font-size:14.00;">create</text>
<text text-anchor="start" x="681.625" y="-238.4" style="font-family:Times New Roman;font-size:14.00;">destroy</text>
<text text-anchor="start" x="681.625" y="-220.4" style="font-family:Times New Roman;font-size:14.00;">edit</text>
<text text-anchor="start" x="681.625" y="-202.4" style="font-family:Times New Roman;font-size:14.00;">index</text>
<text text-anchor="start" x="681.625" y="-184.4" style="font-family:Times New Roman;font-size:14.00;">new</text>
<text text-anchor="start" x="681.625" y="-166.4" style="font-family:Times New Roman;font-size:14.00;">show</text>
<text text-anchor="start" x="681.625" y="-148.4" style="font-family:Times New Roman;font-size:14.00;">update</text>
<polyline style="fill:none;stroke:black;" points="674,-139 773,-139 "/>
<polyline style="fill:none;stroke:black;" points="674,-115 773,-115 "/>
</g>
<!-- PeopleController -->
<g id="node12" class="node"><title>PeopleController</title>
<polyline style="fill:none;stroke:black;" points="80,-770 164,-770 "/>
<path style="fill:none;stroke:black;" d="M164,-770C170,-770 176,-776 176,-782"/>
<polyline style="fill:none;stroke:black;" points="176,-782 176,-966 "/>
<path style="fill:none;stroke:black;" d="M176,-966C176,-972 170,-978 164,-978"/>
<polyline style="fill:none;stroke:black;" points="164,-978 80,-978 "/>
<path style="fill:none;stroke:black;" d="M80,-978C74,-978 68,-972 68,-966"/>
<polyline style="fill:none;stroke:black;" points="68,-966 68,-782 "/>
<path style="fill:none;stroke:black;" d="M68,-782C68,-776 74,-770 80,-770"/>
<text text-anchor="middle" x="122" y="-961.4" style="font-family:Times New Roman;font-size:14.00;">PeopleController</text>
<polyline style="fill:none;stroke:black;" points="68,-952 176,-952 "/>
<text text-anchor="start" x="76.125" y="-935.4" style="font-family:Times New Roman;font-size:14.00;">create</text>
<text text-anchor="start" x="76.125" y="-917.4" style="font-family:Times New Roman;font-size:14.00;">destroy</text>
<text text-anchor="start" x="76.125" y="-899.4" style="font-family:Times New Roman;font-size:14.00;">edit</text>
<text text-anchor="start" x="76.125" y="-881.4" style="font-family:Times New Roman;font-size:14.00;">index</text>
<text text-anchor="start" x="76.125" y="-863.4" style="font-family:Times New Roman;font-size:14.00;">new</text>
<text text-anchor="start" x="76.125" y="-845.4" style="font-family:Times New Roman;font-size:14.00;">show</text>
<text text-anchor="start" x="76.125" y="-827.4" style="font-family:Times New Roman;font-size:14.00;">update</text>
<polyline style="fill:none;stroke:black;" points="68,-818 176,-818 "/>
<polyline style="fill:none;stroke:black;" points="68,-794 176,-794 "/>
</g>
<!-- ApplicationController -->
<g id="node13" class="node"><title>ApplicationController</title>
<polyline style="fill:none;stroke:black;" points="351,-678 462,-678 "/>
<path style="fill:none;stroke:black;" d="M462,-678C468,-678 474,-684 474,-690"/>
<polyline style="fill:none;stroke:black;" points="474,-690 474,-802 "/>
<path style="fill:none;stroke:black;" d="M474,-802C474,-808 468,-814 462,-814"/>
<polyline style="fill:none;stroke:black;" points="462,-814 351,-814 "/>
<path style="fill:none;stroke:black;" d="M351,-814C345,-814 339,-808 339,-802"/>
<polyline style="fill:none;stroke:black;" points="339,-802 339,-690 "/>
<path style="fill:none;stroke:black;" d="M339,-690C339,-684 345,-678 351,-678"/>
<text text-anchor="middle" x="406" y="-797.4" style="font-family:Times New Roman;font-size:14.00;">ApplicationController</text>
<polyline style="fill:none;stroke:black;" points="339,-788 474,-788 "/>
<polyline style="fill:none;stroke:black;" points="339,-764 474,-764 "/>
<polyline style="fill:none;stroke:black;" points="339,-740 474,-740 "/>
<text text-anchor="start" x="346.375" y="-723.4" style="font-family:Times New Roman;font-size:14.00;">fake_login</text>
<text text-anchor="start" x="346.375" y="-705.4" style="font-family:Times New Roman;font-size:14.00;">get_current_person</text>
<text text-anchor="start" x="346.375" y="-687.4" style="font-family:Times New Roman;font-size:14.00;">login</text>
</g>
<!-- ApplicationController&#45;&gt;PersonStatsController -->
<g id="edge2" class="edge"><title>ApplicationController&#45;&gt;PersonStatsController</title>
<path style="fill:none;stroke:black;" d="M329,-713C271,-688 192,-655 136,-631"/>
<polygon style="fill:none;stroke:black;" points="328.415,-716.536 339,-717 331.015,-710.036 328.415,-716.536"/>
</g>
<!-- ApplicationController&#45;&gt;GraphsController -->
<g id="edge4" class="edge"><title>ApplicationController&#45;&gt;GraphsController</title>
<path style="fill:none;stroke:black;" d="M483,-773C535,-791 601,-814 647,-830"/>
<polygon style="fill:none;stroke:black;" points="484.594,-769.842 474,-770 482.38,-776.483 484.594,-769.842"/>
</g>
<!-- ApplicationController&#45;&gt;UsersController -->
<g id="edge6" class="edge"><title>ApplicationController&#45;&gt;UsersController</title>
<path style="fill:none;stroke:black;" d="M406,-668C406,-579 406,-431 407,-317"/>
<polygon style="fill:none;stroke:black;" points="402.5,-668 406,-678 409.5,-668 402.5,-668"/>
</g>
<!-- ApplicationController&#45;&gt;StatsController -->
<g id="edge8" class="edge"><title>ApplicationController&#45;&gt;StatsController</title>
<path style="fill:none;stroke:black;" d="M407,-824C408,-877 410,-949 411,-1007"/>
<polygon style="fill:none;stroke:black;" points="410.5,-824 407,-814 403.5,-824 410.5,-824"/>
</g>
<!-- ApplicationController&#45;&gt;PlotsController -->
<g id="edge10" class="edge"><title>ApplicationController&#45;&gt;PlotsController</title>
<path style="fill:none;stroke:black;" d="M463,-822C521,-899 609,-1016 664,-1088"/>
<polygon style="fill:none;stroke:black;" points="465.8,-819.9 457,-814 460.2,-824.1 465.8,-819.9"/>
</g>
<!-- ApplicationController&#45;&gt;UnitPrefsController -->
<g id="edge12" class="edge"><title>ApplicationController&#45;&gt;UnitPrefsController</title>
<path style="fill:none;stroke:black;" d="M351,-823C300,-894 224,-1000 171,-1074"/>
<polygon style="fill:none;stroke:black;" points="354.365,-824.262 357,-814 348.541,-820.379 354.365,-824.262"/>
</g>
<!-- ApplicationController&#45;&gt;MeasurementsController -->
<g id="edge14" class="edge"><title>ApplicationController&#45;&gt;MeasurementsController</title>
<path style="fill:none;stroke:black;" d="M330,-704C279,-671 214,-623 176,-562 148,-519 121,-390 105,-296"/>
<polygon style="fill:none;stroke:black;" points="328.559,-707.203 339,-709 331.958,-701.084 328.559,-707.203"/>
</g>
<!-- ApplicationController&#45;&gt;PersonGraphsController -->
<g id="edge16" class="edge"><title>ApplicationController&#45;&gt;PersonGraphsController</title>
<path style="fill:none;stroke:black;" d="M483,-703C539,-673 614,-631 669,-601"/>
<polygon style="fill:none;stroke:black;" points="481.042,-700.084 474,-708 484.441,-706.203 481.042,-700.084"/>
</g>
<!-- ApplicationController&#45;&gt;DimensionsController -->
<g id="edge18" class="edge"><title>ApplicationController&#45;&gt;DimensionsController</title>
<path style="fill:none;stroke:black;" d="M365,-669C346,-634 324,-592 304,-554"/>
<polygon style="fill:none;stroke:black;" points="362.084,-670.958 370,-678 368.203,-667.559 362.084,-670.958"/>
</g>
<!-- ApplicationController&#45;&gt;UnitsController -->
<g id="edge20" class="edge"><title>ApplicationController&#45;&gt;UnitsController</title>
<path style="fill:none;stroke:black;" d="M432,-668C443,-637 455,-600 467,-566"/>
<polygon style="fill:none;stroke:black;" points="428.521,-667.416 429,-678 435.226,-669.427 428.521,-667.416"/>
</g>
<!-- ApplicationController&#45;&gt;LogsController -->
<g id="edge22" class="edge"><title>ApplicationController&#45;&gt;LogsController</title>
<path style="fill:none;stroke:black;" d="M481,-670C507,-642 535,-608 557,-574 613,-487 658,-378 687,-299"/>
<polygon style="fill:none;stroke:black;" points="477.951,-668.169 474,-678 483.219,-672.779 477.951,-668.169"/>
</g>
<!-- ApplicationController&#45;&gt;PeopleController -->
<g id="edge24" class="edge"><title>ApplicationController&#45;&gt;PeopleController</title>
<path style="fill:none;stroke:black;" d="M330,-780C281,-802 219,-830 176,-850"/>
<polygon style="fill:none;stroke:black;" points="331.283,-783.26 339,-776 328.44,-776.863 331.283,-783.26"/>
</g>
</g>
</svg>
