<?xml version="1.0" encoding="UTF-8" standalone="no"?>
<!DOCTYPE svg PUBLIC "-//W3C//DTD SVG 1.0//EN"
 "http://www.w3.org/TR/2001/REC-SVG-20010904/DTD/svg10.dtd" [
 <!ATTLIST svg xmlns:xlink CDATA #FIXED "http://www.w3.org/1999/xlink">
]>
<!-- Generated by Graphviz version 2.16 (Fri Feb  8 12:54:58 UTC 2008)
     For user: (lowentropy) Nathan Matthews,,, -->
<!-- Title: controllers_diagram Pages: 1 -->
<svg width="857pt" height="1284pt"
 viewBox="0.00 0.00 857.00 1284.00" xmlns="http://www.w3.org/2000/svg" xmlns:xlink="http://www.w3.org/1999/xlink">
<g id="graph0" class="graph" transform="scale(1 1) rotate(0) translate(4 1280)">
<title>controllers_diagram</title>
<polygon style="fill:white;stroke:white;" points="-4,4 -4,-1280 853,-1280 853,4 -4,4"/>
<!-- PersonStatsController -->
<g id="node1" class="node"><title>PersonStatsController</title>
<polyline style="fill:none;stroke:black;" points="13,-515 124,-515 "/>
<path style="fill:none;stroke:black;" d="M124,-515C130,-515 136,-521 136,-527"/>
<polyline style="fill:none;stroke:black;" points="136,-527 136,-711 "/>
<path style="fill:none;stroke:black;" d="M136,-711C136,-717 130,-723 124,-723"/>
<polyline style="fill:none;stroke:black;" points="124,-723 13,-723 "/>
<path style="fill:none;stroke:black;" d="M13,-723C7,-723 1,-717 1,-711"/>
<polyline style="fill:none;stroke:black;" points="1,-711 1,-527 "/>
<path style="fill:none;stroke:black;" d="M1,-527C1,-521 7,-515 13,-515"/>
<text text-anchor="middle" x="68" y="-706.4" style="font-family:Times New Roman;font-size:14.00;">PersonStatsController</text>
<polyline style="fill:none;stroke:black;" points="1,-697 136,-697 "/>
<text text-anchor="start" x="8.625" y="-680.4" style="font-family:Times New Roman;font-size:14.00;">create</text>
<text text-anchor="start" x="8.625" y="-662.4" style="font-family:Times New Roman;font-size:14.00;">destroy</text>
<text text-anchor="start" x="8.625" y="-644.4" style="font-family:Times New Roman;font-size:14.00;">edit</text>
<text text-anchor="start" x="8.625" y="-626.4" style="font-family:Times New Roman;font-size:14.00;">index</text>
<text text-anchor="start" x="8.625" y="-608.4" style="font-family:Times New Roman;font-size:14.00;">new</text>
<text text-anchor="start" x="8.625" y="-590.4" style="font-family:Times New Roman;font-size:14.00;">show</text>
<text text-anchor="start" x="8.625" y="-572.4" style="font-family:Times New Roman;font-size:14.00;">update</text>
<polyline style="fill:none;stroke:black;" points="1,-563 136,-563 "/>
<polyline style="fill:none;stroke:black;" points="1,-539 136,-539 "/>
</g>
<!-- GraphsController -->
<g id="node2" class="node"><title>GraphsController</title>
<polyline style="fill:none;stroke:black;" points="675,-759 762,-759 "/>
<path style="fill:none;stroke:black;" d="M762,-759C768,-759 774,-765 774,-771"/>
<polyline style="fill:none;stroke:black;" points="774,-771 774,-955 "/>
<path style="fill:none;stroke:black;" d="M774,-955C774,-961 768,-967 762,-967"/>
<polyline style="fill:none;stroke:black;" points="762,-967 675,-967 "/>
<path style="fill:none;stroke:black;" d="M675,-967C669,-967 663,-961 663,-955"/>
<polyline style="fill:none;stroke:black;" points="663,-955 663,-771 "/>
<path style="fill:none;stroke:black;" d="M663,-771C663,-765 669,-759 675,-759"/>
<text text-anchor="middle" x="718" y="-950.4" style="font-family:Times New Roman;font-size:14.00;">GraphsController</text>
<polyline style="fill:none;stroke:black;" points="663,-941 774,-941 "/>
<text text-anchor="start" x="670.625" y="-924.4" style="font-family:Times New Roman;font-size:14.00;">create</text>
<text text-anchor="start" x="670.625" y="-906.4" style="font-family:Times New Roman;font-size:14.00;">destroy</text>
<text text-anchor="start" x="670.625" y="-888.4" style="font-family:Times New Roman;font-size:14.00;">edit</text>
<text text-anchor="start" x="670.625" y="-870.4" style="font-family:Times New Roman;font-size:14.00;">index</text>
<text text-anchor="start" x="670.625" y="-852.4" style="font-family:Times New Roman;font-size:14.00;">new</text>
<text text-anchor="start" x="670.625" y="-834.4" style="font-family:Times New Roman;font-size:14.00;">show</text>
<text text-anchor="start" x="670.625" y="-816.4" style="font-family:Times New Roman;font-size:14.00;">update</text>
<polyline style="fill:none;stroke:black;" points="663,-807 774,-807 "/>
<polyline style="fill:none;stroke:black;" points="663,-783 774,-783 "/>
</g>
<!-- UsersController -->
<g id="node3" class="node"><title>UsersController</title>
<polyline style="fill:none;stroke:black;" points="371,-1 476,-1 "/>
<path style="fill:none;stroke:black;" d="M476,-1C482,-1 488,-7 488,-13"/>
<polyline style="fill:none;stroke:black;" points="488,-13 488,-305 "/>
<path style="fill:none;stroke:black;" d="M488,-305C488,-311 482,-317 476,-317"/>
<polyline style="fill:none;stroke:black;" points="476,-317 371,-317 "/>
<path style="fill:none;stroke:black;" d="M371,-317C365,-317 359,-311 359,-305"/>
<polyline style="fill:none;stroke:black;" points="359,-305 359,-13 "/>
<path style="fill:none;stroke:black;" d="M359,-13C359,-7 365,-1 371,-1"/>
<text text-anchor="middle" x="423" y="-300.4" style="font-family:Times New Roman;font-size:14.00;">UsersController</text>
<polyline style="fill:none;stroke:black;" points="359,-291 488,-291 "/>
<text text-anchor="start" x="366.375" y="-274.4" style="font-family:Times New Roman;font-size:14.00;">complete_login</text>
<text text-anchor="start" x="366.375" y="-256.4" style="font-family:Times New Roman;font-size:14.00;">create</text>
<text text-anchor="start" x="366.375" y="-238.4" style="font-family:Times New Roman;font-size:14.00;">destroy</text>
<text text-anchor="start" x="366.375" y="-220.4" style="font-family:Times New Roman;font-size:14.00;">edit</text>
<text text-anchor="start" x="366.375" y="-202.4" style="font-family:Times New Roman;font-size:14.00;">failed_login_redirect</text>
<text text-anchor="start" x="366.375" y="-184.4" style="font-family:Times New Roman;font-size:14.00;">index</text>
<text text-anchor="start" x="366.375" y="-166.4" style="font-family:Times New Roman;font-size:14.00;">logged_in_user</text>
<text text-anchor="start" x="366.375" y="-148.4" style="font-family:Times New Roman;font-size:14.00;">login_redirect</text>
<text text-anchor="start" x="366.375" y="-130.4" style="font-family:Times New Roman;font-size:14.00;">logout</text>
<text text-anchor="start" x="366.375" y="-112.4" style="font-family:Times New Roman;font-size:14.00;">new</text>
<text text-anchor="start" x="366.375" y="-94.4" style="font-family:Times New Roman;font-size:14.00;">show</text>
<text text-anchor="start" x="366.375" y="-76.4" style="font-family:Times New Roman;font-size:14.00;">start_login</text>
<text text-anchor="start" x="366.375" y="-58.4" style="font-family:Times New Roman;font-size:14.00;">update</text>
<polyline style="fill:none;stroke:black;" points="359,-49 488,-49 "/>
<polyline style="fill:none;stroke:black;" points="359,-25 488,-25 "/>
</g>
<!-- StatsController -->
<g id="node4" class="node"><title>StatsController</title>
<polyline style="fill:none;stroke:black;" points="393,-1018 467,-1018 "/>
<path style="fill:none;stroke:black;" d="M467,-1018C473,-1018 479,-1024 479,-1030"/>
<polyline style="fill:none;stroke:black;" points="479,-1030 479,-1214 "/>
<path style="fill:none;stroke:black;" d="M479,-1214C479,-1220 473,-1226 467,-1226"/>
<polyline style="fill:none;stroke:black;" points="467,-1226 393,-1226 "/>
<path style="fill:none;stroke:black;" d="M393,-1226C387,-1226 381,-1220 381,-1214"/>
<polyline style="fill:none;stroke:black;" points="381,-1214 381,-1030 "/>
<path style="fill:none;stroke:black;" d="M381,-1030C381,-1024 387,-1018 393,-1018"/>
<text text-anchor="middle" x="430" y="-1209.4" style="font-family:Times New Roman;font-size:14.00;">StatsController</text>
<polyline style="fill:none;stroke:black;" points="381,-1200 479,-1200 "/>
<text text-anchor="start" x="389.125" y="-1183.4" style="font-family:Times New Roman;font-size:14.00;">create</text>
<text text-anchor="start" x="389.125" y="-1165.4" style="font-family:Times New Roman;font-size:14.00;">destroy</text>
<text text-anchor="start" x="389.125" y="-1147.4" style="font-family:Times New Roman;font-size:14.00;">edit</text>
<text text-anchor="start" x="389.125" y="-1129.4" style="font-family:Times New Roman;font-size:14.00;">index</text>
<text text-anchor="start" x="389.125" y="-1111.4" style="font-family:Times New Roman;font-size:14.00;">new</text>
<text text-anchor="start" x="389.125" y="-1093.4" style="font-family:Times New Roman;font-size:14.00;">show</text>
<text text-anchor="start" x="389.125" y="-1075.4" style="font-family:Times New Roman;font-size:14.00;">update</text>
<polyline style="fill:none;stroke:black;" points="381,-1066 479,-1066 "/>
<polyline style="fill:none;stroke:black;" points="381,-1042 479,-1042 "/>
</g>
<!-- SummaryModesController -->
<g id="node5" class="node"><title>SummaryModesController</title>
<polyline style="fill:none;stroke:black;" points="669,-1061 808,-1061 "/>
<path style="fill:none;stroke:black;" d="M808,-1061C814,-1061 820,-1067 820,-1073"/>
<polyline style="fill:none;stroke:black;" points="820,-1073 820,-1257 "/>
<path style="fill:none;stroke:black;" d="M820,-1257C820,-1263 814,-1269 808,-1269"/>
<polyline style="fill:none;stroke:black;" points="808,-1269 669,-1269 "/>
<path style="fill:none;stroke:black;" d="M669,-1269C663,-1269 657,-1263 657,-1257"/>
<polyline style="fill:none;stroke:black;" points="657,-1257 657,-1073 "/>
<path style="fill:none;stroke:black;" d="M657,-1073C657,-1067 663,-1061 669,-1061"/>
<text text-anchor="middle" x="738" y="-1252.4" style="font-family:Times New Roman;font-size:14.00;">SummaryModesController</text>
<polyline style="fill:none;stroke:black;" points="657,-1243 820,-1243 "/>
<text text-anchor="start" x="664.625" y="-1226.4" style="font-family:Times New Roman;font-size:14.00;">create</text>
<text text-anchor="start" x="664.625" y="-1208.4" style="font-family:Times New Roman;font-size:14.00;">destroy</text>
<text text-anchor="start" x="664.625" y="-1190.4" style="font-family:Times New Roman;font-size:14.00;">edit</text>
<text text-anchor="start" x="664.625" y="-1172.4" style="font-family:Times New Roman;font-size:14.00;">index</text>
<text text-anchor="start" x="664.625" y="-1154.4" style="font-family:Times New Roman;font-size:14.00;">new</text>
<text text-anchor="start" x="664.625" y="-1136.4" style="font-family:Times New Roman;font-size:14.00;">show</text>
<text text-anchor="start" x="664.625" y="-1118.4" style="font-family:Times New Roman;font-size:14.00;">update</text>
<polyline style="fill:none;stroke:black;" points="657,-1109 820,-1109 "/>
<polyline style="fill:none;stroke:black;" points="657,-1085 820,-1085 "/>
</g>
<!-- PlotsController -->
<g id="node6" class="node"><title>PlotsController</title>
<polyline style="fill:none;stroke:black;" points="77,-1067 152,-1067 "/>
<path style="fill:none;stroke:black;" d="M152,-1067C158,-1067 164,-1073 164,-1079"/>
<polyline style="fill:none;stroke:black;" points="164,-1079 164,-1263 "/>
<path style="fill:none;stroke:black;" d="M164,-1263C164,-1269 158,-1275 152,-1275"/>
<polyline style="fill:none;stroke:black;" points="152,-1275 77,-1275 "/>
<path style="fill:none;stroke:black;" d="M77,-1275C71,-1275 65,-1269 65,-1263"/>
<polyline style="fill:none;stroke:black;" points="65,-1263 65,-1079 "/>
<path style="fill:none;stroke:black;" d="M65,-1079C65,-1073 71,-1067 77,-1067"/>
<text text-anchor="middle" x="114" y="-1258.4" style="font-family:Times New Roman;font-size:14.00;">PlotsController</text>
<polyline style="fill:none;stroke:black;" points="65,-1249 164,-1249 "/>
<text text-anchor="start" x="72.625" y="-1232.4" style="font-family:Times New Roman;font-size:14.00;">create</text>
<text text-anchor="start" x="72.625" y="-1214.4" style="font-family:Times New Roman;font-size:14.00;">destroy</text>
<text text-anchor="start" x="72.625" y="-1196.4" style="font-family:Times New Roman;font-size:14.00;">edit</text>
<text text-anchor="start" x="72.625" y="-1178.4" style="font-family:Times New Roman;font-size:14.00;">index</text>
<text text-anchor="start" x="72.625" y="-1160.4" style="font-family:Times New Roman;font-size:14.00;">new</text>
<text text-anchor="start" x="72.625" y="-1142.4" style="font-family:Times New Roman;font-size:14.00;">show</text>
<text text-anchor="start" x="72.625" y="-1124.4" style="font-family:Times New Roman;font-size:14.00;">update</text>
<polyline style="fill:none;stroke:black;" points="65,-1115 164,-1115 "/>
<polyline style="fill:none;stroke:black;" points="65,-1091 164,-1091 "/>
</g>
<!-- UnitPrefsController -->
<g id="node7" class="node"><title>UnitPrefsController</title>
<polyline style="fill:none;stroke:black;" points="48,-81 147,-81 "/>
<path style="fill:none;stroke:black;" d="M147,-81C153,-81 159,-87 159,-93"/>
<polyline style="fill:none;stroke:black;" points="159,-93 159,-277 "/>
<path style="fill:none;stroke:black;" d="M159,-277C159,-283 153,-289 147,-289"/>
<polyline style="fill:none;stroke:black;" points="147,-289 48,-289 "/>
<path style="fill:none;stroke:black;" d="M48,-289C42,-289 36,-283 36,-277"/>
<polyline style="fill:none;stroke:black;" points="36,-277 36,-93 "/>
<path style="fill:none;stroke:black;" d="M36,-93C36,-87 42,-81 48,-81"/>
<text text-anchor="middle" x="97" y="-272.4" style="font-family:Times New Roman;font-size:14.00;">UnitPrefsController</text>
<polyline style="fill:none;stroke:black;" points="36,-263 159,-263 "/>
<text text-anchor="start" x="43.625" y="-246.4" style="font-family:Times New Roman;font-size:14.00;">create</text>
<text text-anchor="start" x="43.625" y="-228.4" style="font-family:Times New Roman;font-size:14.00;">destroy</text>
<text text-anchor="start" x="43.625" y="-210.4" style="font-family:Times New Roman;font-size:14.00;">edit</text>
<text text-anchor="start" x="43.625" y="-192.4" style="font-family:Times New Roman;font-size:14.00;">index</text>
<text text-anchor="start" x="43.625" y="-174.4" style="font-family:Times New Roman;font-size:14.00;">new</text>
<text text-anchor="start" x="43.625" y="-156.4" style="font-family:Times New Roman;font-size:14.00;">show</text>
<text text-anchor="start" x="43.625" y="-138.4" style="font-family:Times New Roman;font-size:14.00;">update</text>
<polyline style="fill:none;stroke:black;" points="36,-129 159,-129 "/>
<polyline style="fill:none;stroke:black;" points="36,-105 159,-105 "/>
</g>
<!-- MeasurementsController -->
<g id="node8" class="node"><title>MeasurementsController</title>
<polyline style="fill:none;stroke:black;" points="708,-462 836,-462 "/>
<path style="fill:none;stroke:black;" d="M836,-462C842,-462 848,-468 848,-474"/>
<polyline style="fill:none;stroke:black;" points="848,-474 848,-658 "/>
<path style="fill:none;stroke:black;" d="M848,-658C848,-664 842,-670 836,-670"/>
<polyline style="fill:none;stroke:black;" points="836,-670 708,-670 "/>
<path style="fill:none;stroke:black;" d="M708,-670C702,-670 696,-664 696,-658"/>
<polyline style="fill:none;stroke:black;" points="696,-658 696,-474 "/>
<path style="fill:none;stroke:black;" d="M696,-474C696,-468 702,-462 708,-462"/>
<text text-anchor="middle" x="772" y="-653.4" style="font-family:Times New Roman;font-size:14.00;">MeasurementsController</text>
<polyline style="fill:none;stroke:black;" points="696,-644 848,-644 "/>
<text text-anchor="start" x="704.125" y="-627.4" style="font-family:Times New Roman;font-size:14.00;">create</text>
<text text-anchor="start" x="704.125" y="-609.4" style="font-family:Times New Roman;font-size:14.00;">destroy</text>
<text text-anchor="start" x="704.125" y="-591.4" style="font-family:Times New Roman;font-size:14.00;">edit</text>
<text text-anchor="start" x="704.125" y="-573.4" style="font-family:Times New Roman;font-size:14.00;">index</text>
<text text-anchor="start" x="704.125" y="-555.4" style="font-family:Times New Roman;font-size:14.00;">new</text>
<text text-anchor="start" x="704.125" y="-537.4" style="font-family:Times New Roman;font-size:14.00;">show</text>
<text text-anchor="start" x="704.125" y="-519.4" style="font-family:Times New Roman;font-size:14.00;">update</text>
<polyline style="fill:none;stroke:black;" points="696,-510 848,-510 "/>
<polyline style="fill:none;stroke:black;" points="696,-486 848,-486 "/>
</g>
<!-- PersonGraphsController -->
<g id="node9" class="node"><title>PersonGraphsController</title>
<polyline style="fill:none;stroke:black;" points="178,-346 301,-346 "/>
<path style="fill:none;stroke:black;" d="M301,-346C307,-346 313,-352 313,-358"/>
<polyline style="fill:none;stroke:black;" points="313,-358 313,-542 "/>
<path style="fill:none;stroke:black;" d="M313,-542C313,-548 307,-554 301,-554"/>
<polyline style="fill:none;stroke:black;" points="301,-554 178,-554 "/>
<path style="fill:none;stroke:black;" d="M178,-554C172,-554 166,-548 166,-542"/>
<polyline style="fill:none;stroke:black;" points="166,-542 166,-358 "/>
<path style="fill:none;stroke:black;" d="M166,-358C166,-352 172,-346 178,-346"/>
<text text-anchor="middle" x="239" y="-537.4" style="font-family:Times New Roman;font-size:14.00;">PersonGraphsController</text>
<polyline style="fill:none;stroke:black;" points="166,-528 313,-528 "/>
<text text-anchor="start" x="173.625" y="-511.4" style="font-family:Times New Roman;font-size:14.00;">create</text>
<text text-anchor="start" x="173.625" y="-493.4" style="font-family:Times New Roman;font-size:14.00;">destroy</text>
<text text-anchor="start" x="173.625" y="-475.4" style="font-family:Times New Roman;font-size:14.00;">edit</text>
<text text-anchor="start" x="173.625" y="-457.4" style="font-family:Times New Roman;font-size:14.00;">index</text>
<text text-anchor="start" x="173.625" y="-439.4" style="font-family:Times New Roman;font-size:14.00;">new</text>
<text text-anchor="start" x="173.625" y="-421.4" style="font-family:Times New Roman;font-size:14.00;">show</text>
<text text-anchor="start" x="173.625" y="-403.4" style="font-family:Times New Roman;font-size:14.00;">update</text>
<polyline style="fill:none;stroke:black;" points="166,-394 313,-394 "/>
<polyline style="fill:none;stroke:black;" points="166,-370 313,-370 "/>
</g>
<!-- DimensionsController -->
<g id="node10" class="node"><title>DimensionsController</title>
<polyline style="fill:none;stroke:black;" points="474,-345 587,-345 "/>
<path style="fill:none;stroke:black;" d="M587,-345C593,-345 599,-351 599,-357"/>
<polyline style="fill:none;stroke:black;" points="599,-357 599,-559 "/>
<path style="fill:none;stroke:black;" d="M599,-559C599,-565 593,-571 587,-571"/>
<polyline style="fill:none;stroke:black;" points="587,-571 474,-571 "/>
<path style="fill:none;stroke:black;" d="M474,-571C468,-571 462,-565 462,-559"/>
<polyline style="fill:none;stroke:black;" points="462,-559 462,-357 "/>
<path style="fill:none;stroke:black;" d="M462,-357C462,-351 468,-345 474,-345"/>
<text text-anchor="middle" x="530" y="-554.4" style="font-family:Times New Roman;font-size:14.00;">DimensionsController</text>
<polyline style="fill:none;stroke:black;" points="462,-545 599,-545 "/>
<text text-anchor="start" x="469.75" y="-528.4" style="font-family:Times New Roman;font-size:14.00;">create</text>
<text text-anchor="start" x="469.75" y="-510.4" style="font-family:Times New Roman;font-size:14.00;">destroy</text>
<text text-anchor="start" x="469.75" y="-492.4" style="font-family:Times New Roman;font-size:14.00;">edit</text>
<text text-anchor="start" x="469.75" y="-474.4" style="font-family:Times New Roman;font-size:14.00;">index</text>
<text text-anchor="start" x="469.75" y="-456.4" style="font-family:Times New Roman;font-size:14.00;">new</text>
<text text-anchor="start" x="469.75" y="-438.4" style="font-family:Times New Roman;font-size:14.00;">show</text>
<text text-anchor="start" x="469.75" y="-420.4" style="font-family:Times New Roman;font-size:14.00;">update</text>
<text text-anchor="start" x="469.75" y="-402.4" style="font-family:Times New Roman;font-size:14.00;">update_positions</text>
<polyline style="fill:none;stroke:black;" points="462,-393 599,-393 "/>
<polyline style="fill:none;stroke:black;" points="462,-369 599,-369 "/>
</g>
<!-- UnitsController -->
<g id="node11" class="node"><title>UnitsController</title>
<polyline style="fill:none;stroke:black;" points="709,-87 786,-87 "/>
<path style="fill:none;stroke:black;" d="M786,-87C792,-87 798,-93 798,-99"/>
<polyline style="fill:none;stroke:black;" points="798,-99 798,-283 "/>
<path style="fill:none;stroke:black;" d="M798,-283C798,-289 792,-295 786,-295"/>
<polyline style="fill:none;stroke:black;" points="786,-295 709,-295 "/>
<path style="fill:none;stroke:black;" d="M709,-295C703,-295 697,-289 697,-283"/>
<polyline style="fill:none;stroke:black;" points="697,-283 697,-99 "/>
<path style="fill:none;stroke:black;" d="M697,-99C697,-93 703,-87 709,-87"/>
<text text-anchor="middle" x="747" y="-278.4" style="font-family:Times New Roman;font-size:14.00;">UnitsController</text>
<polyline style="fill:none;stroke:black;" points="697,-269 798,-269 "/>
<text text-anchor="start" x="704.625" y="-252.4" style="font-family:Times New Roman;font-size:14.00;">create</text>
<text text-anchor="start" x="704.625" y="-234.4" style="font-family:Times New Roman;font-size:14.00;">destroy</text>
<text text-anchor="start" x="704.625" y="-216.4" style="font-family:Times New Roman;font-size:14.00;">edit</text>
<text text-anchor="start" x="704.625" y="-198.4" style="font-family:Times New Roman;font-size:14.00;">index</text>
<text text-anchor="start" x="704.625" y="-180.4" style="font-family:Times New Roman;font-size:14.00;">new</text>
<text text-anchor="start" x="704.625" y="-162.4" style="font-family:Times New Roman;font-size:14.00;">show</text>
<text text-anchor="start" x="704.625" y="-144.4" style="font-family:Times New Roman;font-size:14.00;">update</text>
<polyline style="fill:none;stroke:black;" points="697,-135 798,-135 "/>
<polyline style="fill:none;stroke:black;" points="697,-111 798,-111 "/>
</g>
<!-- PeopleController -->
<g id="node12" class="node"><title>PeopleController</title>
<polyline style="fill:none;stroke:black;" points="91,-775 196,-775 "/>
<path style="fill:none;stroke:black;" d="M196,-775C202,-775 208,-781 208,-787"/>
<polyline style="fill:none;stroke:black;" points="208,-787 208,-989 "/>
<path style="fill:none;stroke:black;" d="M208,-989C208,-995 202,-1001 196,-1001"/>
<polyline style="fill:none;stroke:black;" points="196,-1001 91,-1001 "/>
<path style="fill:none;stroke:black;" d="M91,-1001C85,-1001 79,-995 79,-989"/>
<polyline style="fill:none;stroke:black;" points="79,-989 79,-787 "/>
<path style="fill:none;stroke:black;" d="M79,-787C79,-781 85,-775 91,-775"/>
<text text-anchor="middle" x="143" y="-984.4" style="font-family:Times New Roman;font-size:14.00;">PeopleController</text>
<polyline style="fill:none;stroke:black;" points="79,-975 208,-975 "/>
<text text-anchor="start" x="86.75" y="-958.4" style="font-family:Times New Roman;font-size:14.00;">create</text>
<text text-anchor="start" x="86.75" y="-940.4" style="font-family:Times New Roman;font-size:14.00;">destroy</text>
<text text-anchor="start" x="86.75" y="-922.4" style="font-family:Times New Roman;font-size:14.00;">edit</text>
<text text-anchor="start" x="86.75" y="-904.4" style="font-family:Times New Roman;font-size:14.00;">index</text>
<text text-anchor="start" x="86.75" y="-886.4" style="font-family:Times New Roman;font-size:14.00;">new</text>
<text text-anchor="start" x="86.75" y="-868.4" style="font-family:Times New Roman;font-size:14.00;">reorder_person_stats</text>
<text text-anchor="start" x="86.75" y="-850.4" style="font-family:Times New Roman;font-size:14.00;">show</text>
<text text-anchor="start" x="86.75" y="-832.4" style="font-family:Times New Roman;font-size:14.00;">update</text>
<polyline style="fill:none;stroke:black;" points="79,-823 208,-823 "/>
<polyline style="fill:none;stroke:black;" points="79,-799 208,-799 "/>
</g>
<!-- ApplicationController -->
<g id="node13" class="node"><title>ApplicationController</title>
<polyline style="fill:none;stroke:black;" points="367,-675 478,-675 "/>
<path style="fill:none;stroke:black;" d="M478,-675C484,-675 490,-681 490,-687"/>
<polyline style="fill:none;stroke:black;" points="490,-687 490,-799 "/>
<path style="fill:none;stroke:black;" d="M490,-799C490,-805 484,-811 478,-811"/>
<polyline style="fill:none;stroke:black;" points="478,-811 367,-811 "/>
<path style="fill:none;stroke:black;" d="M367,-811C361,-811 355,-805 355,-799"/>
<polyline style="fill:none;stroke:black;" points="355,-799 355,-687 "/>
<path style="fill:none;stroke:black;" d="M355,-687C355,-681 361,-675 367,-675"/>
<text text-anchor="middle" x="422" y="-794.4" style="font-family:Times New Roman;font-size:14.00;">ApplicationController</text>
<polyline style="fill:none;stroke:black;" points="355,-785 490,-785 "/>
<polyline style="fill:none;stroke:black;" points="355,-761 490,-761 "/>
<polyline style="fill:none;stroke:black;" points="355,-737 490,-737 "/>
<text text-anchor="start" x="362.375" y="-720.4" style="font-family:Times New Roman;font-size:14.00;">fake_login</text>
<text text-anchor="start" x="362.375" y="-702.4" style="font-family:Times New Roman;font-size:14.00;">get_current_person</text>
<text text-anchor="start" x="362.375" y="-684.4" style="font-family:Times New Roman;font-size:14.00;">login</text>
</g>
<!-- ApplicationController&#45;&gt;PersonStatsController -->
<g id="edge2" class="edge"><title>ApplicationController&#45;&gt;PersonStatsController</title>
<path style="fill:none;stroke:black;" d="M345,-717C283,-695 196,-664 136,-643"/>
<polygon style="fill:none;stroke:black;" points="344.416,-720.479 355,-720 346.427,-713.774 344.416,-720.479"/>
</g>
<!-- ApplicationController&#45;&gt;GraphsController -->
<g id="edge4" class="edge"><title>ApplicationController&#45;&gt;GraphsController</title>
<path style="fill:none;stroke:black;" d="M499,-775C551,-795 617,-822 663,-841"/>
<polygon style="fill:none;stroke:black;" points="500.56,-771.863 490,-771 497.717,-778.26 500.56,-771.863"/>
</g>
<!-- ApplicationController&#45;&gt;UsersController -->
<g id="edge6" class="edge"><title>ApplicationController&#45;&gt;UsersController</title>
<path style="fill:none;stroke:black;" d="M422,-665C422,-576 422,-430 423,-317"/>
<polygon style="fill:none;stroke:black;" points="418.5,-665 422,-675 425.5,-665 418.5,-665"/>
</g>
<!-- ApplicationController&#45;&gt;StatsController -->
<g id="edge8" class="edge"><title>ApplicationController&#45;&gt;StatsController</title>
<path style="fill:none;stroke:black;" d="M423,-821C425,-878 426,-956 428,-1018"/>
<polygon style="fill:none;stroke:black;" points="426.5,-821 423,-811 419.5,-821 426.5,-821"/>
</g>
<!-- ApplicationController&#45;&gt;SummaryModesController -->
<g id="edge10" class="edge"><title>ApplicationController&#45;&gt;SummaryModesController</title>
<path style="fill:none;stroke:black;" d="M479,-819C530,-887 604,-986 660,-1061"/>
<polygon style="fill:none;stroke:black;" points="481.8,-816.9 473,-811 476.2,-821.1 481.8,-816.9"/>
</g>
<!-- ApplicationController&#45;&gt;PlotsController -->
<g id="edge12" class="edge"><title>ApplicationController&#45;&gt;PlotsController</title>
<path style="fill:none;stroke:black;" d="M367,-820C309,-900 220,-1024 164,-1101"/>
<polygon style="fill:none;stroke:black;" points="370.365,-821.262 373,-811 364.541,-817.379 370.365,-821.262"/>
</g>
<!-- ApplicationController&#45;&gt;UnitPrefsController -->
<g id="edge14" class="edge"><title>ApplicationController&#45;&gt;UnitPrefsController</title>
<path style="fill:none;stroke:black;" d="M418,-665C410,-578 388,-437 319,-338 279,-280 210,-238 159,-212"/>
<polygon style="fill:none;stroke:black;" points="414.522,-665.398 419,-675 421.488,-664.701 414.522,-665.398"/>
</g>
<!-- ApplicationController&#45;&gt;MeasurementsController -->
<g id="edge16" class="edge"><title>ApplicationController&#45;&gt;MeasurementsController</title>
<path style="fill:none;stroke:black;" d="M499,-703C558,-674 638,-633 696,-604"/>
<polygon style="fill:none;stroke:black;" points="497.042,-700.084 490,-708 500.441,-706.203 497.042,-700.084"/>
</g>
<!-- ApplicationController&#45;&gt;PersonGraphsController -->
<g id="edge18" class="edge"><title>ApplicationController&#45;&gt;PersonGraphsController</title>
<path style="fill:none;stroke:black;" d="M374,-666C353,-632 327,-591 304,-554"/>
<polygon style="fill:none;stroke:black;" points="371.084,-667.958 379,-675 377.203,-664.559 371.084,-667.958"/>
</g>
<!-- ApplicationController&#45;&gt;DimensionsController -->
<g id="edge20" class="edge"><title>ApplicationController&#45;&gt;DimensionsController</title>
<path style="fill:none;stroke:black;" d="M452,-665C463,-636 475,-602 487,-571"/>
<polygon style="fill:none;stroke:black;" points="448.464,-664.415 448,-675 454.964,-667.015 448.464,-664.415"/>
</g>
<!-- ApplicationController&#45;&gt;UnitsController -->
<g id="edge22" class="edge"><title>ApplicationController&#45;&gt;UnitsController</title>
<path style="fill:none;stroke:black;" d="M498,-689C534,-660 576,-622 605,-580 664,-493 702,-377 724,-295"/>
<polygon style="fill:none;stroke:black;" points="495.9,-686.2 490,-695 500.1,-691.8 495.9,-686.2"/>
</g>
<!-- ApplicationController&#45;&gt;PeopleController -->
<g id="edge24" class="edge"><title>ApplicationController&#45;&gt;PeopleController</title>
<path style="fill:none;stroke:black;" d="M346,-783C302,-805 249,-833 208,-854"/>
<polygon style="fill:none;stroke:black;" points="347.958,-785.916 355,-778 344.559,-779.797 347.958,-785.916"/>
</g>
</g>
</svg>
