<?xml version="1.0" encoding="UTF-8" standalone="no"?>
<!DOCTYPE svg PUBLIC "-//W3C//DTD SVG 1.0//EN"
 "http://www.w3.org/TR/2001/REC-SVG-20010904/DTD/svg10.dtd" [
 <!ATTLIST svg xmlns:xlink CDATA #FIXED "http://www.w3.org/1999/xlink">
]>
<!-- Generated by Graphviz version 2.16 (Fri Feb  8 12:54:58 UTC 2008)
     For user: (lowentropy) Nathan Matthews,,, -->
<!-- Title: controllers_diagram Pages: 1 -->
<svg width="588pt" height="837pt"
 viewBox="0.00 0.00 588.00 837.00" xmlns="http://www.w3.org/2000/svg" xmlns:xlink="http://www.w3.org/1999/xlink">
<g id="graph0" class="graph" transform="scale(1 1) rotate(0) translate(4 833)">
<title>controllers_diagram</title>
<polygon style="fill:white;stroke:white;" points="-4,4 -4,-833 584,-833 584,4 -4,4"/>
<!-- UsersController -->
<g id="node1" class="node"><title>UsersController</title>
<polyline style="fill:none;stroke:black;" points="13,-261 118,-261 "/>
<path style="fill:none;stroke:black;" d="M118,-261C124,-261 130,-267 130,-273"/>
<polyline style="fill:none;stroke:black;" points="130,-273 130,-565 "/>
<path style="fill:none;stroke:black;" d="M130,-565C130,-571 124,-577 118,-577"/>
<polyline style="fill:none;stroke:black;" points="118,-577 13,-577 "/>
<path style="fill:none;stroke:black;" d="M13,-577C7,-577 1,-571 1,-565"/>
<polyline style="fill:none;stroke:black;" points="1,-565 1,-273 "/>
<path style="fill:none;stroke:black;" d="M1,-273C1,-267 7,-261 13,-261"/>
<text text-anchor="middle" x="65" y="-560.4" style="font-family:Times New Roman;font-size:14.00;">UsersController</text>
<polyline style="fill:none;stroke:black;" points="1,-551 130,-551 "/>
<text text-anchor="start" x="8.375" y="-534.4" style="font-family:Times New Roman;font-size:14.00;">complete_login</text>
<text text-anchor="start" x="8.375" y="-516.4" style="font-family:Times New Roman;font-size:14.00;">create</text>
<text text-anchor="start" x="8.375" y="-498.4" style="font-family:Times New Roman;font-size:14.00;">destroy</text>
<text text-anchor="start" x="8.375" y="-480.4" style="font-family:Times New Roman;font-size:14.00;">edit</text>
<text text-anchor="start" x="8.375" y="-462.4" style="font-family:Times New Roman;font-size:14.00;">failed_login_redirect</text>
<text text-anchor="start" x="8.375" y="-444.4" style="font-family:Times New Roman;font-size:14.00;">index</text>
<text text-anchor="start" x="8.375" y="-426.4" style="font-family:Times New Roman;font-size:14.00;">logged_in_user</text>
<text text-anchor="start" x="8.375" y="-408.4" style="font-family:Times New Roman;font-size:14.00;">login_redirect</text>
<text text-anchor="start" x="8.375" y="-390.4" style="font-family:Times New Roman;font-size:14.00;">logout</text>
<text text-anchor="start" x="8.375" y="-372.4" style="font-family:Times New Roman;font-size:14.00;">new</text>
<text text-anchor="start" x="8.375" y="-354.4" style="font-family:Times New Roman;font-size:14.00;">show</text>
<text text-anchor="start" x="8.375" y="-336.4" style="font-family:Times New Roman;font-size:14.00;">start_login</text>
<text text-anchor="start" x="8.375" y="-318.4" style="font-family:Times New Roman;font-size:14.00;">update</text>
<polyline style="fill:none;stroke:black;" points="1,-309 130,-309 "/>
<polyline style="fill:none;stroke:black;" points="1,-285 130,-285 "/>
</g>
<!-- StatsController -->
<g id="node2" class="node"><title>StatsController</title>
<polyline style="fill:none;stroke:black;" points="475,-320 549,-320 "/>
<path style="fill:none;stroke:black;" d="M549,-320C555,-320 561,-326 561,-332"/>
<polyline style="fill:none;stroke:black;" points="561,-332 561,-516 "/>
<path style="fill:none;stroke:black;" d="M561,-516C561,-522 555,-528 549,-528"/>
<polyline style="fill:none;stroke:black;" points="549,-528 475,-528 "/>
<path style="fill:none;stroke:black;" d="M475,-528C469,-528 463,-522 463,-516"/>
<polyline style="fill:none;stroke:black;" points="463,-516 463,-332 "/>
<path style="fill:none;stroke:black;" d="M463,-332C463,-326 469,-320 475,-320"/>
<text text-anchor="middle" x="512" y="-511.4" style="font-family:Times New Roman;font-size:14.00;">StatsController</text>
<polyline style="fill:none;stroke:black;" points="463,-502 561,-502 "/>
<text text-anchor="start" x="471.125" y="-485.4" style="font-family:Times New Roman;font-size:14.00;">create</text>
<text text-anchor="start" x="471.125" y="-467.4" style="font-family:Times New Roman;font-size:14.00;">destroy</text>
<text text-anchor="start" x="471.125" y="-449.4" style="font-family:Times New Roman;font-size:14.00;">edit</text>
<text text-anchor="start" x="471.125" y="-431.4" style="font-family:Times New Roman;font-size:14.00;">index</text>
<text text-anchor="start" x="471.125" y="-413.4" style="font-family:Times New Roman;font-size:14.00;">new</text>
<text text-anchor="start" x="471.125" y="-395.4" style="font-family:Times New Roman;font-size:14.00;">show</text>
<text text-anchor="start" x="471.125" y="-377.4" style="font-family:Times New Roman;font-size:14.00;">update</text>
<polyline style="fill:none;stroke:black;" points="463,-368 561,-368 "/>
<polyline style="fill:none;stroke:black;" points="463,-344 561,-344 "/>
</g>
<!-- UnitPrefsController -->
<g id="node3" class="node"><title>UnitPrefsController</title>
<polyline style="fill:none;stroke:black;" points="241,-1 340,-1 "/>
<path style="fill:none;stroke:black;" d="M340,-1C346,-1 352,-7 352,-13"/>
<polyline style="fill:none;stroke:black;" points="352,-13 352,-197 "/>
<path style="fill:none;stroke:black;" d="M352,-197C352,-203 346,-209 340,-209"/>
<polyline style="fill:none;stroke:black;" points="340,-209 241,-209 "/>
<path style="fill:none;stroke:black;" d="M241,-209C235,-209 229,-203 229,-197"/>
<polyline style="fill:none;stroke:black;" points="229,-197 229,-13 "/>
<path style="fill:none;stroke:black;" d="M229,-13C229,-7 235,-1 241,-1"/>
<text text-anchor="middle" x="290" y="-192.4" style="font-family:Times New Roman;font-size:14.00;">UnitPrefsController</text>
<polyline style="fill:none;stroke:black;" points="229,-183 352,-183 "/>
<text text-anchor="start" x="236.625" y="-166.4" style="font-family:Times New Roman;font-size:14.00;">create</text>
<text text-anchor="start" x="236.625" y="-148.4" style="font-family:Times New Roman;font-size:14.00;">destroy</text>
<text text-anchor="start" x="236.625" y="-130.4" style="font-family:Times New Roman;font-size:14.00;">edit</text>
<text text-anchor="start" x="236.625" y="-112.4" style="font-family:Times New Roman;font-size:14.00;">index</text>
<text text-anchor="start" x="236.625" y="-94.4" style="font-family:Times New Roman;font-size:14.00;">new</text>
<text text-anchor="start" x="236.625" y="-76.4" style="font-family:Times New Roman;font-size:14.00;">show</text>
<text text-anchor="start" x="236.625" y="-58.4" style="font-family:Times New Roman;font-size:14.00;">update</text>
<polyline style="fill:none;stroke:black;" points="229,-49 352,-49 "/>
<polyline style="fill:none;stroke:black;" points="229,-25 352,-25 "/>
</g>
<!-- MeasurementsController -->
<g id="node4" class="node"><title>MeasurementsController</title>
<polyline style="fill:none;stroke:black;" points="224,-608 352,-608 "/>
<path style="fill:none;stroke:black;" d="M352,-608C358,-608 364,-614 364,-620"/>
<polyline style="fill:none;stroke:black;" points="364,-620 364,-804 "/>
<path style="fill:none;stroke:black;" d="M364,-804C364,-810 358,-816 352,-816"/>
<polyline style="fill:none;stroke:black;" points="352,-816 224,-816 "/>
<path style="fill:none;stroke:black;" d="M224,-816C218,-816 212,-810 212,-804"/>
<polyline style="fill:none;stroke:black;" points="212,-804 212,-620 "/>
<path style="fill:none;stroke:black;" d="M212,-620C212,-614 218,-608 224,-608"/>
<text text-anchor="middle" x="288" y="-799.4" style="font-family:Times New Roman;font-size:14.00;">MeasurementsController</text>
<polyline style="fill:none;stroke:black;" points="212,-790 364,-790 "/>
<text text-anchor="start" x="220.125" y="-773.4" style="font-family:Times New Roman;font-size:14.00;">create</text>
<text text-anchor="start" x="220.125" y="-755.4" style="font-family:Times New Roman;font-size:14.00;">destroy</text>
<text text-anchor="start" x="220.125" y="-737.4" style="font-family:Times New Roman;font-size:14.00;">edit</text>
<text text-anchor="start" x="220.125" y="-719.4" style="font-family:Times New Roman;font-size:14.00;">index</text>
<text text-anchor="start" x="220.125" y="-701.4" style="font-family:Times New Roman;font-size:14.00;">new</text>
<text text-anchor="start" x="220.125" y="-683.4" style="font-family:Times New Roman;font-size:14.00;">show</text>
<text text-anchor="start" x="220.125" y="-665.4" style="font-family:Times New Roman;font-size:14.00;">update</text>
<polyline style="fill:none;stroke:black;" points="212,-656 364,-656 "/>
<polyline style="fill:none;stroke:black;" points="212,-632 364,-632 "/>
</g>
<!-- DimensionsController -->
<g id="node5" class="node"><title>DimensionsController</title>
<polyline style="fill:none;stroke:black;" points="455,-620 568,-620 "/>
<path style="fill:none;stroke:black;" d="M568,-620C574,-620 580,-626 580,-632"/>
<polyline style="fill:none;stroke:black;" points="580,-632 580,-816 "/>
<path style="fill:none;stroke:black;" d="M580,-816C580,-822 574,-828 568,-828"/>
<polyline style="fill:none;stroke:black;" points="568,-828 455,-828 "/>
<path style="fill:none;stroke:black;" d="M455,-828C449,-828 443,-822 443,-816"/>
<polyline style="fill:none;stroke:black;" points="443,-816 443,-632 "/>
<path style="fill:none;stroke:black;" d="M443,-632C443,-626 449,-620 455,-620"/>
<text text-anchor="middle" x="511" y="-811.4" style="font-family:Times New Roman;font-size:14.00;">DimensionsController</text>
<polyline style="fill:none;stroke:black;" points="443,-802 580,-802 "/>
<text text-anchor="start" x="450.625" y="-785.4" style="font-family:Times New Roman;font-size:14.00;">create</text>
<text text-anchor="start" x="450.625" y="-767.4" style="font-family:Times New Roman;font-size:14.00;">destroy</text>
<text text-anchor="start" x="450.625" y="-749.4" style="font-family:Times New Roman;font-size:14.00;">edit</text>
<text text-anchor="start" x="450.625" y="-731.4" style="font-family:Times New Roman;font-size:14.00;">index</text>
<text text-anchor="start" x="450.625" y="-713.4" style="font-family:Times New Roman;font-size:14.00;">new</text>
<text text-anchor="start" x="450.625" y="-695.4" style="font-family:Times New Roman;font-size:14.00;">show</text>
<text text-anchor="start" x="450.625" y="-677.4" style="font-family:Times New Roman;font-size:14.00;">update</text>
<polyline style="fill:none;stroke:black;" points="443,-668 580,-668 "/>
<polyline style="fill:none;stroke:black;" points="443,-644 580,-644 "/>
</g>
<!-- UnitsController -->
<g id="node6" class="node"><title>UnitsController</title>
<polyline style="fill:none;stroke:black;" points="28,-617 105,-617 "/>
<path style="fill:none;stroke:black;" d="M105,-617C111,-617 117,-623 117,-629"/>
<polyline style="fill:none;stroke:black;" points="117,-629 117,-813 "/>
<path style="fill:none;stroke:black;" d="M117,-813C117,-819 111,-825 105,-825"/>
<polyline style="fill:none;stroke:black;" points="105,-825 28,-825 "/>
<path style="fill:none;stroke:black;" d="M28,-825C22,-825 16,-819 16,-813"/>
<polyline style="fill:none;stroke:black;" points="16,-813 16,-629 "/>
<path style="fill:none;stroke:black;" d="M16,-629C16,-623 22,-617 28,-617"/>
<text text-anchor="middle" x="66" y="-808.4" style="font-family:Times New Roman;font-size:14.00;">UnitsController</text>
<polyline style="fill:none;stroke:black;" points="16,-799 117,-799 "/>
<text text-anchor="start" x="23.625" y="-782.4" style="font-family:Times New Roman;font-size:14.00;">create</text>
<text text-anchor="start" x="23.625" y="-764.4" style="font-family:Times New Roman;font-size:14.00;">destroy</text>
<text text-anchor="start" x="23.625" y="-746.4" style="font-family:Times New Roman;font-size:14.00;">edit</text>
<text text-anchor="start" x="23.625" y="-728.4" style="font-family:Times New Roman;font-size:14.00;">index</text>
<text text-anchor="start" x="23.625" y="-710.4" style="font-family:Times New Roman;font-size:14.00;">new</text>
<text text-anchor="start" x="23.625" y="-692.4" style="font-family:Times New Roman;font-size:14.00;">show</text>
<text text-anchor="start" x="23.625" y="-674.4" style="font-family:Times New Roman;font-size:14.00;">update</text>
<polyline style="fill:none;stroke:black;" points="16,-665 117,-665 "/>
<polyline style="fill:none;stroke:black;" points="16,-641 117,-641 "/>
</g>
<!-- LogsController -->
<g id="node7" class="node"><title>LogsController</title>
<polyline style="fill:none;stroke:black;" points="28,-11 103,-11 "/>
<path style="fill:none;stroke:black;" d="M103,-11C109,-11 115,-17 115,-23"/>
<polyline style="fill:none;stroke:black;" points="115,-23 115,-207 "/>
<path style="fill:none;stroke:black;" d="M115,-207C115,-213 109,-219 103,-219"/>
<polyline style="fill:none;stroke:black;" points="103,-219 28,-219 "/>
<path style="fill:none;stroke:black;" d="M28,-219C22,-219 16,-213 16,-207"/>
<polyline style="fill:none;stroke:black;" points="16,-207 16,-23 "/>
<path style="fill:none;stroke:black;" d="M16,-23C16,-17 22,-11 28,-11"/>
<text text-anchor="middle" x="65" y="-202.4" style="font-family:Times New Roman;font-size:14.00;">LogsController</text>
<polyline style="fill:none;stroke:black;" points="16,-193 115,-193 "/>
<text text-anchor="start" x="23.625" y="-176.4" style="font-family:Times New Roman;font-size:14.00;">create</text>
<text text-anchor="start" x="23.625" y="-158.4" style="font-family:Times New Roman;font-size:14.00;">destroy</text>
<text text-anchor="start" x="23.625" y="-140.4" style="font-family:Times New Roman;font-size:14.00;">edit</text>
<text text-anchor="start" x="23.625" y="-122.4" style="font-family:Times New Roman;font-size:14.00;">index</text>
<text text-anchor="start" x="23.625" y="-104.4" style="font-family:Times New Roman;font-size:14.00;">new</text>
<text text-anchor="start" x="23.625" y="-86.4" style="font-family:Times New Roman;font-size:14.00;">show</text>
<text text-anchor="start" x="23.625" y="-68.4" style="font-family:Times New Roman;font-size:14.00;">update</text>
<polyline style="fill:none;stroke:black;" points="16,-59 115,-59 "/>
<polyline style="fill:none;stroke:black;" points="16,-35 115,-35 "/>
</g>
<!-- PeopleController -->
<g id="node8" class="node"><title>PeopleController</title>
<polyline style="fill:none;stroke:black;" points="472,-13 556,-13 "/>
<path style="fill:none;stroke:black;" d="M556,-13C562,-13 568,-19 568,-25"/>
<polyline style="fill:none;stroke:black;" points="568,-25 568,-209 "/>
<path style="fill:none;stroke:black;" d="M568,-209C568,-215 562,-221 556,-221"/>
<polyline style="fill:none;stroke:black;" points="556,-221 472,-221 "/>
<path style="fill:none;stroke:black;" d="M472,-221C466,-221 460,-215 460,-209"/>
<polyline style="fill:none;stroke:black;" points="460,-209 460,-25 "/>
<path style="fill:none;stroke:black;" d="M460,-25C460,-19 466,-13 472,-13"/>
<text text-anchor="middle" x="514" y="-204.4" style="font-family:Times New Roman;font-size:14.00;">PeopleController</text>
<polyline style="fill:none;stroke:black;" points="460,-195 568,-195 "/>
<text text-anchor="start" x="468.125" y="-178.4" style="font-family:Times New Roman;font-size:14.00;">create</text>
<text text-anchor="start" x="468.125" y="-160.4" style="font-family:Times New Roman;font-size:14.00;">destroy</text>
<text text-anchor="start" x="468.125" y="-142.4" style="font-family:Times New Roman;font-size:14.00;">edit</text>
<text text-anchor="start" x="468.125" y="-124.4" style="font-family:Times New Roman;font-size:14.00;">index</text>
<text text-anchor="start" x="468.125" y="-106.4" style="font-family:Times New Roman;font-size:14.00;">new</text>
<text text-anchor="start" x="468.125" y="-88.4" style="font-family:Times New Roman;font-size:14.00;">show</text>
<text text-anchor="start" x="468.125" y="-70.4" style="font-family:Times New Roman;font-size:14.00;">update</text>
<polyline style="fill:none;stroke:black;" points="460,-61 568,-61 "/>
<polyline style="fill:none;stroke:black;" points="460,-37 568,-37 "/>
</g>
<!-- ApplicationController -->
<g id="node9" class="node"><title>ApplicationController</title>
<polyline style="fill:none;stroke:black;" points="234,-354 345,-354 "/>
<path style="fill:none;stroke:black;" d="M345,-354C351,-354 357,-360 357,-366"/>
<polyline style="fill:none;stroke:black;" points="357,-366 357,-442 "/>
<path style="fill:none;stroke:black;" d="M357,-442C357,-448 351,-454 345,-454"/>
<polyline style="fill:none;stroke:black;" points="345,-454 234,-454 "/>
<path style="fill:none;stroke:black;" d="M234,-454C228,-454 222,-448 222,-442"/>
<polyline style="fill:none;stroke:black;" points="222,-442 222,-366 "/>
<path style="fill:none;stroke:black;" d="M222,-366C222,-360 228,-354 234,-354"/>
<text text-anchor="middle" x="289" y="-437.4" style="font-family:Times New Roman;font-size:14.00;">ApplicationController</text>
<polyline style="fill:none;stroke:black;" points="222,-428 357,-428 "/>
<polyline style="fill:none;stroke:black;" points="222,-404 357,-404 "/>
<polyline style="fill:none;stroke:black;" points="222,-380 357,-380 "/>
<text text-anchor="start" x="229.625" y="-363.4" style="font-family:Times New Roman;font-size:14.00;">login</text>
</g>
<!-- ApplicationController&#45;&gt;UsersController -->
<g id="edge2" class="edge"><title>ApplicationController&#45;&gt;UsersController</title>
<path style="fill:none;stroke:black;" d="M212,-410C185,-411 156,-413 130,-415"/>
<polygon style="fill:none;stroke:black;" points="212.398,-413.478 222,-409 211.701,-406.512 212.398,-413.478"/>
</g>
<!-- ApplicationController&#45;&gt;StatsController -->
<g id="edge4" class="edge"><title>ApplicationController&#45;&gt;StatsController</title>
<path style="fill:none;stroke:black;" d="M367,-411C399,-414 435,-417 463,-420"/>
<polygon style="fill:none;stroke:black;" points="367.299,-407.512 357,-410 366.602,-414.478 367.299,-407.512"/>
</g>
<!-- ApplicationController&#45;&gt;UnitPrefsController -->
<g id="edge6" class="edge"><title>ApplicationController&#45;&gt;UnitPrefsController</title>
<path style="fill:none;stroke:black;" d="M289,-344C289,-305 289,-254 289,-209"/>
<polygon style="fill:none;stroke:black;" points="285.5,-344 289,-354 292.5,-344 285.5,-344"/>
</g>
<!-- ApplicationController&#45;&gt;MeasurementsController -->
<g id="edge8" class="edge"><title>ApplicationController&#45;&gt;MeasurementsController</title>
<path style="fill:none;stroke:black;" d="M289,-464C289,-505 289,-560 289,-608"/>
<polygon style="fill:none;stroke:black;" points="292.5,-464 289,-454 285.5,-464 292.5,-464"/>
</g>
<!-- ApplicationController&#45;&gt;DimensionsController -->
<g id="edge10" class="edge"><title>ApplicationController&#45;&gt;DimensionsController</title>
<path style="fill:none;stroke:black;" d="M330,-462C361,-508 405,-572 443,-626"/>
<polygon style="fill:none;stroke:black;" points="332.8,-459.9 324,-454 327.2,-464.1 332.8,-459.9"/>
</g>
<!-- ApplicationController&#45;&gt;UnitsController -->
<g id="edge12" class="edge"><title>ApplicationController&#45;&gt;UnitsController</title>
<path style="fill:none;stroke:black;" d="M248,-462C211,-515 157,-592 117,-649"/>
<polygon style="fill:none;stroke:black;" points="250.8,-464.1 254,-454 245.2,-459.9 250.8,-464.1"/>
</g>
<!-- ApplicationController&#45;&gt;LogsController -->
<g id="edge14" class="edge"><title>ApplicationController&#45;&gt;LogsController</title>
<path style="fill:none;stroke:black;" d="M244,-346C207,-298 154,-229 115,-180"/>
<polygon style="fill:none;stroke:black;" points="241.2,-348.1 250,-354 246.8,-343.9 241.2,-348.1"/>
</g>
<!-- ApplicationController&#45;&gt;PeopleController -->
<g id="edge16" class="edge"><title>ApplicationController&#45;&gt;PeopleController</title>
<path style="fill:none;stroke:black;" d="M334,-346C371,-299 421,-234 460,-186"/>
<polygon style="fill:none;stroke:black;" points="331.2,-343.9 328,-354 336.8,-348.1 331.2,-343.9"/>
</g>
</g>
</svg>
