<?xml version="1.0" encoding="UTF-8" standalone="no"?>
<!DOCTYPE svg PUBLIC "-//W3C//DTD SVG 1.0//EN"
 "http://www.w3.org/TR/2001/REC-SVG-20010904/DTD/svg10.dtd" [
 <!ATTLIST svg xmlns:xlink CDATA #FIXED "http://www.w3.org/1999/xlink">
]>
<!-- Generated by Graphviz version 2.16 (Fri Feb  8 12:54:58 UTC 2008)
     For user: (lowentropy) Nathan Matthews,,, -->
<!-- Title: models_diagram Pages: 1 -->
<svg width="673pt" height="554pt"
 viewBox="0.00 0.00 673.00 554.00" xmlns="http://www.w3.org/2000/svg" xmlns:xlink="http://www.w3.org/1999/xlink">
<g id="graph0" class="graph" transform="scale(1 1) rotate(0) translate(4 550)">
<title>models_diagram</title>
<polygon style="fill:white;stroke:white;" points="-4,4 -4,-550 669,-550 669,4 -4,4"/>
<!-- SummaryMode -->
<g id="node1" class="node"><title>SummaryMode</title>
<polyline style="fill:none;stroke:black;" points="136,-113 214,-113 "/>
<path style="fill:none;stroke:black;" d="M214,-113C220,-113 226,-119 226,-125"/>
<polyline style="fill:none;stroke:black;" points="226,-125 226,-153 "/>
<path style="fill:none;stroke:black;" d="M226,-153C226,-159 220,-165 214,-165"/>
<polyline style="fill:none;stroke:black;" points="214,-165 136,-165 "/>
<path style="fill:none;stroke:black;" d="M136,-165C130,-165 124,-159 124,-153"/>
<polyline style="fill:none;stroke:black;" points="124,-153 124,-125 "/>
<path style="fill:none;stroke:black;" d="M124,-125C124,-119 130,-113 136,-113"/>
<text text-anchor="middle" x="175" y="-148.4" style="font-family:Times New Roman;font-size:14.00;">SummaryMode</text>
<polyline style="fill:none;stroke:black;" points="124,-139 226,-139 "/>
<text text-anchor="start" x="131.875" y="-122.4" style="font-family:Times New Roman;font-size:14.00;">name :string</text>
</g>
<!-- PersonStat -->
<g id="node12" class="node"><title>PersonStat</title>
<polyline style="fill:none;stroke:black;" points="327,-0 377,-0 "/>
<path style="fill:none;stroke:black;" d="M377,-0C383,-0 389,-6 389,-12"/>
<polyline style="fill:none;stroke:black;" points="389,-12 389,-38 "/>
<path style="fill:none;stroke:black;" d="M389,-38C389,-44 383,-50 377,-50"/>
<polyline style="fill:none;stroke:black;" points="377,-50 327,-50 "/>
<path style="fill:none;stroke:black;" d="M327,-50C321,-50 315,-44 315,-38"/>
<polyline style="fill:none;stroke:black;" points="315,-38 315,-12 "/>
<path style="fill:none;stroke:black;" d="M315,-12C315,-6 321,-0 327,-0"/>
<text text-anchor="middle" x="352" y="-33.4" style="font-family:Times New Roman;font-size:14.00;">PersonStat</text>
<polyline style="fill:none;stroke:black;" points="315,-24 389,-24 "/>
</g>
<!-- SummaryMode&#45;&gt;PersonStat -->
<g id="edge2" class="edge"><title>SummaryMode&#45;&gt;PersonStat</title>
<path style="fill:none;stroke:black;" d="M212,-107C221,-99 231,-92 240,-86 261,-72 287,-57 308,-47"/>
<polygon style="fill:black;stroke:black;" points="212,-107 201.3,-109.4 209.6,-108.8 204,-113 209.6,-108.8 206.7,-116.6 212,-107 212,-107"/>
<ellipse style="fill:black;stroke:black;" cx="311.527" cy="-44.9846" rx="4.00002" ry="4.00002"/>
</g>
<!-- Unit -->
<g id="node2" class="node"><title>Unit</title>
<polyline style="fill:none;stroke:black;" points="490,-95 584,-95 "/>
<path style="fill:none;stroke:black;" d="M584,-95C590,-95 596,-101 596,-107"/>
<polyline style="fill:none;stroke:black;" points="596,-107 596,-171 "/>
<path style="fill:none;stroke:black;" d="M596,-171C596,-177 590,-183 584,-183"/>
<polyline style="fill:none;stroke:black;" points="584,-183 490,-183 "/>
<path style="fill:none;stroke:black;" d="M490,-183C484,-183 478,-177 478,-171"/>
<polyline style="fill:none;stroke:black;" points="478,-171 478,-107 "/>
<path style="fill:none;stroke:black;" d="M478,-107C478,-101 484,-95 490,-95"/>
<text text-anchor="middle" x="537" y="-166.4" style="font-family:Times New Roman;font-size:14.00;">Unit</text>
<polyline style="fill:none;stroke:black;" points="478,-157 596,-157 "/>
<text text-anchor="start" x="486" y="-140.4" style="font-family:Times New Roman;font-size:14.00;">long_name :string</text>
<text text-anchor="start" x="486" y="-122.4" style="font-family:Times New Roman;font-size:14.00;">short_name :string</text>
<text text-anchor="start" x="486" y="-104.4" style="font-family:Times New Roman;font-size:14.00;">multiplier :float</text>
</g>
<!-- UnitPref -->
<g id="node11" class="node"><title>UnitPref</title>
<polyline style="fill:none;stroke:black;" points="605,-0 644,-0 "/>
<path style="fill:none;stroke:black;" d="M644,-0C650,-0 656,-6 656,-12"/>
<polyline style="fill:none;stroke:black;" points="656,-12 656,-38 "/>
<path style="fill:none;stroke:black;" d="M656,-38C656,-44 650,-50 644,-50"/>
<polyline style="fill:none;stroke:black;" points="644,-50 605,-50 "/>
<path style="fill:none;stroke:black;" d="M605,-50C599,-50 593,-44 593,-38"/>
<polyline style="fill:none;stroke:black;" points="593,-38 593,-12 "/>
<path style="fill:none;stroke:black;" d="M593,-12C593,-6 599,-0 605,-0"/>
<text text-anchor="middle" x="624" y="-33.4" style="font-family:Times New Roman;font-size:14.00;">UnitPref</text>
<polyline style="fill:none;stroke:black;" points="593,-24 656,-24 "/>
</g>
<!-- Unit&#45;&gt;UnitPref -->
<g id="edge4" class="edge"><title>Unit&#45;&gt;UnitPref</title>
<path style="fill:none;stroke:black;" d="M577,-87C585,-77 593,-66 600,-57"/>
<polygon style="fill:black;stroke:black;" points="577,-87 567.4,-92.3 575.2,-89.4 571,-95 575.2,-89.4 574.6,-97.7 577,-87 577,-87"/>
<ellipse style="fill:black;stroke:black;" cx="602.675" cy="-53.2549" rx="4.00002" ry="4.00002"/>
</g>
<!-- Unit&#45;&gt;PersonStat -->
<g id="edge6" class="edge"><title>Unit&#45;&gt;PersonStat</title>
<path style="fill:none;stroke:black;" d="M469,-89C468,-88 466,-87 464,-86 443,-72 417,-58 396,-47"/>
<polygon style="fill:black;stroke:black;" points="469.679,-89.453 475.504,-98.7442 472.176,-91.1171 478,-95 472.176,-91.1171 480.496,-91.2558 469.679,-89.453 469.679,-89.453"/>
<ellipse style="fill:black;stroke:black;" cx="392.473" cy="-44.9846" rx="4.00002" ry="4.00002"/>
</g>
<!-- PersonGraph -->
<g id="node3" class="node"><title>PersonGraph</title>
<polyline style="fill:none;stroke:black;" points="152,-238 215,-238 "/>
<path style="fill:none;stroke:black;" d="M215,-238C221,-238 227,-244 227,-250"/>
<polyline style="fill:none;stroke:black;" points="227,-250 227,-276 "/>
<path style="fill:none;stroke:black;" d="M227,-276C227,-282 221,-288 215,-288"/>
<polyline style="fill:none;stroke:black;" points="215,-288 152,-288 "/>
<path style="fill:none;stroke:black;" d="M152,-288C146,-288 140,-282 140,-276"/>
<polyline style="fill:none;stroke:black;" points="140,-276 140,-250 "/>
<path style="fill:none;stroke:black;" d="M140,-250C140,-244 146,-238 152,-238"/>
<text text-anchor="middle" x="183" y="-271.4" style="font-family:Times New Roman;font-size:14.00;">PersonGraph</text>
<polyline style="fill:none;stroke:black;" points="140,-262 227,-262 "/>
</g>
<!-- Measurement -->
<g id="node4" class="node"><title>Measurement</title>
<polyline style="fill:none;stroke:black;" points="294,-104 410,-104 "/>
<path style="fill:none;stroke:black;" d="M410,-104C416,-104 422,-110 422,-116"/>
<polyline style="fill:none;stroke:black;" points="422,-116 422,-162 "/>
<path style="fill:none;stroke:black;" d="M422,-162C422,-168 416,-174 410,-174"/>
<polyline style="fill:none;stroke:black;" points="410,-174 294,-174 "/>
<path style="fill:none;stroke:black;" d="M294,-174C288,-174 282,-168 282,-162"/>
<polyline style="fill:none;stroke:black;" points="282,-162 282,-116 "/>
<path style="fill:none;stroke:black;" d="M282,-116C282,-110 288,-104 294,-104"/>
<text text-anchor="middle" x="352" y="-157.4" style="font-family:Times New Roman;font-size:14.00;">Measurement</text>
<polyline style="fill:none;stroke:black;" points="282,-148 422,-148 "/>
<text text-anchor="start" x="290.125" y="-131.4" style="font-family:Times New Roman;font-size:14.00;">value :float</text>
<text text-anchor="start" x="290.125" y="-113.4" style="font-family:Times New Roman;font-size:14.00;">measured_at :datetime</text>
</g>
<!-- Graph -->
<g id="node5" class="node"><title>Graph</title>
<polyline style="fill:none;stroke:black;" points="148,-334 219,-334 "/>
<path style="fill:none;stroke:black;" d="M219,-334C225,-334 231,-340 231,-346"/>
<polyline style="fill:none;stroke:black;" points="231,-346 231,-428 "/>
<path style="fill:none;stroke:black;" d="M231,-428C231,-434 225,-440 219,-440"/>
<polyline style="fill:none;stroke:black;" points="219,-440 148,-440 "/>
<path style="fill:none;stroke:black;" d="M148,-440C142,-440 136,-434 136,-428"/>
<polyline style="fill:none;stroke:black;" points="136,-428 136,-346 "/>
<path style="fill:none;stroke:black;" d="M136,-346C136,-340 142,-334 148,-334"/>
<text text-anchor="middle" x="183" y="-423.4" style="font-family:Times New Roman;font-size:14.00;">Graph</text>
<polyline style="fill:none;stroke:black;" points="136,-414 231,-414 "/>
<text text-anchor="start" x="143.625" y="-397.4" style="font-family:Times New Roman;font-size:14.00;">title :string</text>
<text text-anchor="start" x="143.625" y="-379.4" style="font-family:Times New Roman;font-size:14.00;">ylabel :string</text>
<text text-anchor="start" x="143.625" y="-361.4" style="font-family:Times New Roman;font-size:14.00;">width :integer</text>
<text text-anchor="start" x="143.625" y="-343.4" style="font-family:Times New Roman;font-size:14.00;">height :integer</text>
</g>
<!-- Graph&#45;&gt;PersonGraph -->
<g id="edge8" class="edge"><title>Graph&#45;&gt;PersonGraph</title>
<path style="fill:none;stroke:black;" d="M183,-324C183,-314 183,-305 183,-296"/>
<polygon style="fill:black;stroke:black;" points="183,-324 178.5,-334 183,-327 183,-334 183,-327 187.5,-334 183,-324 183,-324"/>
<ellipse style="fill:black;stroke:black;" cx="183" cy="-292" rx="4" ry="4"/>
</g>
<!-- Plot -->
<g id="node9" class="node"><title>Plot</title>
<polyline style="fill:none;stroke:black;" points="12,-86 95,-86 "/>
<path style="fill:none;stroke:black;" d="M95,-86C101,-86 107,-92 107,-98"/>
<polyline style="fill:none;stroke:black;" points="107,-98 107,-180 "/>
<path style="fill:none;stroke:black;" d="M107,-180C107,-186 101,-192 95,-192"/>
<polyline style="fill:none;stroke:black;" points="95,-192 12,-192 "/>
<path style="fill:none;stroke:black;" d="M12,-192C6,-192 0,-186 0,-180"/>
<polyline style="fill:none;stroke:black;" points="0,-180 0,-98 "/>
<path style="fill:none;stroke:black;" d="M0,-98C0,-92 6,-86 12,-86"/>
<text text-anchor="middle" x="53" y="-175.4" style="font-family:Times New Roman;font-size:14.00;">Plot</text>
<polyline style="fill:none;stroke:black;" points="0,-166 107,-166 "/>
<text text-anchor="start" x="7.625" y="-149.4" style="font-family:Times New Roman;font-size:14.00;">name :string</text>
<text text-anchor="start" x="7.625" y="-131.4" style="font-family:Times New Roman;font-size:14.00;">color :string</text>
<text text-anchor="start" x="7.625" y="-113.4" style="font-family:Times New Roman;font-size:14.00;">style :string</text>
<text text-anchor="start" x="7.625" y="-95.4" style="font-family:Times New Roman;font-size:14.00;">smooth :boolean</text>
</g>
<!-- Graph&#45;&gt;Plot -->
<g id="edge10" class="edge"><title>Graph&#45;&gt;Plot</title>
<path style="fill:none;stroke:black;" d="M146,-325C141,-316 136,-307 131,-298 113,-266 96,-229 82,-199"/>
<polygon style="fill:black;stroke:black;" points="146.144,-325.258 147.066,-336.185 147.6,-327.881 151,-334 147.6,-327.881 154.934,-331.815 146.144,-325.258 146.144,-325.258"/>
<ellipse style="fill:black;stroke:black;" cx="79.9846" cy="-195.473" rx="4.00002" ry="4.00002"/>
</g>
<!-- Dimension -->
<g id="node6" class="node"><title>Dimension</title>
<polyline style="fill:none;stroke:black;" points="488,-361 548,-361 "/>
<path style="fill:none;stroke:black;" d="M548,-361C554,-361 560,-367 560,-373"/>
<polyline style="fill:none;stroke:black;" points="560,-373 560,-401 "/>
<path style="fill:none;stroke:black;" d="M560,-401C560,-407 554,-413 548,-413"/>
<polyline style="fill:none;stroke:black;" points="548,-413 488,-413 "/>
<path style="fill:none;stroke:black;" d="M488,-413C482,-413 476,-407 476,-401"/>
<polyline style="fill:none;stroke:black;" points="476,-401 476,-373 "/>
<path style="fill:none;stroke:black;" d="M476,-373C476,-367 482,-361 488,-361"/>
<text text-anchor="middle" x="518" y="-396.4" style="font-family:Times New Roman;font-size:14.00;">Dimension</text>
<polyline style="fill:none;stroke:black;" points="476,-387 560,-387 "/>
<text text-anchor="start" x="483.875" y="-370.4" style="font-family:Times New Roman;font-size:14.00;">name :string</text>
</g>
<!-- Dimension&#45;&gt;Unit -->
<g id="edge14" class="edge"><title>Dimension&#45;&gt;Unit</title>
<path style="fill:none;stroke:black;" d="M521,-351C524,-309 529,-239 533,-191"/>
<polygon style="fill:black;stroke:black;" points="520.995,-351.05 515.522,-360.552 520.697,-354.035 520,-361 520.697,-354.035 524.478,-361.448 520.995,-351.05 520.995,-351.05"/>
<ellipse style="fill:black;stroke:black;" cx="533.504" cy="-186.969" rx="4.00001" ry="4.00001"/>
</g>
<!-- Stat -->
<g id="node10" class="node"><title>Stat</title>
<polyline style="fill:none;stroke:black;" points="401,-228 481,-228 "/>
<path style="fill:none;stroke:black;" d="M481,-228C487,-228 493,-234 493,-240"/>
<polyline style="fill:none;stroke:black;" points="493,-240 493,-286 "/>
<path style="fill:none;stroke:black;" d="M493,-286C493,-292 487,-298 481,-298"/>
<polyline style="fill:none;stroke:black;" points="481,-298 401,-298 "/>
<path style="fill:none;stroke:black;" d="M401,-298C395,-298 389,-292 389,-286"/>
<polyline style="fill:none;stroke:black;" points="389,-286 389,-240 "/>
<path style="fill:none;stroke:black;" d="M389,-240C389,-234 395,-228 401,-228"/>
<text text-anchor="middle" x="441" y="-281.4" style="font-family:Times New Roman;font-size:14.00;">Stat</text>
<polyline style="fill:none;stroke:black;" points="389,-272 493,-272 "/>
<text text-anchor="start" x="397.125" y="-255.4" style="font-family:Times New Roman;font-size:14.00;">name :string</text>
<text text-anchor="start" x="397.125" y="-237.4" style="font-family:Times New Roman;font-size:14.00;">description :text</text>
</g>
<!-- Dimension&#45;&gt;Stat -->
<g id="edge12" class="edge"><title>Dimension&#45;&gt;Stat</title>
<path style="fill:none;stroke:black;" d="M497,-352C487,-337 476,-320 467,-305"/>
<polygon style="fill:black;stroke:black;" points="497.144,-352.258 498.066,-363.185 498.6,-354.881 502,-361 498.6,-354.881 505.934,-358.815 497.144,-352.258 497.144,-352.258"/>
<ellipse style="fill:black;stroke:black;" cx="464.985" cy="-301.473" rx="4.00002" ry="4.00002"/>
</g>
<!-- User -->
<g id="node7" class="node"><title>User</title>
<polyline style="fill:none;stroke:black;" points="350,-476 439,-476 "/>
<path style="fill:none;stroke:black;" d="M439,-476C445,-476 451,-482 451,-488"/>
<polyline style="fill:none;stroke:black;" points="451,-488 451,-534 "/>
<path style="fill:none;stroke:black;" d="M451,-534C451,-540 445,-546 439,-546"/>
<polyline style="fill:none;stroke:black;" points="439,-546 350,-546 "/>
<path style="fill:none;stroke:black;" d="M350,-546C344,-546 338,-540 338,-534"/>
<polyline style="fill:none;stroke:black;" points="338,-534 338,-488 "/>
<path style="fill:none;stroke:black;" d="M338,-488C338,-482 344,-476 350,-476"/>
<text text-anchor="middle" x="394" y="-529.4" style="font-family:Times New Roman;font-size:14.00;">User</text>
<polyline style="fill:none;stroke:black;" points="338,-520 451,-520 "/>
<text text-anchor="start" x="345.625" y="-503.4" style="font-family:Times New Roman;font-size:14.00;">login :string</text>
<text text-anchor="start" x="345.625" y="-485.4" style="font-family:Times New Roman;font-size:14.00;">openid_url :string</text>
</g>
<!-- User&#45;&gt;Graph -->
<g id="edge18" class="edge"><title>User&#45;&gt;Graph</title>
<path style="fill:none;stroke:black;" d="M329,-473C300,-455 266,-435 238,-419"/>
<polygon style="fill:black;stroke:black;" points="329.258,-473.144 335.815,-481.934 331.881,-474.6 338,-478 331.881,-474.6 340.185,-474.066 329.258,-473.144 329.258,-473.144"/>
<ellipse style="fill:black;stroke:black;" cx="234.473" cy="-416.985" rx="4.00002" ry="4.00002"/>
</g>
<!-- Person -->
<g id="node8" class="node"><title>Person</title>
<polyline style="fill:none;stroke:black;" points="314,-352 391,-352 "/>
<path style="fill:none;stroke:black;" d="M391,-352C397,-352 403,-358 403,-364"/>
<polyline style="fill:none;stroke:black;" points="403,-364 403,-410 "/>
<path style="fill:none;stroke:black;" d="M403,-410C403,-416 397,-422 391,-422"/>
<polyline style="fill:none;stroke:black;" points="391,-422 314,-422 "/>
<path style="fill:none;stroke:black;" d="M314,-422C308,-422 302,-416 302,-410"/>
<polyline style="fill:none;stroke:black;" points="302,-410 302,-364 "/>
<path style="fill:none;stroke:black;" d="M302,-364C302,-358 308,-352 314,-352"/>
<text text-anchor="middle" x="352" y="-405.4" style="font-family:Times New Roman;font-size:14.00;">Person</text>
<polyline style="fill:none;stroke:black;" points="302,-396 403,-396 "/>
<text text-anchor="start" x="309.625" y="-379.4" style="font-family:Times New Roman;font-size:14.00;">name :string</text>
<text text-anchor="start" x="309.625" y="-361.4" style="font-family:Times New Roman;font-size:14.00;">birth_date :date</text>
</g>
<!-- User&#45;&gt;Person -->
<g id="edge22" class="edge"><title>User&#45;&gt;Person</title>
<path style="fill:none;stroke:black;" d="M379,-466C375,-455 371,-442 367,-430"/>
<polygon style="fill:black;stroke:black;" points="379.126,-466.422 377.69,-477.293 379.989,-469.295 382,-476 379.989,-469.295 386.31,-474.707 379.126,-466.422 379.126,-466.422"/>
<ellipse style="fill:black;stroke:black;" cx="365.405" cy="-425.745" rx="4.00001" ry="4.00001"/>
</g>
<!-- User&#45;&gt;Stat -->
<g id="edge16" class="edge"><title>User&#45;&gt;Stat</title>
<path style="fill:none;stroke:black;" d="M405,-466C407,-457 409,-449 411,-440 419,-395 429,-342 434,-306"/>
<polygon style="fill:black;stroke:black;" points="404.961,-466.194 398.587,-475.117 404.373,-469.136 403,-476 404.373,-469.136 407.413,-476.883 404.961,-466.194 404.961,-466.194"/>
<ellipse style="fill:black;stroke:black;" cx="434.504" cy="-301.969" rx="4.00001" ry="4.00001"/>
</g>
<!-- User&#45;&gt;UnitPref -->
<g id="edge20" class="edge"><title>User&#45;&gt;UnitPref</title>
<path style="fill:none;stroke:black;" d="M461,-499C498,-489 541,-471 569,-440 665,-329 644,-135 630,-58"/>
<polygon style="fill:black;stroke:black;" points="460.578,-499.126 449.707,-497.69 457.705,-499.989 451,-502 457.705,-499.989 452.293,-506.31 460.578,-499.126 460.578,-499.126"/>
<ellipse style="fill:black;stroke:black;" cx="629.496" cy="-53.9691" rx="4.00001" ry="4.00001"/>
</g>
<!-- Person&#45;&gt;PersonGraph -->
<g id="edge24" class="edge"><title>Person&#45;&gt;PersonGraph</title>
<path style="fill:none;stroke:black;" d="M296,-346C272,-328 246,-308 224,-293"/>
<polygon style="fill:black;stroke:black;" points="296,-346 301.3,-355.6 298.4,-347.8 304,-352 298.4,-347.8 306.7,-348.4 296,-346 296,-346"/>
<ellipse style="fill:black;stroke:black;" cx="220.255" cy="-290.325" rx="4.00002" ry="4.00002"/>
</g>
<!-- Person&#45;&gt;Measurement -->
<g id="edge28" class="edge"><title>Person&#45;&gt;Measurement</title>
<path style="fill:none;stroke:black;" d="M352,-342C352,-297 352,-228 352,-182"/>
<polygon style="fill:black;stroke:black;" points="352,-342 347.5,-352 352,-345 352,-352 352,-345 356.5,-352 352,-342 352,-342"/>
<ellipse style="fill:black;stroke:black;" cx="352" cy="-178" rx="4" ry="4"/>
</g>
<!-- Person&#45;&gt;Stat -->
<g id="edge26" class="edge"><title>Person&#45;&gt;Stat</title>
<path style="fill:none;stroke:black;" d="M383,-344C392,-332 402,-318 410,-306"/>
<polygon style="fill:black;stroke:black;" points="383,-344 373.4,-349.3 381.2,-346.4 377,-352 381.2,-346.4 380.6,-354.7 383,-344 383,-344"/>
<polygon style="fill:black;stroke:black;" points="410,-306 419.6,-300.7 411.8,-303.6 416,-298 411.8,-303.6 412.4,-295.3 410,-306 410,-306"/>
</g>
<!-- Person&#45;&gt;PersonStat -->
<g id="edge30" class="edge"><title>Person&#45;&gt;PersonStat</title>
<path style="fill:none;stroke:black;" d="M328,-343C309,-304 283,-245 273,-192 263,-145 252,-128 273,-86 281,-71 294,-58 308,-48"/>
<polygon style="fill:black;stroke:black;" points="328.144,-343.258 329.066,-354.185 329.6,-345.881 333,-352 329.6,-345.881 336.934,-349.815 328.144,-343.258 328.144,-343.258"/>
<ellipse style="fill:black;stroke:black;" cx="311.527" cy="-45.9846" rx="4.00002" ry="4.00002"/>
</g>
<!-- Stat&#45;&gt;Unit -->
<g id="edge34" class="edge"><title>Stat&#45;&gt;Unit</title>
<path style="fill:none;stroke:black;" d="M474,-220C482,-211 490,-201 497,-191"/>
<polygon style="fill:black;stroke:black;" points="474,-220 464.4,-225.3 472.2,-222.4 468,-228 472.2,-222.4 471.6,-230.7 474,-220 474,-220"/>
<polygon style="fill:black;stroke:black;" points="497,-191 506.6,-185.7 498.8,-188.6 503,-183 498.8,-188.6 499.4,-180.3 497,-191 497,-191"/>
</g>
<!-- Stat&#45;&gt;Measurement -->
<g id="edge38" class="edge"><title>Stat&#45;&gt;Measurement</title>
<path style="fill:none;stroke:black;" d="M410,-220C401,-207 391,-193 382,-181"/>
<polygon style="fill:black;stroke:black;" points="410,-220 412.4,-230.7 411.8,-222.4 416,-228 411.8,-222.4 419.6,-225.3 410,-220 410,-220"/>
<ellipse style="fill:black;stroke:black;" cx="379.325" cy="-177.255" rx="4.00002" ry="4.00002"/>
</g>
<!-- Stat&#45;&gt;Plot -->
<g id="edge32" class="edge"><title>Stat&#45;&gt;Plot</title>
<path style="fill:none;stroke:black;" d="M379,-253C297,-239 160,-214 115,-192 115,-192 114,-192 114,-191"/>
<polygon style="fill:black;stroke:black;" points="379.194,-253.039 388.117,-259.413 382.136,-253.627 389,-255 382.136,-253.627 389.883,-250.587 379.194,-253.039 379.194,-253.039"/>
<ellipse style="fill:black;stroke:black;" cx="110.473" cy="-188.985" rx="4.00002" ry="4.00002"/>
</g>
<!-- Stat&#45;&gt;UnitPref -->
<g id="edge36" class="edge"><title>Stat&#45;&gt;UnitPref</title>
<path style="fill:none;stroke:black;" d="M503,-251C538,-242 580,-224 605,-192 634,-153 633,-95 629,-58"/>
<polygon style="fill:black;stroke:black;" points="502.578,-251.126 491.707,-249.69 499.705,-251.989 493,-254 499.705,-251.989 494.293,-258.31 502.578,-251.126 502.578,-251.126"/>
<ellipse style="fill:black;stroke:black;" cx="628.496" cy="-53.9691" rx="4.00001" ry="4.00001"/>
</g>
<!-- Stat&#45;&gt;PersonStat -->
<g id="edge40" class="edge"><title>Stat&#45;&gt;PersonStat</title>
<path style="fill:none;stroke:black;" d="M448,-218C452,-180 452,-126 431,-86 423,-71 410,-58 396,-48"/>
<polygon style="fill:black;stroke:black;" points="447.995,-218.05 442.522,-227.552 447.697,-221.035 447,-228 447.697,-221.035 451.478,-228.448 447.995,-218.05 447.995,-218.05"/>
<ellipse style="fill:black;stroke:black;" cx="392.473" cy="-45.9846" rx="4.00002" ry="4.00002"/>
</g>
</g>
</svg>
