<?xml version="1.0" encoding="UTF-8" standalone="no"?>
<!DOCTYPE svg PUBLIC "-//W3C//DTD SVG 1.0//EN"
 "http://www.w3.org/TR/2001/REC-SVG-20010904/DTD/svg10.dtd" [
 <!ATTLIST svg xmlns:xlink CDATA #FIXED "http://www.w3.org/1999/xlink">
]>
<!-- Generated by Graphviz version 2.16 (Fri Feb  8 12:54:58 UTC 2008)
     For user: (lowentropy) Nathan Matthews,,, -->
<!-- Title: models_diagram Pages: 1 -->
<svg width="533pt" height="592pt"
 viewBox="0.00 0.00 533.00 592.00" xmlns="http://www.w3.org/2000/svg" xmlns:xlink="http://www.w3.org/1999/xlink">
<g id="graph0" class="graph" transform="scale(1 1) rotate(0) translate(4 588)">
<title>models_diagram</title>
<polygon style="fill:white;stroke:white;" points="-4,4 -4,-588 529,-588 529,4 -4,4"/>
<!-- Unit -->
<g id="node1" class="node"><title>Unit</title>
<polyline style="fill:none;stroke:black;" points="54,-248 148,-248 "/>
<path style="fill:none;stroke:black;" d="M148,-248C154,-248 160,-254 160,-260"/>
<polyline style="fill:none;stroke:black;" points="160,-260 160,-324 "/>
<path style="fill:none;stroke:black;" d="M160,-324C160,-330 154,-336 148,-336"/>
<polyline style="fill:none;stroke:black;" points="148,-336 54,-336 "/>
<path style="fill:none;stroke:black;" d="M54,-336C48,-336 42,-330 42,-324"/>
<polyline style="fill:none;stroke:black;" points="42,-324 42,-260 "/>
<path style="fill:none;stroke:black;" d="M42,-260C42,-254 48,-248 54,-248"/>
<text text-anchor="middle" x="101" y="-319.4" style="font-family:Times New Roman;font-size:14.00;">Unit</text>
<polyline style="fill:none;stroke:black;" points="42,-310 160,-310 "/>
<text text-anchor="start" x="50" y="-293.4" style="font-family:Times New Roman;font-size:14.00;">long_name :string</text>
<text text-anchor="start" x="50" y="-275.4" style="font-family:Times New Roman;font-size:14.00;">short_name :string</text>
<text text-anchor="start" x="50" y="-257.4" style="font-family:Times New Roman;font-size:14.00;">multiplier :float</text>
</g>
<!-- UnitPref -->
<g id="node11" class="node"><title>UnitPref</title>
<polyline style="fill:none;stroke:black;" points="82,-134 121,-134 "/>
<path style="fill:none;stroke:black;" d="M121,-134C127,-134 133,-140 133,-146"/>
<polyline style="fill:none;stroke:black;" points="133,-146 133,-172 "/>
<path style="fill:none;stroke:black;" d="M133,-172C133,-178 127,-184 121,-184"/>
<polyline style="fill:none;stroke:black;" points="121,-184 82,-184 "/>
<path style="fill:none;stroke:black;" d="M82,-184C76,-184 70,-178 70,-172"/>
<polyline style="fill:none;stroke:black;" points="70,-172 70,-146 "/>
<path style="fill:none;stroke:black;" d="M70,-146C70,-140 76,-134 82,-134"/>
<text text-anchor="middle" x="101" y="-167.4" style="font-family:Times New Roman;font-size:14.00;">UnitPref</text>
<polyline style="fill:none;stroke:black;" points="70,-158 133,-158 "/>
</g>
<!-- Unit&#45;&gt;UnitPref -->
<g id="edge2" class="edge"><title>Unit&#45;&gt;UnitPref</title>
<path style="fill:none;stroke:black;" d="M101,-238C101,-222 101,-206 101,-192"/>
<polygon style="fill:black;stroke:black;" points="101,-238 96.5,-248 101,-241 101,-248 101,-241 105.5,-248 101,-238 101,-238"/>
<ellipse style="fill:black;stroke:black;" cx="101" cy="-188" rx="4" ry="4"/>
</g>
<!-- PersonStat -->
<g id="node12" class="node"><title>PersonStat</title>
<polyline style="fill:none;stroke:black;" points="205,-134 255,-134 "/>
<path style="fill:none;stroke:black;" d="M255,-134C261,-134 267,-140 267,-146"/>
<polyline style="fill:none;stroke:black;" points="267,-146 267,-172 "/>
<path style="fill:none;stroke:black;" d="M267,-172C267,-178 261,-184 255,-184"/>
<polyline style="fill:none;stroke:black;" points="255,-184 205,-184 "/>
<path style="fill:none;stroke:black;" d="M205,-184C199,-184 193,-178 193,-172"/>
<polyline style="fill:none;stroke:black;" points="193,-172 193,-146 "/>
<path style="fill:none;stroke:black;" d="M193,-146C193,-140 199,-134 205,-134"/>
<text text-anchor="middle" x="230" y="-167.4" style="font-family:Times New Roman;font-size:14.00;">PersonStat</text>
<polyline style="fill:none;stroke:black;" points="193,-158 267,-158 "/>
</g>
<!-- Unit&#45;&gt;PersonStat -->
<g id="edge4" class="edge"><title>Unit&#45;&gt;PersonStat</title>
<path style="fill:none;stroke:black;" d="M151,-241C167,-223 185,-205 199,-190"/>
<polygon style="fill:black;stroke:black;" points="151.071,-240.929 140.818,-244.818 148.95,-243.05 144,-248 148.95,-243.05 147.182,-251.182 151.071,-240.929 151.071,-240.929"/>
<ellipse style="fill:black;stroke:black;" cx="202.172" cy="-186.828" rx="4.00002" ry="4.00002"/>
</g>
<!-- PersonGraph -->
<g id="node2" class="node"><title>PersonGraph</title>
<polyline style="fill:none;stroke:black;" points="388,-267 451,-267 "/>
<path style="fill:none;stroke:black;" d="M451,-267C457,-267 463,-273 463,-279"/>
<polyline style="fill:none;stroke:black;" points="463,-279 463,-305 "/>
<path style="fill:none;stroke:black;" d="M463,-305C463,-311 457,-317 451,-317"/>
<polyline style="fill:none;stroke:black;" points="451,-317 388,-317 "/>
<path style="fill:none;stroke:black;" d="M388,-317C382,-317 376,-311 376,-305"/>
<polyline style="fill:none;stroke:black;" points="376,-305 376,-279 "/>
<path style="fill:none;stroke:black;" d="M376,-279C376,-273 382,-267 388,-267"/>
<text text-anchor="middle" x="419" y="-300.4" style="font-family:Times New Roman;font-size:14.00;">PersonGraph</text>
<polyline style="fill:none;stroke:black;" points="376,-291 463,-291 "/>
</g>
<!-- Measurement -->
<g id="node3" class="node"><title>Measurement</title>
<polyline style="fill:none;stroke:black;" points="306,-133 373,-133 "/>
<path style="fill:none;stroke:black;" d="M373,-133C379,-133 385,-139 385,-145"/>
<polyline style="fill:none;stroke:black;" points="385,-145 385,-173 "/>
<path style="fill:none;stroke:black;" d="M385,-173C385,-179 379,-185 373,-185"/>
<polyline style="fill:none;stroke:black;" points="373,-185 306,-185 "/>
<path style="fill:none;stroke:black;" d="M306,-185C300,-185 294,-179 294,-173"/>
<polyline style="fill:none;stroke:black;" points="294,-173 294,-145 "/>
<path style="fill:none;stroke:black;" d="M294,-145C294,-139 300,-133 306,-133"/>
<text text-anchor="middle" x="339" y="-168.4" style="font-family:Times New Roman;font-size:14.00;">Measurement</text>
<polyline style="fill:none;stroke:black;" points="294,-159 385,-159 "/>
<text text-anchor="start" x="301.75" y="-142.4" style="font-family:Times New Roman;font-size:14.00;">value :float</text>
</g>
<!-- Log -->
<g id="node5" class="node"><title>Log</title>
<polyline style="fill:none;stroke:black;" points="281,-0 397,-0 "/>
<path style="fill:none;stroke:black;" d="M397,-0C403,-0 409,-6 409,-12"/>
<polyline style="fill:none;stroke:black;" points="409,-12 409,-58 "/>
<path style="fill:none;stroke:black;" d="M409,-58C409,-64 403,-70 397,-70"/>
<polyline style="fill:none;stroke:black;" points="397,-70 281,-70 "/>
<path style="fill:none;stroke:black;" d="M281,-70C275,-70 269,-64 269,-58"/>
<polyline style="fill:none;stroke:black;" points="269,-58 269,-12 "/>
<path style="fill:none;stroke:black;" d="M269,-12C269,-6 275,-0 281,-0"/>
<text text-anchor="middle" x="339" y="-53.4" style="font-family:Times New Roman;font-size:14.00;">Log</text>
<polyline style="fill:none;stroke:black;" points="269,-44 409,-44 "/>
<text text-anchor="start" x="277.125" y="-27.4" style="font-family:Times New Roman;font-size:14.00;">measured_at :datetime</text>
<text text-anchor="start" x="277.125" y="-9.4" style="font-family:Times New Roman;font-size:14.00;">notes :text</text>
</g>
<!-- Measurement&#45;&gt;Log -->
<g id="edge6" class="edge"><title>Measurement&#45;&gt;Log</title>
<path style="fill:none;stroke:black;" d="M339,-123C339,-109 339,-92 339,-78"/>
<polygon style="fill:black;stroke:black;" points="339,-123 334.5,-133 339,-126 339,-133 339,-126 343.5,-133 339,-123 339,-123"/>
<ellipse style="fill:black;stroke:black;" cx="339" cy="-74" rx="4" ry="4"/>
</g>
<!-- Graph -->
<g id="node4" class="node"><title>Graph</title>
<polyline style="fill:none;stroke:black;" points="389,-372 460,-372 "/>
<path style="fill:none;stroke:black;" d="M460,-372C466,-372 472,-378 472,-384"/>
<polyline style="fill:none;stroke:black;" points="472,-384 472,-466 "/>
<path style="fill:none;stroke:black;" d="M472,-466C472,-472 466,-478 460,-478"/>
<polyline style="fill:none;stroke:black;" points="460,-478 389,-478 "/>
<path style="fill:none;stroke:black;" d="M389,-478C383,-478 377,-472 377,-466"/>
<polyline style="fill:none;stroke:black;" points="377,-466 377,-384 "/>
<path style="fill:none;stroke:black;" d="M377,-384C377,-378 383,-372 389,-372"/>
<text text-anchor="middle" x="424" y="-461.4" style="font-family:Times New Roman;font-size:14.00;">Graph</text>
<polyline style="fill:none;stroke:black;" points="377,-452 472,-452 "/>
<text text-anchor="start" x="384.625" y="-435.4" style="font-family:Times New Roman;font-size:14.00;">title :string</text>
<text text-anchor="start" x="384.625" y="-417.4" style="font-family:Times New Roman;font-size:14.00;">ylabel :string</text>
<text text-anchor="start" x="384.625" y="-399.4" style="font-family:Times New Roman;font-size:14.00;">width :integer</text>
<text text-anchor="start" x="384.625" y="-381.4" style="font-family:Times New Roman;font-size:14.00;">height :integer</text>
</g>
<!-- Graph&#45;&gt;PersonGraph -->
<g id="edge8" class="edge"><title>Graph&#45;&gt;PersonGraph</title>
<path style="fill:none;stroke:black;" d="M422,-362C421,-349 421,-337 421,-325"/>
<polygon style="fill:black;stroke:black;" points="422,-362 417.5,-372 422,-365 422,-372 422,-365 426.5,-372 422,-362 422,-362"/>
<ellipse style="fill:black;stroke:black;" cx="420.496" cy="-320.969" rx="4.00001" ry="4.00001"/>
</g>
<!-- Plot -->
<g id="node9" class="node"><title>Plot</title>
<polyline style="fill:none;stroke:black;" points="431,-106 514,-106 "/>
<path style="fill:none;stroke:black;" d="M514,-106C520,-106 526,-112 526,-118"/>
<polyline style="fill:none;stroke:black;" points="526,-118 526,-200 "/>
<path style="fill:none;stroke:black;" d="M526,-200C526,-206 520,-212 514,-212"/>
<polyline style="fill:none;stroke:black;" points="514,-212 431,-212 "/>
<path style="fill:none;stroke:black;" d="M431,-212C425,-212 419,-206 419,-200"/>
<polyline style="fill:none;stroke:black;" points="419,-200 419,-118 "/>
<path style="fill:none;stroke:black;" d="M419,-118C419,-112 425,-106 431,-106"/>
<text text-anchor="middle" x="472" y="-195.4" style="font-family:Times New Roman;font-size:14.00;">Plot</text>
<polyline style="fill:none;stroke:black;" points="419,-186 526,-186 "/>
<text text-anchor="start" x="426.625" y="-169.4" style="font-family:Times New Roman;font-size:14.00;">name :string</text>
<text text-anchor="start" x="426.625" y="-151.4" style="font-family:Times New Roman;font-size:14.00;">color :string</text>
<text text-anchor="start" x="426.625" y="-133.4" style="font-family:Times New Roman;font-size:14.00;">style :string</text>
<text text-anchor="start" x="426.625" y="-115.4" style="font-family:Times New Roman;font-size:14.00;">smooth :boolean</text>
</g>
<!-- Graph&#45;&gt;Plot -->
<g id="edge10" class="edge"><title>Graph&#45;&gt;Plot</title>
<path style="fill:none;stroke:black;" d="M461,-363C465,-354 469,-345 471,-336 480,-298 481,-255 479,-220"/>
<polygon style="fill:black;stroke:black;" points="461.061,-362.862 452.888,-370.172 459.843,-365.603 457,-372 459.843,-365.603 461.112,-373.828 461.061,-362.862 461.061,-362.862"/>
<ellipse style="fill:black;stroke:black;" cx="478.496" cy="-215.969" rx="4.00001" ry="4.00001"/>
</g>
<!-- Dimension -->
<g id="node6" class="node"><title>Dimension</title>
<polyline style="fill:none;stroke:black;" points="101,-399 161,-399 "/>
<path style="fill:none;stroke:black;" d="M161,-399C167,-399 173,-405 173,-411"/>
<polyline style="fill:none;stroke:black;" points="173,-411 173,-439 "/>
<path style="fill:none;stroke:black;" d="M173,-439C173,-445 167,-451 161,-451"/>
<polyline style="fill:none;stroke:black;" points="161,-451 101,-451 "/>
<path style="fill:none;stroke:black;" d="M101,-451C95,-451 89,-445 89,-439"/>
<polyline style="fill:none;stroke:black;" points="89,-439 89,-411 "/>
<path style="fill:none;stroke:black;" d="M89,-411C89,-405 95,-399 101,-399"/>
<text text-anchor="middle" x="131" y="-434.4" style="font-family:Times New Roman;font-size:14.00;">Dimension</text>
<polyline style="fill:none;stroke:black;" points="89,-425 173,-425 "/>
<text text-anchor="start" x="96.875" y="-408.4" style="font-family:Times New Roman;font-size:14.00;">name :string</text>
</g>
<!-- Dimension&#45;&gt;Unit -->
<g id="edge12" class="edge"><title>Dimension&#45;&gt;Unit</title>
<path style="fill:none;stroke:black;" d="M123,-389C120,-376 116,-359 113,-344"/>
<polygon style="fill:black;stroke:black;" points="123.039,-389.194 120.587,-399.883 123.627,-392.136 125,-399 123.627,-392.136 129.413,-398.117 123.039,-389.194 123.039,-389.194"/>
<ellipse style="fill:black;stroke:black;" cx="111.97" cy="-339.881" rx="4.00001" ry="4.00001"/>
</g>
<!-- Stat -->
<g id="node10" class="node"><title>Stat</title>
<polyline style="fill:none;stroke:black;" points="190,-257 270,-257 "/>
<path style="fill:none;stroke:black;" d="M270,-257C276,-257 282,-263 282,-269"/>
<polyline style="fill:none;stroke:black;" points="282,-269 282,-315 "/>
<path style="fill:none;stroke:black;" d="M282,-315C282,-321 276,-327 270,-327"/>
<polyline style="fill:none;stroke:black;" points="270,-327 190,-327 "/>
<path style="fill:none;stroke:black;" d="M190,-327C184,-327 178,-321 178,-315"/>
<polyline style="fill:none;stroke:black;" points="178,-315 178,-269 "/>
<path style="fill:none;stroke:black;" d="M178,-269C178,-263 184,-257 190,-257"/>
<text text-anchor="middle" x="230" y="-310.4" style="font-family:Times New Roman;font-size:14.00;">Stat</text>
<polyline style="fill:none;stroke:black;" points="178,-301 282,-301 "/>
<text text-anchor="start" x="186.125" y="-284.4" style="font-family:Times New Roman;font-size:14.00;">name :string</text>
<text text-anchor="start" x="186.125" y="-266.4" style="font-family:Times New Roman;font-size:14.00;">description :text</text>
</g>
<!-- Dimension&#45;&gt;Stat -->
<g id="edge14" class="edge"><title>Dimension&#45;&gt;Stat</title>
<path style="fill:none;stroke:black;" d="M157,-391C169,-373 185,-352 199,-334"/>
<polygon style="fill:black;stroke:black;" points="157,-391 147.4,-396.3 155.2,-393.4 151,-399 155.2,-393.4 154.6,-401.7 157,-391 157,-391"/>
<ellipse style="fill:black;stroke:black;" cx="201.675" cy="-330.255" rx="4.00002" ry="4.00002"/>
</g>
<!-- User -->
<g id="node7" class="node"><title>User</title>
<polyline style="fill:none;stroke:black;" points="226,-514 315,-514 "/>
<path style="fill:none;stroke:black;" d="M315,-514C321,-514 327,-520 327,-526"/>
<polyline style="fill:none;stroke:black;" points="327,-526 327,-572 "/>
<path style="fill:none;stroke:black;" d="M327,-572C327,-578 321,-584 315,-584"/>
<polyline style="fill:none;stroke:black;" points="315,-584 226,-584 "/>
<path style="fill:none;stroke:black;" d="M226,-584C220,-584 214,-578 214,-572"/>
<polyline style="fill:none;stroke:black;" points="214,-572 214,-526 "/>
<path style="fill:none;stroke:black;" d="M214,-526C214,-520 220,-514 226,-514"/>
<text text-anchor="middle" x="270" y="-567.4" style="font-family:Times New Roman;font-size:14.00;">User</text>
<polyline style="fill:none;stroke:black;" points="214,-558 327,-558 "/>
<text text-anchor="start" x="221.625" y="-541.4" style="font-family:Times New Roman;font-size:14.00;">login :string</text>
<text text-anchor="start" x="221.625" y="-523.4" style="font-family:Times New Roman;font-size:14.00;">openid_url :string</text>
</g>
<!-- User&#45;&gt;Graph -->
<g id="edge22" class="edge"><title>User&#45;&gt;Graph</title>
<path style="fill:none;stroke:black;" d="M329,-508C342,-498 356,-488 368,-478 369,-477 370,-477 371,-476"/>
<polygon style="fill:black;stroke:black;" points="329,-508 318.3,-510.4 326.6,-509.8 321,-514 326.6,-509.8 323.7,-517.6 329,-508 329,-508"/>
<ellipse style="fill:black;stroke:black;" cx="374.172" cy="-472.828" rx="4.00002" ry="4.00002"/>
</g>
<!-- Person -->
<g id="node8" class="node"><title>Person</title>
<polyline style="fill:none;stroke:black;" points="271,-390 348,-390 "/>
<path style="fill:none;stroke:black;" d="M348,-390C354,-390 360,-396 360,-402"/>
<polyline style="fill:none;stroke:black;" points="360,-402 360,-448 "/>
<path style="fill:none;stroke:black;" d="M360,-448C360,-454 354,-460 348,-460"/>
<polyline style="fill:none;stroke:black;" points="348,-460 271,-460 "/>
<path style="fill:none;stroke:black;" d="M271,-460C265,-460 259,-454 259,-448"/>
<polyline style="fill:none;stroke:black;" points="259,-448 259,-402 "/>
<path style="fill:none;stroke:black;" d="M259,-402C259,-396 265,-390 271,-390"/>
<text text-anchor="middle" x="309" y="-443.4" style="font-family:Times New Roman;font-size:14.00;">Person</text>
<polyline style="fill:none;stroke:black;" points="259,-434 360,-434 "/>
<text text-anchor="start" x="266.625" y="-417.4" style="font-family:Times New Roman;font-size:14.00;">name :string</text>
<text text-anchor="start" x="266.625" y="-399.4" style="font-family:Times New Roman;font-size:14.00;">birth_date :date</text>
</g>
<!-- User&#45;&gt;Person -->
<g id="edge20" class="edge"><title>User&#45;&gt;Person</title>
<path style="fill:none;stroke:black;" d="M284,-504C288,-493 292,-480 296,-468"/>
<polygon style="fill:black;stroke:black;" points="283.874,-504.422 276.69,-512.707 283.011,-507.295 281,-514 283.011,-507.295 285.31,-515.293 283.874,-504.422 283.874,-504.422"/>
<ellipse style="fill:black;stroke:black;" cx="297.03" cy="-463.881" rx="4.00001" ry="4.00001"/>
</g>
<!-- User&#45;&gt;Stat -->
<g id="edge18" class="edge"><title>User&#45;&gt;Stat</title>
<path style="fill:none;stroke:black;" d="M257,-504C254,-495 252,-487 250,-478 241,-430 236,-374 233,-335"/>
<polygon style="fill:black;stroke:black;" points="257.039,-504.194 254.587,-514.883 257.627,-507.136 259,-514 257.627,-507.136 263.413,-513.117 257.039,-504.194 257.039,-504.194"/>
<ellipse style="fill:black;stroke:black;" cx="232.496" cy="-330.969" rx="4.00001" ry="4.00001"/>
</g>
<!-- User&#45;&gt;UnitPref -->
<g id="edge16" class="edge"><title>User&#45;&gt;UnitPref</title>
<path style="fill:none;stroke:black;" d="M204,-539C164,-529 113,-511 80,-478 8,-402 0,-346 33,-248 40,-226 55,-206 69,-190"/>
<polygon style="fill:black;stroke:black;" points="204.194,-539.039 213.117,-545.413 207.136,-539.627 214,-541 207.136,-539.627 214.883,-536.587 204.194,-539.039 204.194,-539.039"/>
<ellipse style="fill:black;stroke:black;" cx="71.4392" cy="-187.073" rx="4.00002" ry="4.00002"/>
</g>
<!-- Person&#45;&gt;PersonGraph -->
<g id="edge30" class="edge"><title>Person&#45;&gt;PersonGraph</title>
<path style="fill:none;stroke:black;" d="M344,-382C360,-363 378,-341 393,-323"/>
<polygon style="fill:black;stroke:black;" points="344,-382 334.4,-387.3 342.2,-384.4 338,-390 342.2,-384.4 341.6,-392.7 344,-382 344,-382"/>
<ellipse style="fill:black;stroke:black;" cx="395.439" cy="-320.073" rx="4.00002" ry="4.00002"/>
</g>
<!-- Person&#45;&gt;Measurement -->
<g id="edge28" class="edge"><title>Person&#45;&gt;Measurement</title>
<path style="fill:none;stroke:black;" d="M317,-380C319,-366 322,-350 324,-336 330,-286 334,-228 337,-193"/>
<polygon style="fill:black;stroke:black;" points="316.961,-380.194 310.587,-389.117 316.373,-383.136 315,-390 316.373,-383.136 319.413,-390.883 316.961,-380.194 316.961,-380.194"/>
<ellipse style="fill:black;stroke:black;" cx="337" cy="-189" rx="4" ry="4"/>
</g>
<!-- Person&#45;&gt;Stat -->
<g id="edge24" class="edge"><title>Person&#45;&gt;Stat</title>
<path style="fill:none;stroke:black;" d="M283,-381C275,-366 265,-351 256,-336"/>
<polygon style="fill:black;stroke:black;" points="283.144,-381.258 284.066,-392.185 284.6,-383.881 288,-390 284.6,-383.881 291.934,-387.815 283.144,-381.258 283.144,-381.258"/>
<polygon style="fill:black;stroke:black;" points="255.856,-335.742 254.934,-324.815 254.4,-333.119 251,-327 254.4,-333.119 247.066,-329.185 255.856,-335.742 255.856,-335.742"/>
</g>
<!-- Person&#45;&gt;PersonStat -->
<g id="edge26" class="edge"><title>Person&#45;&gt;PersonStat</title>
<path style="fill:none;stroke:black;" d="M310,-380C310,-343 306,-291 291,-248 284,-227 271,-207 258,-191"/>
<polygon style="fill:black;stroke:black;" points="310,-380 305.5,-390 310,-383 310,-390 310,-383 314.5,-390 310,-380 310,-380"/>
<ellipse style="fill:black;stroke:black;" cx="255.325" cy="-187.255" rx="4.00002" ry="4.00002"/>
</g>
<!-- Stat&#45;&gt;Measurement -->
<g id="edge36" class="edge"><title>Stat&#45;&gt;Measurement</title>
<path style="fill:none;stroke:black;" d="M265,-249C280,-230 298,-209 312,-191"/>
<polygon style="fill:black;stroke:black;" points="265,-249 255.4,-254.3 263.2,-251.4 259,-257 263.2,-251.4 262.6,-259.7 265,-249 265,-249"/>
<ellipse style="fill:black;stroke:black;" cx="314.439" cy="-188.073" rx="4.00002" ry="4.00002"/>
</g>
<!-- Stat&#45;&gt;Plot -->
<g id="edge38" class="edge"><title>Stat&#45;&gt;Plot</title>
<path style="fill:none;stroke:black;" d="M291,-264C322,-249 360,-231 393,-212 399,-208 405,-204 412,-200"/>
<polygon style="fill:black;stroke:black;" points="291.138,-263.939 280.172,-263.888 288.397,-265.157 282,-268 288.397,-265.157 283.828,-272.112 291.138,-263.939 291.138,-263.939"/>
<ellipse style="fill:black;stroke:black;" cx="415.527" cy="-197.985" rx="4.00002" ry="4.00002"/>
</g>
<!-- Stat&#45;&gt;UnitPref -->
<g id="edge32" class="edge"><title>Stat&#45;&gt;UnitPref</title>
<path style="fill:none;stroke:black;" d="M189,-250C170,-230 149,-208 132,-190"/>
<polygon style="fill:black;stroke:black;" points="188.929,-249.929 192.818,-260.182 191.05,-252.05 196,-257 191.05,-252.05 199.182,-253.818 188.929,-249.929 188.929,-249.929"/>
<ellipse style="fill:black;stroke:black;" cx="128.828" cy="-186.828" rx="4.00002" ry="4.00002"/>
</g>
<!-- Stat&#45;&gt;PersonStat -->
<g id="edge34" class="edge"><title>Stat&#45;&gt;PersonStat</title>
<path style="fill:none;stroke:black;" d="M230,-247C230,-229 230,-209 230,-192"/>
<polygon style="fill:black;stroke:black;" points="230,-247 225.5,-257 230,-250 230,-257 230,-250 234.5,-257 230,-247 230,-247"/>
<ellipse style="fill:black;stroke:black;" cx="230" cy="-188" rx="4" ry="4"/>
</g>
</g>
</svg>
