<?xml version="1.0" encoding="UTF-8" standalone="no"?>
<!DOCTYPE svg PUBLIC "-//W3C//DTD SVG 1.0//EN"
 "http://www.w3.org/TR/2001/REC-SVG-20010904/DTD/svg10.dtd" [
 <!ATTLIST svg xmlns:xlink CDATA #FIXED "http://www.w3.org/1999/xlink">
]>
<!-- Generated by Graphviz version 2.16 (Fri Feb  8 12:54:58 UTC 2008)
     For user: (lowentropy) Nathan Matthews,,, -->
<!-- Title: models_diagram Pages: 1 -->
<svg width="516pt" height="468pt"
 viewBox="0.00 0.00 516.00 468.00" xmlns="http://www.w3.org/2000/svg" xmlns:xlink="http://www.w3.org/1999/xlink">
<g id="graph0" class="graph" transform="scale(1 1) rotate(0) translate(4 464)">
<title>models_diagram</title>
<polygon style="fill:white;stroke:white;" points="-4,4 -4,-464 512,-464 512,4 -4,4"/>
<!-- Unit -->
<g id="node1" class="node"><title>Unit</title>
<polyline style="fill:none;stroke:black;" points="12,-257 106,-257 "/>
<path style="fill:none;stroke:black;" d="M106,-257C112,-257 118,-263 118,-269"/>
<polyline style="fill:none;stroke:black;" points="118,-269 118,-333 "/>
<path style="fill:none;stroke:black;" d="M118,-333C118,-339 112,-345 106,-345"/>
<polyline style="fill:none;stroke:black;" points="106,-345 12,-345 "/>
<path style="fill:none;stroke:black;" d="M12,-345C6,-345 0,-339 0,-333"/>
<polyline style="fill:none;stroke:black;" points="0,-333 0,-269 "/>
<path style="fill:none;stroke:black;" d="M0,-269C0,-263 6,-257 12,-257"/>
<text text-anchor="middle" x="59" y="-328.4" style="font-family:Times New Roman;font-size:14.00;">Unit</text>
<polyline style="fill:none;stroke:black;" points="0,-319 118,-319 "/>
<text text-anchor="start" x="8" y="-302.4" style="font-family:Times New Roman;font-size:14.00;">long_name :string</text>
<text text-anchor="start" x="8" y="-284.4" style="font-family:Times New Roman;font-size:14.00;">short_name :string</text>
<text text-anchor="start" x="8" y="-266.4" style="font-family:Times New Roman;font-size:14.00;">multiplier :float</text>
</g>
<!-- UnitPref -->
<g id="node11" class="node"><title>UnitPref</title>
<polyline style="fill:none;stroke:black;" points="115,-134 154,-134 "/>
<path style="fill:none;stroke:black;" d="M154,-134C160,-134 166,-140 166,-146"/>
<polyline style="fill:none;stroke:black;" points="166,-146 166,-172 "/>
<path style="fill:none;stroke:black;" d="M166,-172C166,-178 160,-184 154,-184"/>
<polyline style="fill:none;stroke:black;" points="154,-184 115,-184 "/>
<path style="fill:none;stroke:black;" d="M115,-184C109,-184 103,-178 103,-172"/>
<polyline style="fill:none;stroke:black;" points="103,-172 103,-146 "/>
<path style="fill:none;stroke:black;" d="M103,-146C103,-140 109,-134 115,-134"/>
<text text-anchor="middle" x="134" y="-167.4" style="font-family:Times New Roman;font-size:14.00;">UnitPref</text>
<polyline style="fill:none;stroke:black;" points="103,-158 166,-158 "/>
</g>
<!-- Unit&#45;&gt;UnitPref -->
<g id="edge2" class="edge"><title>Unit&#45;&gt;UnitPref</title>
<path style="fill:none;stroke:black;" d="M87,-248C97,-229 108,-208 117,-191"/>
<polygon style="fill:black;stroke:black;" points="86.8565,-248.258 78.0663,-254.815 85.3995,-250.881 82,-257 85.3995,-250.881 85.9337,-259.185 86.8565,-248.258 86.8565,-248.258"/>
<ellipse style="fill:black;stroke:black;" cx="119.015" cy="-187.473" rx="4.00002" ry="4.00002"/>
</g>
<!-- PersonGraph -->
<g id="node2" class="node"><title>PersonGraph</title>
<polyline style="fill:none;stroke:black;" points="427,-134 490,-134 "/>
<path style="fill:none;stroke:black;" d="M490,-134C496,-134 502,-140 502,-146"/>
<polyline style="fill:none;stroke:black;" points="502,-146 502,-172 "/>
<path style="fill:none;stroke:black;" d="M502,-172C502,-178 496,-184 490,-184"/>
<polyline style="fill:none;stroke:black;" points="490,-184 427,-184 "/>
<path style="fill:none;stroke:black;" d="M427,-184C421,-184 415,-178 415,-172"/>
<polyline style="fill:none;stroke:black;" points="415,-172 415,-146 "/>
<path style="fill:none;stroke:black;" d="M415,-146C415,-140 421,-134 427,-134"/>
<text text-anchor="middle" x="458" y="-167.4" style="font-family:Times New Roman;font-size:14.00;">PersonGraph</text>
<polyline style="fill:none;stroke:black;" points="415,-158 502,-158 "/>
</g>
<!-- Measurement -->
<g id="node3" class="node"><title>Measurement</title>
<polyline style="fill:none;stroke:black;" points="319,-133 386,-133 "/>
<path style="fill:none;stroke:black;" d="M386,-133C392,-133 398,-139 398,-145"/>
<polyline style="fill:none;stroke:black;" points="398,-145 398,-173 "/>
<path style="fill:none;stroke:black;" d="M398,-173C398,-179 392,-185 386,-185"/>
<polyline style="fill:none;stroke:black;" points="386,-185 319,-185 "/>
<path style="fill:none;stroke:black;" d="M319,-185C313,-185 307,-179 307,-173"/>
<polyline style="fill:none;stroke:black;" points="307,-173 307,-145 "/>
<path style="fill:none;stroke:black;" d="M307,-145C307,-139 313,-133 319,-133"/>
<text text-anchor="middle" x="352" y="-168.4" style="font-family:Times New Roman;font-size:14.00;">Measurement</text>
<polyline style="fill:none;stroke:black;" points="307,-159 398,-159 "/>
<text text-anchor="start" x="314.75" y="-142.4" style="font-family:Times New Roman;font-size:14.00;">value :float</text>
</g>
<!-- Log -->
<g id="node5" class="node"><title>Log</title>
<polyline style="fill:none;stroke:black;" points="294,-0 410,-0 "/>
<path style="fill:none;stroke:black;" d="M410,-0C416,-0 422,-6 422,-12"/>
<polyline style="fill:none;stroke:black;" points="422,-12 422,-58 "/>
<path style="fill:none;stroke:black;" d="M422,-58C422,-64 416,-70 410,-70"/>
<polyline style="fill:none;stroke:black;" points="410,-70 294,-70 "/>
<path style="fill:none;stroke:black;" d="M294,-70C288,-70 282,-64 282,-58"/>
<polyline style="fill:none;stroke:black;" points="282,-58 282,-12 "/>
<path style="fill:none;stroke:black;" d="M282,-12C282,-6 288,-0 294,-0"/>
<text text-anchor="middle" x="352" y="-53.4" style="font-family:Times New Roman;font-size:14.00;">Log</text>
<polyline style="fill:none;stroke:black;" points="282,-44 422,-44 "/>
<text text-anchor="start" x="290.125" y="-27.4" style="font-family:Times New Roman;font-size:14.00;">measured_at :datetime</text>
<text text-anchor="start" x="290.125" y="-9.4" style="font-family:Times New Roman;font-size:14.00;">notes :text</text>
</g>
<!-- Measurement&#45;&gt;Log -->
<g id="edge4" class="edge"><title>Measurement&#45;&gt;Log</title>
<path style="fill:none;stroke:black;" d="M352,-123C352,-109 352,-92 352,-78"/>
<polygon style="fill:black;stroke:black;" points="352,-123 347.5,-133 352,-126 352,-133 352,-126 356.5,-133 352,-123 352,-123"/>
<ellipse style="fill:black;stroke:black;" cx="352" cy="-74" rx="4" ry="4"/>
</g>
<!-- Graph -->
<g id="node4" class="node"><title>Graph</title>
<polyline style="fill:none;stroke:black;" points="308,-248 379,-248 "/>
<path style="fill:none;stroke:black;" d="M379,-248C385,-248 391,-254 391,-260"/>
<polyline style="fill:none;stroke:black;" points="391,-260 391,-342 "/>
<path style="fill:none;stroke:black;" d="M391,-342C391,-348 385,-354 379,-354"/>
<polyline style="fill:none;stroke:black;" points="379,-354 308,-354 "/>
<path style="fill:none;stroke:black;" d="M308,-354C302,-354 296,-348 296,-342"/>
<polyline style="fill:none;stroke:black;" points="296,-342 296,-260 "/>
<path style="fill:none;stroke:black;" d="M296,-260C296,-254 302,-248 308,-248"/>
<text text-anchor="middle" x="343" y="-337.4" style="font-family:Times New Roman;font-size:14.00;">Graph</text>
<polyline style="fill:none;stroke:black;" points="296,-328 391,-328 "/>
<text text-anchor="start" x="303.625" y="-311.4" style="font-family:Times New Roman;font-size:14.00;">title :string</text>
<text text-anchor="start" x="303.625" y="-293.4" style="font-family:Times New Roman;font-size:14.00;">ylabel :string</text>
<text text-anchor="start" x="303.625" y="-275.4" style="font-family:Times New Roman;font-size:14.00;">width :integer</text>
<text text-anchor="start" x="303.625" y="-257.4" style="font-family:Times New Roman;font-size:14.00;">height :integer</text>
</g>
<!-- Graph&#45;&gt;PersonGraph -->
<g id="edge6" class="edge"><title>Graph&#45;&gt;PersonGraph</title>
<path style="fill:none;stroke:black;" d="M392,-240C406,-223 421,-205 433,-191"/>
<polygon style="fill:black;stroke:black;" points="392,-240 382.4,-245.3 390.2,-242.4 386,-248 390.2,-242.4 389.6,-250.7 392,-240 392,-240"/>
<ellipse style="fill:black;stroke:black;" cx="435.675" cy="-187.255" rx="4.00002" ry="4.00002"/>
</g>
<!-- Plot -->
<g id="node9" class="node"><title>Plot</title>
<polyline style="fill:none;stroke:black;" points="195,-106 278,-106 "/>
<path style="fill:none;stroke:black;" d="M278,-106C284,-106 290,-112 290,-118"/>
<polyline style="fill:none;stroke:black;" points="290,-118 290,-200 "/>
<path style="fill:none;stroke:black;" d="M290,-200C290,-206 284,-212 278,-212"/>
<polyline style="fill:none;stroke:black;" points="278,-212 195,-212 "/>
<path style="fill:none;stroke:black;" d="M195,-212C189,-212 183,-206 183,-200"/>
<polyline style="fill:none;stroke:black;" points="183,-200 183,-118 "/>
<path style="fill:none;stroke:black;" d="M183,-118C183,-112 189,-106 195,-106"/>
<text text-anchor="middle" x="236" y="-195.4" style="font-family:Times New Roman;font-size:14.00;">Plot</text>
<polyline style="fill:none;stroke:black;" points="183,-186 290,-186 "/>
<text text-anchor="start" x="190.625" y="-169.4" style="font-family:Times New Roman;font-size:14.00;">name :string</text>
<text text-anchor="start" x="190.625" y="-151.4" style="font-family:Times New Roman;font-size:14.00;">color :string</text>
<text text-anchor="start" x="190.625" y="-133.4" style="font-family:Times New Roman;font-size:14.00;">style :string</text>
<text text-anchor="start" x="190.625" y="-115.4" style="font-family:Times New Roman;font-size:14.00;">smooth :boolean</text>
</g>
<!-- Graph&#45;&gt;Plot -->
<g id="edge8" class="edge"><title>Graph&#45;&gt;Plot</title>
<path style="fill:none;stroke:black;" d="M297,-240C292,-233 286,-226 281,-218"/>
<polygon style="fill:black;stroke:black;" points="297,-240 299.4,-250.7 298.8,-242.4 303,-248 298.8,-242.4 306.6,-245.3 297,-240 297,-240"/>
<ellipse style="fill:black;stroke:black;" cx="278.561" cy="-215.073" rx="4.00002" ry="4.00002"/>
</g>
<!-- Dimension -->
<g id="node6" class="node"><title>Dimension</title>
<polyline style="fill:none;stroke:black;" points="83,-399 143,-399 "/>
<path style="fill:none;stroke:black;" d="M143,-399C149,-399 155,-405 155,-411"/>
<polyline style="fill:none;stroke:black;" points="155,-411 155,-439 "/>
<path style="fill:none;stroke:black;" d="M155,-439C155,-445 149,-451 143,-451"/>
<polyline style="fill:none;stroke:black;" points="143,-451 83,-451 "/>
<path style="fill:none;stroke:black;" d="M83,-451C77,-451 71,-445 71,-439"/>
<polyline style="fill:none;stroke:black;" points="71,-439 71,-411 "/>
<path style="fill:none;stroke:black;" d="M71,-411C71,-405 77,-399 83,-399"/>
<text text-anchor="middle" x="113" y="-434.4" style="font-family:Times New Roman;font-size:14.00;">Dimension</text>
<polyline style="fill:none;stroke:black;" points="71,-425 155,-425 "/>
<text text-anchor="start" x="78.875" y="-408.4" style="font-family:Times New Roman;font-size:14.00;">name :string</text>
</g>
<!-- Dimension&#45;&gt;Unit -->
<g id="edge12" class="edge"><title>Dimension&#45;&gt;Unit</title>
<path style="fill:none;stroke:black;" d="M98,-390C93,-378 87,-365 82,-352"/>
<polygon style="fill:black;stroke:black;" points="97.9386,-389.862 97.8878,-400.828 99.157,-392.603 102,-399 99.157,-392.603 106.112,-397.172 97.9386,-389.862 97.9386,-389.862"/>
<ellipse style="fill:black;stroke:black;" cx="80.5757" cy="-348.677" rx="4.00002" ry="4.00002"/>
</g>
<!-- Stat -->
<g id="node10" class="node"><title>Stat</title>
<polyline style="fill:none;stroke:black;" points="186,-266 266,-266 "/>
<path style="fill:none;stroke:black;" d="M266,-266C272,-266 278,-272 278,-278"/>
<polyline style="fill:none;stroke:black;" points="278,-278 278,-324 "/>
<path style="fill:none;stroke:black;" d="M278,-324C278,-330 272,-336 266,-336"/>
<polyline style="fill:none;stroke:black;" points="266,-336 186,-336 "/>
<path style="fill:none;stroke:black;" d="M186,-336C180,-336 174,-330 174,-324"/>
<polyline style="fill:none;stroke:black;" points="174,-324 174,-278 "/>
<path style="fill:none;stroke:black;" d="M174,-278C174,-272 180,-266 186,-266"/>
<text text-anchor="middle" x="226" y="-319.4" style="font-family:Times New Roman;font-size:14.00;">Stat</text>
<polyline style="fill:none;stroke:black;" points="174,-310 278,-310 "/>
<text text-anchor="start" x="182.125" y="-293.4" style="font-family:Times New Roman;font-size:14.00;">name :string</text>
<text text-anchor="start" x="182.125" y="-275.4" style="font-family:Times New Roman;font-size:14.00;">description :text</text>
</g>
<!-- Dimension&#45;&gt;Stat -->
<g id="edge10" class="edge"><title>Dimension&#45;&gt;Stat</title>
<path style="fill:none;stroke:black;" d="M144,-391C157,-376 174,-358 188,-342"/>
<polygon style="fill:black;stroke:black;" points="143.585,-391.474 133.613,-396.037 141.61,-393.732 137,-399 141.61,-393.732 140.387,-401.963 143.585,-391.474 143.585,-391.474"/>
<ellipse style="fill:black;stroke:black;" cx="191.172" cy="-338.828" rx="4.00002" ry="4.00002"/>
</g>
<!-- User -->
<g id="node7" class="node"><title>User</title>
<polyline style="fill:none;stroke:black;" points="240,-390 329,-390 "/>
<path style="fill:none;stroke:black;" d="M329,-390C335,-390 341,-396 341,-402"/>
<polyline style="fill:none;stroke:black;" points="341,-402 341,-448 "/>
<path style="fill:none;stroke:black;" d="M341,-448C341,-454 335,-460 329,-460"/>
<polyline style="fill:none;stroke:black;" points="329,-460 240,-460 "/>
<path style="fill:none;stroke:black;" d="M240,-460C234,-460 228,-454 228,-448"/>
<polyline style="fill:none;stroke:black;" points="228,-448 228,-402 "/>
<path style="fill:none;stroke:black;" d="M228,-402C228,-396 234,-390 240,-390"/>
<text text-anchor="middle" x="284" y="-443.4" style="font-family:Times New Roman;font-size:14.00;">User</text>
<polyline style="fill:none;stroke:black;" points="228,-434 341,-434 "/>
<text text-anchor="start" x="235.625" y="-417.4" style="font-family:Times New Roman;font-size:14.00;">login :string</text>
<text text-anchor="start" x="235.625" y="-399.4" style="font-family:Times New Roman;font-size:14.00;">openid_url :string</text>
</g>
<!-- User&#45;&gt;Graph -->
<g id="edge18" class="edge"><title>User&#45;&gt;Graph</title>
<path style="fill:none;stroke:black;" d="M305,-381C308,-375 311,-368 314,-362"/>
<polygon style="fill:black;stroke:black;" points="305.061,-380.862 296.888,-388.172 303.843,-383.603 301,-390 303.843,-383.603 305.112,-391.828 305.061,-380.862 305.061,-380.862"/>
<ellipse style="fill:black;stroke:black;" cx="316.211" cy="-357.578" rx="4.00002" ry="4.00002"/>
</g>
<!-- Person -->
<g id="node8" class="node"><title>Person</title>
<polyline style="fill:none;stroke:black;" points="420,-266 497,-266 "/>
<path style="fill:none;stroke:black;" d="M497,-266C503,-266 509,-272 509,-278"/>
<polyline style="fill:none;stroke:black;" points="509,-278 509,-324 "/>
<path style="fill:none;stroke:black;" d="M509,-324C509,-330 503,-336 497,-336"/>
<polyline style="fill:none;stroke:black;" points="497,-336 420,-336 "/>
<path style="fill:none;stroke:black;" d="M420,-336C414,-336 408,-330 408,-324"/>
<polyline style="fill:none;stroke:black;" points="408,-324 408,-278 "/>
<path style="fill:none;stroke:black;" d="M408,-278C408,-272 414,-266 420,-266"/>
<text text-anchor="middle" x="458" y="-319.4" style="font-family:Times New Roman;font-size:14.00;">Person</text>
<polyline style="fill:none;stroke:black;" points="408,-310 509,-310 "/>
<text text-anchor="start" x="415.625" y="-293.4" style="font-family:Times New Roman;font-size:14.00;">name :string</text>
<text text-anchor="start" x="415.625" y="-275.4" style="font-family:Times New Roman;font-size:14.00;">birth_date :date</text>
</g>
<!-- User&#45;&gt;Person -->
<g id="edge14" class="edge"><title>User&#45;&gt;Person</title>
<path style="fill:none;stroke:black;" d="M350,-387C366,-376 384,-365 399,-354 404,-350 409,-346 414,-341"/>
<polygon style="fill:black;stroke:black;" points="349.742,-387.144 338.815,-388.066 347.119,-388.6 341,-392 347.119,-388.6 343.185,-395.934 349.742,-387.144 349.742,-387.144"/>
<ellipse style="fill:black;stroke:black;" cx="416.927" cy="-338.561" rx="4.00002" ry="4.00002"/>
</g>
<!-- User&#45;&gt;Stat -->
<g id="edge16" class="edge"><title>User&#45;&gt;Stat</title>
<path style="fill:none;stroke:black;" d="M264,-381C257,-369 251,-355 246,-343"/>
<polygon style="fill:black;stroke:black;" points="263.939,-380.862 263.888,-391.828 265.157,-383.603 268,-390 265.157,-383.603 272.112,-388.172 263.939,-380.862 263.939,-380.862"/>
<ellipse style="fill:black;stroke:black;" cx="243.985" cy="-339.473" rx="4.00002" ry="4.00002"/>
</g>
<!-- User&#45;&gt;UnitPref -->
<g id="edge20" class="edge"><title>User&#45;&gt;UnitPref</title>
<path style="fill:none;stroke:black;" d="M219,-399C199,-388 178,-373 165,-354 132,-305 129,-234 131,-192"/>
<polygon style="fill:black;stroke:black;" points="219.258,-399.144 225.815,-407.934 221.881,-400.6 228,-404 221.881,-400.6 230.185,-400.066 219.258,-399.144 219.258,-399.144"/>
<ellipse style="fill:black;stroke:black;" cx="131.504" cy="-187.969" rx="4.00001" ry="4.00001"/>
</g>
<!-- Person&#45;&gt;PersonGraph -->
<g id="edge22" class="edge"><title>Person&#45;&gt;PersonGraph</title>
<path style="fill:none;stroke:black;" d="M458,-256C458,-235 458,-211 458,-192"/>
<polygon style="fill:black;stroke:black;" points="458,-256 453.5,-266 458,-259 458,-266 458,-259 462.5,-266 458,-256 458,-256"/>
<ellipse style="fill:black;stroke:black;" cx="458" cy="-188" rx="4" ry="4"/>
</g>
<!-- Person&#45;&gt;Measurement -->
<g id="edge24" class="edge"><title>Person&#45;&gt;Measurement</title>
<path style="fill:none;stroke:black;" d="M426,-258C410,-236 390,-212 376,-192"/>
<polygon style="fill:black;stroke:black;" points="426,-258 428.4,-268.7 427.8,-260.4 432,-266 427.8,-260.4 435.6,-263.3 426,-258 426,-258"/>
<ellipse style="fill:black;stroke:black;" cx="373.325" cy="-188.255" rx="4.00002" ry="4.00002"/>
</g>
<!-- Stat&#45;&gt;Measurement -->
<g id="edge30" class="edge"><title>Stat&#45;&gt;Measurement</title>
<path style="fill:none;stroke:black;" d="M264,-258C283,-237 305,-211 324,-191"/>
<polygon style="fill:black;stroke:black;" points="263.585,-258.474 253.613,-263.037 261.61,-260.732 257,-266 261.61,-260.732 260.387,-268.963 263.585,-258.474 263.585,-258.474"/>
<ellipse style="fill:black;stroke:black;" cx="326.439" cy="-188.073" rx="4.00002" ry="4.00002"/>
</g>
<!-- Stat&#45;&gt;Plot -->
<g id="edge26" class="edge"><title>Stat&#45;&gt;Plot</title>
<path style="fill:none;stroke:black;" d="M229,-256C230,-245 231,-232 231,-220"/>
<polygon style="fill:black;stroke:black;" points="228.995,-256.05 223.522,-265.552 228.697,-259.035 228,-266 228.697,-259.035 232.478,-266.448 228.995,-256.05 228.995,-256.05"/>
<ellipse style="fill:black;stroke:black;" cx="231.504" cy="-215.969" rx="4.00001" ry="4.00001"/>
</g>
<!-- Stat&#45;&gt;UnitPref -->
<g id="edge28" class="edge"><title>Stat&#45;&gt;UnitPref</title>
<path style="fill:none;stroke:black;" d="M198,-258C184,-237 167,-210 154,-191"/>
<polygon style="fill:black;stroke:black;" points="197.7,-257.52 199.184,-268.385 199.29,-260.064 203,-266 199.29,-260.064 206.816,-263.615 197.7,-257.52 197.7,-257.52"/>
<ellipse style="fill:black;stroke:black;" cx="151.985" cy="-187.473" rx="4.00002" ry="4.00002"/>
</g>
</g>
</svg>
