<?xml version="1.0" encoding="UTF-8" standalone="no"?>
<!DOCTYPE svg PUBLIC "-//W3C//DTD SVG 1.0//EN"
 "http://www.w3.org/TR/2001/REC-SVG-20010904/DTD/svg10.dtd" [
 <!ATTLIST svg xmlns:xlink CDATA #FIXED "http://www.w3.org/1999/xlink">
]>
<!-- Generated by Graphviz version 2.16 (Fri Feb  8 12:54:58 UTC 2008)
     For user: (lowentropy) Nathan Matthews,,, -->
<!-- Title: models_diagram Pages: 1 -->
<svg width="463pt" height="396pt"
 viewBox="0.00 0.00 463.00 396.00" xmlns="http://www.w3.org/2000/svg" xmlns:xlink="http://www.w3.org/1999/xlink">
<g id="graph0" class="graph" transform="scale(1 1) rotate(0) translate(4 392)">
<title>models_diagram</title>
<polygon style="fill:white;stroke:white;" points="-4,4 -4,-392 459,-392 459,4 -4,4"/>
<!-- Unit -->
<g id="node1" class="node"><title>Unit</title>
<polyline style="fill:none;stroke:black;" points="12,-194 106,-194 "/>
<path style="fill:none;stroke:black;" d="M106,-194C112,-194 118,-200 118,-206"/>
<polyline style="fill:none;stroke:black;" points="118,-206 118,-270 "/>
<path style="fill:none;stroke:black;" d="M118,-270C118,-276 112,-282 106,-282"/>
<polyline style="fill:none;stroke:black;" points="106,-282 12,-282 "/>
<path style="fill:none;stroke:black;" d="M12,-282C6,-282 0,-276 0,-270"/>
<polyline style="fill:none;stroke:black;" points="0,-270 0,-206 "/>
<path style="fill:none;stroke:black;" d="M0,-206C0,-200 6,-194 12,-194"/>
<text text-anchor="middle" x="59" y="-265.4" style="font-family:Times New Roman;font-size:14.00;">Unit</text>
<polyline style="fill:none;stroke:black;" points="0,-256 118,-256 "/>
<text text-anchor="start" x="8" y="-239.4" style="font-family:Times New Roman;font-size:14.00;">long_name :string</text>
<text text-anchor="start" x="8" y="-221.4" style="font-family:Times New Roman;font-size:14.00;">short_name :string</text>
<text text-anchor="start" x="8" y="-203.4" style="font-family:Times New Roman;font-size:14.00;">multiplier :float</text>
</g>
<!-- UnitPref -->
<g id="node8" class="node"><title>UnitPref</title>
<polyline style="fill:none;stroke:black;" points="169,-107 208,-107 "/>
<path style="fill:none;stroke:black;" d="M208,-107C214,-107 220,-113 220,-119"/>
<polyline style="fill:none;stroke:black;" points="220,-119 220,-145 "/>
<path style="fill:none;stroke:black;" d="M220,-145C220,-151 214,-157 208,-157"/>
<polyline style="fill:none;stroke:black;" points="208,-157 169,-157 "/>
<path style="fill:none;stroke:black;" d="M169,-157C163,-157 157,-151 157,-145"/>
<polyline style="fill:none;stroke:black;" points="157,-145 157,-119 "/>
<path style="fill:none;stroke:black;" d="M157,-119C157,-113 163,-107 169,-107"/>
<text text-anchor="middle" x="188" y="-140.4" style="font-family:Times New Roman;font-size:14.00;">UnitPref</text>
<polyline style="fill:none;stroke:black;" points="157,-131 220,-131 "/>
</g>
<!-- Unit&#45;&gt;UnitPref -->
<g id="edge2" class="edge"><title>Unit&#45;&gt;UnitPref</title>
<path style="fill:none;stroke:black;" d="M121,-187C131,-179 141,-170 151,-162"/>
<polygon style="fill:black;stroke:black;" points="120.526,-187.415 110.037,-190.613 118.268,-189.39 113,-194 118.268,-189.39 115.963,-197.387 120.526,-187.415 120.526,-187.415"/>
<ellipse style="fill:black;stroke:black;" cx="154.745" cy="-159.325" rx="4.00002" ry="4.00002"/>
</g>
<!-- Measurement -->
<g id="node2" class="node"><title>Measurement</title>
<polyline style="fill:none;stroke:black;" points="313,-106 380,-106 "/>
<path style="fill:none;stroke:black;" d="M380,-106C386,-106 392,-112 392,-118"/>
<polyline style="fill:none;stroke:black;" points="392,-118 392,-146 "/>
<path style="fill:none;stroke:black;" d="M392,-146C392,-152 386,-158 380,-158"/>
<polyline style="fill:none;stroke:black;" points="380,-158 313,-158 "/>
<path style="fill:none;stroke:black;" d="M313,-158C307,-158 301,-152 301,-146"/>
<polyline style="fill:none;stroke:black;" points="301,-146 301,-118 "/>
<path style="fill:none;stroke:black;" d="M301,-118C301,-112 307,-106 313,-106"/>
<text text-anchor="middle" x="346" y="-141.4" style="font-family:Times New Roman;font-size:14.00;">Measurement</text>
<polyline style="fill:none;stroke:black;" points="301,-132 392,-132 "/>
<text text-anchor="start" x="308.75" y="-115.4" style="font-family:Times New Roman;font-size:14.00;">value :float</text>
</g>
<!-- Log -->
<g id="node3" class="node"><title>Log</title>
<polyline style="fill:none;stroke:black;" points="327,-0 443,-0 "/>
<path style="fill:none;stroke:black;" d="M443,-0C449,-0 455,-6 455,-12"/>
<polyline style="fill:none;stroke:black;" points="455,-12 455,-58 "/>
<path style="fill:none;stroke:black;" d="M455,-58C455,-64 449,-70 443,-70"/>
<polyline style="fill:none;stroke:black;" points="443,-70 327,-70 "/>
<path style="fill:none;stroke:black;" d="M327,-70C321,-70 315,-64 315,-58"/>
<polyline style="fill:none;stroke:black;" points="315,-58 315,-12 "/>
<path style="fill:none;stroke:black;" d="M315,-12C315,-6 321,-0 327,-0"/>
<text text-anchor="middle" x="385" y="-53.4" style="font-family:Times New Roman;font-size:14.00;">Log</text>
<polyline style="fill:none;stroke:black;" points="315,-44 455,-44 "/>
<text text-anchor="start" x="323.125" y="-27.4" style="font-family:Times New Roman;font-size:14.00;">measured_at :datetime</text>
<text text-anchor="start" x="323.125" y="-9.4" style="font-family:Times New Roman;font-size:14.00;">notes :text</text>
</g>
<!-- Measurement&#45;&gt;Log -->
<g id="edge4" class="edge"><title>Measurement&#45;&gt;Log</title>
<path style="fill:none;stroke:black;" d="M360,-97C363,-91 365,-84 368,-78"/>
<polygon style="fill:black;stroke:black;" points="360.162,-96.5132 352.731,-104.577 359.214,-99.3592 357,-106 359.214,-99.3592 361.269,-107.423 360.162,-96.5132 360.162,-96.5132"/>
<ellipse style="fill:black;stroke:black;" cx="369.595" cy="-73.7453" rx="4.00001" ry="4.00001"/>
</g>
<!-- Dimension -->
<g id="node4" class="node"><title>Dimension</title>
<polyline style="fill:none;stroke:black;" points="93,-327 153,-327 "/>
<path style="fill:none;stroke:black;" d="M153,-327C159,-327 165,-333 165,-339"/>
<polyline style="fill:none;stroke:black;" points="165,-339 165,-367 "/>
<path style="fill:none;stroke:black;" d="M165,-367C165,-373 159,-379 153,-379"/>
<polyline style="fill:none;stroke:black;" points="153,-379 93,-379 "/>
<path style="fill:none;stroke:black;" d="M93,-379C87,-379 81,-373 81,-367"/>
<polyline style="fill:none;stroke:black;" points="81,-367 81,-339 "/>
<path style="fill:none;stroke:black;" d="M81,-339C81,-333 87,-327 93,-327"/>
<text text-anchor="middle" x="123" y="-362.4" style="font-family:Times New Roman;font-size:14.00;">Dimension</text>
<polyline style="fill:none;stroke:black;" points="81,-353 165,-353 "/>
<text text-anchor="start" x="88.875" y="-336.4" style="font-family:Times New Roman;font-size:14.00;">name :string</text>
</g>
<!-- Dimension&#45;&gt;Unit -->
<g id="edge8" class="edge"><title>Dimension&#45;&gt;Unit</title>
<path style="fill:none;stroke:black;" d="M103,-318C98,-309 93,-299 88,-289"/>
<polygon style="fill:black;stroke:black;" points="103.144,-318.258 104.066,-329.185 104.6,-320.881 108,-327 104.6,-320.881 111.934,-324.815 103.144,-318.258 103.144,-318.258"/>
<ellipse style="fill:black;stroke:black;" cx="85.9846" cy="-285.473" rx="4.00002" ry="4.00002"/>
</g>
<!-- Stat -->
<g id="node7" class="node"><title>Stat</title>
<polyline style="fill:none;stroke:black;" points="148,-203 228,-203 "/>
<path style="fill:none;stroke:black;" d="M228,-203C234,-203 240,-209 240,-215"/>
<polyline style="fill:none;stroke:black;" points="240,-215 240,-261 "/>
<path style="fill:none;stroke:black;" d="M240,-261C240,-267 234,-273 228,-273"/>
<polyline style="fill:none;stroke:black;" points="228,-273 148,-273 "/>
<path style="fill:none;stroke:black;" d="M148,-273C142,-273 136,-267 136,-261"/>
<polyline style="fill:none;stroke:black;" points="136,-261 136,-215 "/>
<path style="fill:none;stroke:black;" d="M136,-215C136,-209 142,-203 148,-203"/>
<text text-anchor="middle" x="188" y="-256.4" style="font-family:Times New Roman;font-size:14.00;">Stat</text>
<polyline style="fill:none;stroke:black;" points="136,-247 240,-247 "/>
<text text-anchor="start" x="144.125" y="-230.4" style="font-family:Times New Roman;font-size:14.00;">name :string</text>
<text text-anchor="start" x="144.125" y="-212.4" style="font-family:Times New Roman;font-size:14.00;">description :text</text>
</g>
<!-- Dimension&#45;&gt;Stat -->
<g id="edge6" class="edge"><title>Dimension&#45;&gt;Stat</title>
<path style="fill:none;stroke:black;" d="M143,-318C150,-306 157,-293 164,-280"/>
<polygon style="fill:black;stroke:black;" points="142.856,-318.258 134.066,-324.815 141.4,-320.881 138,-327 141.4,-320.881 141.934,-329.185 142.856,-318.258 142.856,-318.258"/>
<ellipse style="fill:black;stroke:black;" cx="166.015" cy="-276.473" rx="4.00002" ry="4.00002"/>
</g>
<!-- User -->
<g id="node5" class="node"><title>User</title>
<polyline style="fill:none;stroke:black;" points="302,-318 391,-318 "/>
<path style="fill:none;stroke:black;" d="M391,-318C397,-318 403,-324 403,-330"/>
<polyline style="fill:none;stroke:black;" points="403,-330 403,-376 "/>
<path style="fill:none;stroke:black;" d="M403,-376C403,-382 397,-388 391,-388"/>
<polyline style="fill:none;stroke:black;" points="391,-388 302,-388 "/>
<path style="fill:none;stroke:black;" d="M302,-388C296,-388 290,-382 290,-376"/>
<polyline style="fill:none;stroke:black;" points="290,-376 290,-330 "/>
<path style="fill:none;stroke:black;" d="M290,-330C290,-324 296,-318 302,-318"/>
<text text-anchor="middle" x="346" y="-371.4" style="font-family:Times New Roman;font-size:14.00;">User</text>
<polyline style="fill:none;stroke:black;" points="290,-362 403,-362 "/>
<text text-anchor="start" x="297.625" y="-345.4" style="font-family:Times New Roman;font-size:14.00;">login :string</text>
<text text-anchor="start" x="297.625" y="-327.4" style="font-family:Times New Roman;font-size:14.00;">openid_url :string</text>
</g>
<!-- User&#45;&gt;Log -->
<g id="edge10" class="edge"><title>User&#45;&gt;Log</title>
<path style="fill:none;stroke:black;" d="M389,-310C396,-301 401,-292 405,-282 430,-214 413,-128 399,-78"/>
<polygon style="fill:black;stroke:black;" points="389,-310 379.4,-315.3 387.2,-312.4 383,-318 387.2,-312.4 386.6,-320.7 389,-310 389,-310"/>
<ellipse style="fill:black;stroke:black;" cx="397.97" cy="-73.8806" rx="4.00001" ry="4.00001"/>
</g>
<!-- Person -->
<g id="node6" class="node"><title>Person</title>
<polyline style="fill:none;stroke:black;" points="308,-203 385,-203 "/>
<path style="fill:none;stroke:black;" d="M385,-203C391,-203 397,-209 397,-215"/>
<polyline style="fill:none;stroke:black;" points="397,-215 397,-261 "/>
<path style="fill:none;stroke:black;" d="M397,-261C397,-267 391,-273 385,-273"/>
<polyline style="fill:none;stroke:black;" points="385,-273 308,-273 "/>
<path style="fill:none;stroke:black;" d="M308,-273C302,-273 296,-267 296,-261"/>
<polyline style="fill:none;stroke:black;" points="296,-261 296,-215 "/>
<path style="fill:none;stroke:black;" d="M296,-215C296,-209 302,-203 308,-203"/>
<text text-anchor="middle" x="346" y="-256.4" style="font-family:Times New Roman;font-size:14.00;">Person</text>
<polyline style="fill:none;stroke:black;" points="296,-247 397,-247 "/>
<text text-anchor="start" x="303.625" y="-230.4" style="font-family:Times New Roman;font-size:14.00;">name :string</text>
<text text-anchor="start" x="303.625" y="-212.4" style="font-family:Times New Roman;font-size:14.00;">birth_date :date</text>
</g>
<!-- User&#45;&gt;Person -->
<g id="edge12" class="edge"><title>User&#45;&gt;Person</title>
<path style="fill:none;stroke:black;" d="M346,-308C346,-299 346,-290 346,-281"/>
<polygon style="fill:black;stroke:black;" points="346,-308 341.5,-318 346,-311 346,-318 346,-311 350.5,-318 346,-308 346,-308"/>
<ellipse style="fill:black;stroke:black;" cx="346" cy="-277" rx="4" ry="4"/>
</g>
<!-- User&#45;&gt;UnitPref -->
<g id="edge14" class="edge"><title>User&#45;&gt;UnitPref</title>
<path style="fill:none;stroke:black;" d="M307,-310C300,-301 293,-291 287,-282 264,-245 272,-229 249,-194 242,-182 232,-172 223,-163"/>
<polygon style="fill:black;stroke:black;" points="307.415,-310.474 310.613,-320.963 309.39,-312.732 314,-318 309.39,-312.732 317.387,-315.037 307.415,-310.474 307.415,-310.474"/>
<ellipse style="fill:black;stroke:black;" cx="219.828" cy="-159.828" rx="4.00002" ry="4.00002"/>
</g>
<!-- Person&#45;&gt;Measurement -->
<g id="edge16" class="edge"><title>Person&#45;&gt;Measurement</title>
<path style="fill:none;stroke:black;" d="M346,-193C346,-184 346,-175 346,-166"/>
<polygon style="fill:black;stroke:black;" points="346,-193 341.5,-203 346,-196 346,-203 346,-196 350.5,-203 346,-193 346,-193"/>
<ellipse style="fill:black;stroke:black;" cx="346" cy="-162" rx="4" ry="4"/>
</g>
<!-- Stat&#45;&gt;Measurement -->
<g id="edge18" class="edge"><title>Stat&#45;&gt;Measurement</title>
<path style="fill:none;stroke:black;" d="M248,-197C266,-186 285,-173 300,-163"/>
<polygon style="fill:black;stroke:black;" points="248,-197 237.3,-199.4 245.6,-198.8 240,-203 245.6,-198.8 242.7,-206.6 248,-197 248,-197"/>
<ellipse style="fill:black;stroke:black;" cx="303.745" cy="-160.325" rx="4.00002" ry="4.00002"/>
</g>
<!-- Stat&#45;&gt;UnitPref -->
<g id="edge20" class="edge"><title>Stat&#45;&gt;UnitPref</title>
<path style="fill:none;stroke:black;" d="M188,-193C188,-184 188,-174 188,-165"/>
<polygon style="fill:black;stroke:black;" points="188,-193 183.5,-203 188,-196 188,-203 188,-196 192.5,-203 188,-193 188,-193"/>
<ellipse style="fill:black;stroke:black;" cx="188" cy="-161" rx="4" ry="4"/>
</g>
</g>
</svg>
