<?xml version="1.0" encoding="UTF-8" standalone="no"?>
<!DOCTYPE svg PUBLIC "-//W3C//DTD SVG 1.0//EN"
 "http://www.w3.org/TR/2001/REC-SVG-20010904/DTD/svg10.dtd" [
 <!ATTLIST svg xmlns:xlink CDATA #FIXED "http://www.w3.org/1999/xlink">
]>
<!-- Generated by Graphviz version 2.16 (Fri Feb  8 12:54:58 UTC 2008)
     For user: (lowentropy) Nathan Matthews,,, -->
<!-- Title: models_diagram Pages: 1 -->
<svg width="572pt" height="574pt"
 viewBox="0.00 0.00 572.00 574.00" xmlns="http://www.w3.org/2000/svg" xmlns:xlink="http://www.w3.org/1999/xlink">
<g id="graph0" class="graph" transform="scale(1 1) rotate(0) translate(4 570)">
<title>models_diagram</title>
<polygon style="fill:white;stroke:white;" points="-4,4 -4,-570 568,-570 568,4 -4,4"/>
<!-- Unit -->
<g id="node1" class="node"><title>Unit</title>
<polyline style="fill:none;stroke:black;" points="77,-115 171,-115 "/>
<path style="fill:none;stroke:black;" d="M171,-115C177,-115 183,-121 183,-127"/>
<polyline style="fill:none;stroke:black;" points="183,-127 183,-191 "/>
<path style="fill:none;stroke:black;" d="M183,-191C183,-197 177,-203 171,-203"/>
<polyline style="fill:none;stroke:black;" points="171,-203 77,-203 "/>
<path style="fill:none;stroke:black;" d="M77,-203C71,-203 65,-197 65,-191"/>
<polyline style="fill:none;stroke:black;" points="65,-191 65,-127 "/>
<path style="fill:none;stroke:black;" d="M65,-127C65,-121 71,-115 77,-115"/>
<text text-anchor="middle" x="124" y="-186.4" style="font-family:Times New Roman;font-size:14.00;">Unit</text>
<polyline style="fill:none;stroke:black;" points="65,-177 183,-177 "/>
<text text-anchor="start" x="73" y="-160.4" style="font-family:Times New Roman;font-size:14.00;">long_name :string</text>
<text text-anchor="start" x="73" y="-142.4" style="font-family:Times New Roman;font-size:14.00;">short_name :string</text>
<text text-anchor="start" x="73" y="-124.4" style="font-family:Times New Roman;font-size:14.00;">multiplier :float</text>
</g>
<!-- UnitPref -->
<g id="node11" class="node"><title>UnitPref</title>
<polyline style="fill:none;stroke:black;" points="169,-10 208,-10 "/>
<path style="fill:none;stroke:black;" d="M208,-10C214,-10 220,-16 220,-22"/>
<polyline style="fill:none;stroke:black;" points="220,-22 220,-48 "/>
<path style="fill:none;stroke:black;" d="M220,-48C220,-54 214,-60 208,-60"/>
<polyline style="fill:none;stroke:black;" points="208,-60 169,-60 "/>
<path style="fill:none;stroke:black;" d="M169,-60C163,-60 157,-54 157,-48"/>
<polyline style="fill:none;stroke:black;" points="157,-48 157,-22 "/>
<path style="fill:none;stroke:black;" d="M157,-22C157,-16 163,-10 169,-10"/>
<text text-anchor="middle" x="188" y="-43.4" style="font-family:Times New Roman;font-size:14.00;">UnitPref</text>
<polyline style="fill:none;stroke:black;" points="157,-34 220,-34 "/>
</g>
<!-- Unit&#45;&gt;UnitPref -->
<g id="edge2" class="edge"><title>Unit&#45;&gt;UnitPref</title>
<path style="fill:none;stroke:black;" d="M152,-106C159,-93 165,-79 171,-67"/>
<polygon style="fill:black;stroke:black;" points="151.856,-106.258 143.066,-112.815 150.4,-108.881 147,-115 150.4,-108.881 150.934,-117.185 151.856,-106.258 151.856,-106.258"/>
<ellipse style="fill:black;stroke:black;" cx="173.015" cy="-63.473" rx="4.00002" ry="4.00002"/>
</g>
<!-- PersonStat -->
<g id="node12" class="node"><title>PersonStat</title>
<polyline style="fill:none;stroke:black;" points="12,-10 62,-10 "/>
<path style="fill:none;stroke:black;" d="M62,-10C68,-10 74,-16 74,-22"/>
<polyline style="fill:none;stroke:black;" points="74,-22 74,-48 "/>
<path style="fill:none;stroke:black;" d="M74,-48C74,-54 68,-60 62,-60"/>
<polyline style="fill:none;stroke:black;" points="62,-60 12,-60 "/>
<path style="fill:none;stroke:black;" d="M12,-60C6,-60 0,-54 0,-48"/>
<polyline style="fill:none;stroke:black;" points="0,-48 0,-22 "/>
<path style="fill:none;stroke:black;" d="M0,-22C0,-16 6,-10 12,-10"/>
<text text-anchor="middle" x="37" y="-43.4" style="font-family:Times New Roman;font-size:14.00;">PersonStat</text>
<polyline style="fill:none;stroke:black;" points="0,-34 74,-34 "/>
</g>
<!-- Unit&#45;&gt;PersonStat -->
<g id="edge4" class="edge"><title>Unit&#45;&gt;PersonStat</title>
<path style="fill:none;stroke:black;" d="M87,-106C78,-93 68,-79 59,-67"/>
<polygon style="fill:black;stroke:black;" points="87.453,-106.679 89.2558,-117.496 89.1171,-109.176 93,-115 89.1171,-109.176 96.7442,-112.504 87.453,-106.679 87.453,-106.679"/>
<ellipse style="fill:black;stroke:black;" cx="56.9846" cy="-63.473" rx="4.00002" ry="4.00002"/>
</g>
<!-- PersonGraph -->
<g id="node2" class="node"><title>PersonGraph</title>
<polyline style="fill:none;stroke:black;" points="324,-258 387,-258 "/>
<path style="fill:none;stroke:black;" d="M387,-258C393,-258 399,-264 399,-270"/>
<polyline style="fill:none;stroke:black;" points="399,-270 399,-296 "/>
<path style="fill:none;stroke:black;" d="M399,-296C399,-302 393,-308 387,-308"/>
<polyline style="fill:none;stroke:black;" points="387,-308 324,-308 "/>
<path style="fill:none;stroke:black;" d="M324,-308C318,-308 312,-302 312,-296"/>
<polyline style="fill:none;stroke:black;" points="312,-296 312,-270 "/>
<path style="fill:none;stroke:black;" d="M312,-270C312,-264 318,-258 324,-258"/>
<text text-anchor="middle" x="355" y="-291.4" style="font-family:Times New Roman;font-size:14.00;">PersonGraph</text>
<polyline style="fill:none;stroke:black;" points="312,-282 399,-282 "/>
</g>
<!-- Measurement -->
<g id="node3" class="node"><title>Measurement</title>
<polyline style="fill:none;stroke:black;" points="251,-133 318,-133 "/>
<path style="fill:none;stroke:black;" d="M318,-133C324,-133 330,-139 330,-145"/>
<polyline style="fill:none;stroke:black;" points="330,-145 330,-173 "/>
<path style="fill:none;stroke:black;" d="M330,-173C330,-179 324,-185 318,-185"/>
<polyline style="fill:none;stroke:black;" points="318,-185 251,-185 "/>
<path style="fill:none;stroke:black;" d="M251,-185C245,-185 239,-179 239,-173"/>
<polyline style="fill:none;stroke:black;" points="239,-173 239,-145 "/>
<path style="fill:none;stroke:black;" d="M239,-145C239,-139 245,-133 251,-133"/>
<text text-anchor="middle" x="284" y="-168.4" style="font-family:Times New Roman;font-size:14.00;">Measurement</text>
<polyline style="fill:none;stroke:black;" points="239,-159 330,-159 "/>
<text text-anchor="start" x="246.75" y="-142.4" style="font-family:Times New Roman;font-size:14.00;">value :float</text>
</g>
<!-- Log -->
<g id="node5" class="node"><title>Log</title>
<polyline style="fill:none;stroke:black;" points="249,-0 365,-0 "/>
<path style="fill:none;stroke:black;" d="M365,-0C371,-0 377,-6 377,-12"/>
<polyline style="fill:none;stroke:black;" points="377,-12 377,-58 "/>
<path style="fill:none;stroke:black;" d="M377,-58C377,-64 371,-70 365,-70"/>
<polyline style="fill:none;stroke:black;" points="365,-70 249,-70 "/>
<path style="fill:none;stroke:black;" d="M249,-70C243,-70 237,-64 237,-58"/>
<polyline style="fill:none;stroke:black;" points="237,-58 237,-12 "/>
<path style="fill:none;stroke:black;" d="M237,-12C237,-6 243,-0 249,-0"/>
<text text-anchor="middle" x="307" y="-53.4" style="font-family:Times New Roman;font-size:14.00;">Log</text>
<polyline style="fill:none;stroke:black;" points="237,-44 377,-44 "/>
<text text-anchor="start" x="245.125" y="-27.4" style="font-family:Times New Roman;font-size:14.00;">measured_at :datetime</text>
<text text-anchor="start" x="245.125" y="-9.4" style="font-family:Times New Roman;font-size:14.00;">notes :text</text>
</g>
<!-- Measurement&#45;&gt;Log -->
<g id="edge6" class="edge"><title>Measurement&#45;&gt;Log</title>
<path style="fill:none;stroke:black;" d="M291,-123C294,-110 297,-93 300,-78"/>
<polygon style="fill:black;stroke:black;" points="290.961,-123.194 284.587,-132.117 290.373,-126.136 289,-133 290.373,-126.136 293.413,-133.883 290.961,-123.194 290.961,-123.194"/>
<ellipse style="fill:black;stroke:black;" cx="300.504" cy="-73.9691" rx="4.00001" ry="4.00001"/>
</g>
<!-- Graph -->
<g id="node4" class="node"><title>Graph</title>
<polyline style="fill:none;stroke:black;" points="363,-354 434,-354 "/>
<path style="fill:none;stroke:black;" d="M434,-354C440,-354 446,-360 446,-366"/>
<polyline style="fill:none;stroke:black;" points="446,-366 446,-448 "/>
<path style="fill:none;stroke:black;" d="M446,-448C446,-454 440,-460 434,-460"/>
<polyline style="fill:none;stroke:black;" points="434,-460 363,-460 "/>
<path style="fill:none;stroke:black;" d="M363,-460C357,-460 351,-454 351,-448"/>
<polyline style="fill:none;stroke:black;" points="351,-448 351,-366 "/>
<path style="fill:none;stroke:black;" d="M351,-366C351,-360 357,-354 363,-354"/>
<text text-anchor="middle" x="398" y="-443.4" style="font-family:Times New Roman;font-size:14.00;">Graph</text>
<polyline style="fill:none;stroke:black;" points="351,-434 446,-434 "/>
<text text-anchor="start" x="358.625" y="-417.4" style="font-family:Times New Roman;font-size:14.00;">title :string</text>
<text text-anchor="start" x="358.625" y="-399.4" style="font-family:Times New Roman;font-size:14.00;">ylabel :string</text>
<text text-anchor="start" x="358.625" y="-381.4" style="font-family:Times New Roman;font-size:14.00;">width :integer</text>
<text text-anchor="start" x="358.625" y="-363.4" style="font-family:Times New Roman;font-size:14.00;">height :integer</text>
</g>
<!-- Graph&#45;&gt;PersonGraph -->
<g id="edge8" class="edge"><title>Graph&#45;&gt;PersonGraph</title>
<path style="fill:none;stroke:black;" d="M376,-345C373,-335 369,-325 366,-316"/>
<polygon style="fill:black;stroke:black;" points="375.939,-344.862 375.888,-355.828 377.157,-347.603 380,-354 377.157,-347.603 384.112,-352.172 375.939,-344.862 375.939,-344.862"/>
<ellipse style="fill:black;stroke:black;" cx="364.97" cy="-311.881" rx="4.00001" ry="4.00001"/>
</g>
<!-- Plot -->
<g id="node9" class="node"><title>Plot</title>
<polyline style="fill:none;stroke:black;" points="359,-106 442,-106 "/>
<path style="fill:none;stroke:black;" d="M442,-106C448,-106 454,-112 454,-118"/>
<polyline style="fill:none;stroke:black;" points="454,-118 454,-200 "/>
<path style="fill:none;stroke:black;" d="M454,-200C454,-206 448,-212 442,-212"/>
<polyline style="fill:none;stroke:black;" points="442,-212 359,-212 "/>
<path style="fill:none;stroke:black;" d="M359,-212C353,-212 347,-206 347,-200"/>
<polyline style="fill:none;stroke:black;" points="347,-200 347,-118 "/>
<path style="fill:none;stroke:black;" d="M347,-118C347,-112 353,-106 359,-106"/>
<text text-anchor="middle" x="400" y="-195.4" style="font-family:Times New Roman;font-size:14.00;">Plot</text>
<polyline style="fill:none;stroke:black;" points="347,-186 454,-186 "/>
<text text-anchor="start" x="354.625" y="-169.4" style="font-family:Times New Roman;font-size:14.00;">name :string</text>
<text text-anchor="start" x="354.625" y="-151.4" style="font-family:Times New Roman;font-size:14.00;">color :string</text>
<text text-anchor="start" x="354.625" y="-133.4" style="font-family:Times New Roman;font-size:14.00;">style :string</text>
<text text-anchor="start" x="354.625" y="-115.4" style="font-family:Times New Roman;font-size:14.00;">smooth :boolean</text>
</g>
<!-- Graph&#45;&gt;Plot -->
<g id="edge10" class="edge"><title>Graph&#45;&gt;Plot</title>
<path style="fill:none;stroke:black;" d="M405,-344C406,-335 406,-326 407,-318 408,-286 408,-279 407,-248 406,-239 406,-229 406,-220"/>
<polygon style="fill:black;stroke:black;" points="404.995,-344.05 399.522,-353.552 404.697,-347.035 404,-354 404.697,-347.035 408.478,-354.448 404.995,-344.05 404.995,-344.05"/>
<ellipse style="fill:black;stroke:black;" cx="405.496" cy="-215.969" rx="4.00001" ry="4.00001"/>
</g>
<!-- Dimension -->
<g id="node6" class="node"><title>Dimension</title>
<polyline style="fill:none;stroke:black;" points="99,-381 159,-381 "/>
<path style="fill:none;stroke:black;" d="M159,-381C165,-381 171,-387 171,-393"/>
<polyline style="fill:none;stroke:black;" points="171,-393 171,-421 "/>
<path style="fill:none;stroke:black;" d="M171,-421C171,-427 165,-433 159,-433"/>
<polyline style="fill:none;stroke:black;" points="159,-433 99,-433 "/>
<path style="fill:none;stroke:black;" d="M99,-433C93,-433 87,-427 87,-421"/>
<polyline style="fill:none;stroke:black;" points="87,-421 87,-393 "/>
<path style="fill:none;stroke:black;" d="M87,-393C87,-387 93,-381 99,-381"/>
<text text-anchor="middle" x="129" y="-416.4" style="font-family:Times New Roman;font-size:14.00;">Dimension</text>
<polyline style="fill:none;stroke:black;" points="87,-407 171,-407 "/>
<text text-anchor="start" x="94.875" y="-390.4" style="font-family:Times New Roman;font-size:14.00;">name :string</text>
</g>
<!-- Dimension&#45;&gt;Unit -->
<g id="edge12" class="edge"><title>Dimension&#45;&gt;Unit</title>
<path style="fill:none;stroke:black;" d="M128,-371C127,-329 126,-259 125,-211"/>
<polygon style="fill:black;stroke:black;" points="128,-371 123.5,-381 128,-374 128,-381 128,-374 132.5,-381 128,-371 128,-371"/>
<ellipse style="fill:black;stroke:black;" cx="125" cy="-207" rx="4" ry="4"/>
</g>
<!-- Stat -->
<g id="node10" class="node"><title>Stat</title>
<polyline style="fill:none;stroke:black;" points="164,-248 244,-248 "/>
<path style="fill:none;stroke:black;" d="M244,-248C250,-248 256,-254 256,-260"/>
<polyline style="fill:none;stroke:black;" points="256,-260 256,-306 "/>
<path style="fill:none;stroke:black;" d="M256,-306C256,-312 250,-318 244,-318"/>
<polyline style="fill:none;stroke:black;" points="244,-318 164,-318 "/>
<path style="fill:none;stroke:black;" d="M164,-318C158,-318 152,-312 152,-306"/>
<polyline style="fill:none;stroke:black;" points="152,-306 152,-260 "/>
<path style="fill:none;stroke:black;" d="M152,-260C152,-254 158,-248 164,-248"/>
<text text-anchor="middle" x="204" y="-301.4" style="font-family:Times New Roman;font-size:14.00;">Stat</text>
<polyline style="fill:none;stroke:black;" points="152,-292 256,-292 "/>
<text text-anchor="start" x="160.125" y="-275.4" style="font-family:Times New Roman;font-size:14.00;">name :string</text>
<text text-anchor="start" x="160.125" y="-257.4" style="font-family:Times New Roman;font-size:14.00;">description :text</text>
</g>
<!-- Dimension&#45;&gt;Stat -->
<g id="edge14" class="edge"><title>Dimension&#45;&gt;Stat</title>
<path style="fill:none;stroke:black;" d="M150,-372C160,-357 170,-340 179,-325"/>
<polygon style="fill:black;stroke:black;" points="149.856,-372.258 141.066,-378.815 148.4,-374.881 145,-381 148.4,-374.881 148.934,-383.185 149.856,-372.258 149.856,-372.258"/>
<ellipse style="fill:black;stroke:black;" cx="181.015" cy="-321.473" rx="4.00002" ry="4.00002"/>
</g>
<!-- User -->
<g id="node7" class="node"><title>User</title>
<polyline style="fill:none;stroke:black;" points="296,-496 385,-496 "/>
<path style="fill:none;stroke:black;" d="M385,-496C391,-496 397,-502 397,-508"/>
<polyline style="fill:none;stroke:black;" points="397,-508 397,-554 "/>
<path style="fill:none;stroke:black;" d="M397,-554C397,-560 391,-566 385,-566"/>
<polyline style="fill:none;stroke:black;" points="385,-566 296,-566 "/>
<path style="fill:none;stroke:black;" d="M296,-566C290,-566 284,-560 284,-554"/>
<polyline style="fill:none;stroke:black;" points="284,-554 284,-508 "/>
<path style="fill:none;stroke:black;" d="M284,-508C284,-502 290,-496 296,-496"/>
<text text-anchor="middle" x="340" y="-549.4" style="font-family:Times New Roman;font-size:14.00;">User</text>
<polyline style="fill:none;stroke:black;" points="284,-540 397,-540 "/>
<text text-anchor="start" x="291.625" y="-523.4" style="font-family:Times New Roman;font-size:14.00;">login :string</text>
<text text-anchor="start" x="291.625" y="-505.4" style="font-family:Times New Roman;font-size:14.00;">openid_url :string</text>
</g>
<!-- User&#45;&gt;Graph -->
<g id="edge16" class="edge"><title>User&#45;&gt;Graph</title>
<path style="fill:none;stroke:black;" d="M360,-487C363,-481 366,-474 369,-468"/>
<polygon style="fill:black;stroke:black;" points="360.061,-486.862 351.888,-494.172 358.843,-489.603 356,-496 358.843,-489.603 360.112,-497.828 360.061,-486.862 360.061,-486.862"/>
<ellipse style="fill:black;stroke:black;" cx="371.211" cy="-463.578" rx="4.00002" ry="4.00002"/>
</g>
<!-- Person -->
<g id="node8" class="node"><title>Person</title>
<polyline style="fill:none;stroke:black;" points="245,-372 322,-372 "/>
<path style="fill:none;stroke:black;" d="M322,-372C328,-372 334,-378 334,-384"/>
<polyline style="fill:none;stroke:black;" points="334,-384 334,-430 "/>
<path style="fill:none;stroke:black;" d="M334,-430C334,-436 328,-442 322,-442"/>
<polyline style="fill:none;stroke:black;" points="322,-442 245,-442 "/>
<path style="fill:none;stroke:black;" d="M245,-442C239,-442 233,-436 233,-430"/>
<polyline style="fill:none;stroke:black;" points="233,-430 233,-384 "/>
<path style="fill:none;stroke:black;" d="M233,-384C233,-378 239,-372 245,-372"/>
<text text-anchor="middle" x="283" y="-425.4" style="font-family:Times New Roman;font-size:14.00;">Person</text>
<polyline style="fill:none;stroke:black;" points="233,-416 334,-416 "/>
<text text-anchor="start" x="240.625" y="-399.4" style="font-family:Times New Roman;font-size:14.00;">name :string</text>
<text text-anchor="start" x="240.625" y="-381.4" style="font-family:Times New Roman;font-size:14.00;">birth_date :date</text>
</g>
<!-- User&#45;&gt;Person -->
<g id="edge22" class="edge"><title>User&#45;&gt;Person</title>
<path style="fill:none;stroke:black;" d="M320,-487C314,-475 308,-461 303,-449"/>
<polygon style="fill:black;stroke:black;" points="319.939,-486.862 319.888,-497.828 321.157,-489.603 324,-496 321.157,-489.603 328.112,-494.172 319.939,-486.862 319.939,-486.862"/>
<ellipse style="fill:black;stroke:black;" cx="300.985" cy="-445.473" rx="4.00002" ry="4.00002"/>
</g>
<!-- User&#45;&gt;Stat -->
<g id="edge18" class="edge"><title>User&#45;&gt;Stat</title>
<path style="fill:none;stroke:black;" d="M275,-504C256,-494 236,-479 224,-460 199,-420 196,-364 198,-326"/>
<polygon style="fill:black;stroke:black;" points="275.258,-504.144 281.815,-512.934 277.881,-505.6 284,-509 277.881,-505.6 286.185,-505.066 275.258,-504.144 275.258,-504.144"/>
<ellipse style="fill:black;stroke:black;" cx="198.504" cy="-321.969" rx="4.00001" ry="4.00001"/>
</g>
<!-- User&#45;&gt;UnitPref -->
<g id="edge20" class="edge"><title>User&#45;&gt;UnitPref</title>
<path style="fill:none;stroke:black;" d="M406,-504C425,-494 443,-479 454,-460 532,-323 564,-225 462,-106 393,-26 323,-114 228,-70 225,-69 222,-67 218,-65"/>
<polygon style="fill:black;stroke:black;" points="405.742,-504.144 394.815,-505.066 403.119,-505.6 397,-509 403.119,-505.6 399.185,-512.934 405.742,-504.144 405.742,-504.144"/>
<ellipse style="fill:black;stroke:black;" cx="215.073" cy="-62.5608" rx="4.00002" ry="4.00002"/>
</g>
<!-- Person&#45;&gt;PersonGraph -->
<g id="edge30" class="edge"><title>Person&#45;&gt;PersonGraph</title>
<path style="fill:none;stroke:black;" d="M308,-363C317,-347 328,-330 337,-315"/>
<polygon style="fill:black;stroke:black;" points="307.856,-363.258 299.066,-369.815 306.4,-365.881 303,-372 306.4,-365.881 306.934,-374.185 307.856,-363.258 307.856,-363.258"/>
<ellipse style="fill:black;stroke:black;" cx="339.015" cy="-311.473" rx="4.00002" ry="4.00002"/>
</g>
<!-- Person&#45;&gt;Measurement -->
<g id="edge28" class="edge"><title>Person&#45;&gt;Measurement</title>
<path style="fill:none;stroke:black;" d="M283,-362C283,-313 284,-237 284,-193"/>
<polygon style="fill:black;stroke:black;" points="283,-362 278.5,-372 283,-365 283,-372 283,-365 287.5,-372 283,-362 283,-362"/>
<ellipse style="fill:black;stroke:black;" cx="284" cy="-189" rx="4" ry="4"/>
</g>
<!-- Person&#45;&gt;Stat -->
<g id="edge24" class="edge"><title>Person&#45;&gt;Stat</title>
<path style="fill:none;stroke:black;" d="M255,-363C248,-352 239,-339 231,-327"/>
<polygon style="fill:black;stroke:black;" points="255.453,-363.679 257.256,-374.496 257.117,-366.176 261,-372 257.117,-366.176 264.744,-369.504 255.453,-363.679 255.453,-363.679"/>
<polygon style="fill:black;stroke:black;" points="230.856,-326.742 229.934,-315.815 229.4,-324.119 226,-318 229.4,-324.119 222.066,-320.185 230.856,-326.742 230.856,-326.742"/>
</g>
<!-- Person&#45;&gt;PersonStat -->
<g id="edge26" class="edge"><title>Person&#45;&gt;PersonStat</title>
<path style="fill:none;stroke:black;" d="M224,-372C155,-329 46,-255 27,-212 7,-165 17,-104 27,-68"/>
<polygon style="fill:black;stroke:black;" points="224.258,-372.144 230.815,-380.934 226.881,-373.6 233,-377 226.881,-373.6 235.185,-373.066 224.258,-372.144 224.258,-372.144"/>
<ellipse style="fill:black;stroke:black;" cx="28.0298" cy="-63.8806" rx="4.00001" ry="4.00001"/>
</g>
<!-- Stat&#45;&gt;Unit -->
<g id="edge32" class="edge"><title>Stat&#45;&gt;Unit</title>
<path style="fill:none;stroke:black;" d="M175,-239C170,-231 164,-221 158,-212"/>
<polygon style="fill:black;stroke:black;" points="175.453,-239.679 177.256,-250.496 177.117,-242.176 181,-248 177.117,-242.176 184.744,-245.504 175.453,-239.679 175.453,-239.679"/>
<polygon style="fill:black;stroke:black;" points="157.856,-211.742 156.934,-200.815 156.4,-209.119 153,-203 156.4,-209.119 149.066,-205.185 157.856,-211.742 157.856,-211.742"/>
</g>
<!-- Stat&#45;&gt;Measurement -->
<g id="edge38" class="edge"><title>Stat&#45;&gt;Measurement</title>
<path style="fill:none;stroke:black;" d="M232,-239C241,-224 253,-206 263,-192"/>
<polygon style="fill:black;stroke:black;" points="231.856,-239.258 223.066,-245.815 230.4,-241.881 227,-248 230.4,-241.881 230.934,-250.185 231.856,-239.258 231.856,-239.258"/>
<ellipse style="fill:black;stroke:black;" cx="265.015" cy="-188.473" rx="4.00002" ry="4.00002"/>
</g>
<!-- Stat&#45;&gt;Plot -->
<g id="edge40" class="edge"><title>Stat&#45;&gt;Plot</title>
<path style="fill:none;stroke:black;" d="M265,-254C288,-242 315,-227 338,-212 339,-211 340,-211 341,-210"/>
<polygon style="fill:black;stroke:black;" points="265.138,-253.939 254.172,-253.888 262.397,-255.157 256,-258 262.397,-255.157 257.828,-262.112 265.138,-253.939 265.138,-253.939"/>
<ellipse style="fill:black;stroke:black;" cx="343.927" cy="-207.561" rx="4.00002" ry="4.00002"/>
</g>
<!-- Stat&#45;&gt;UnitPref -->
<g id="edge34" class="edge"><title>Stat&#45;&gt;UnitPref</title>
<path style="fill:none;stroke:black;" d="M201,-238C197,-189 193,-112 190,-68"/>
<polygon style="fill:black;stroke:black;" points="201.005,-238.05 197.522,-248.448 201.303,-241.035 202,-248 201.303,-241.035 206.478,-247.552 201.005,-238.05 201.005,-238.05"/>
<ellipse style="fill:black;stroke:black;" cx="190" cy="-64" rx="4" ry="4"/>
</g>
<!-- Stat&#45;&gt;PersonStat -->
<g id="edge36" class="edge"><title>Stat&#45;&gt;PersonStat</title>
<path style="fill:none;stroke:black;" d="M142,-268C111,-257 77,-240 56,-212 26,-169 28,-107 32,-68"/>
<polygon style="fill:black;stroke:black;" points="142.422,-268.126 150.707,-275.31 145.295,-268.989 152,-271 145.295,-268.989 153.293,-266.69 142.422,-268.126 142.422,-268.126"/>
<ellipse style="fill:black;stroke:black;" cx="32.5038" cy="-63.9691" rx="4.00001" ry="4.00001"/>
</g>
</g>
</svg>
